<svg xmlns="http://www.w3.org/2000/svg" width="167.812" height="44.59" viewBox="0 0 167.812 44.59">
  <defs>
    <style>
      .cls-1 {
        fill: #333;
        fill-rule: evenodd;
      }
    </style>
  </defs>
  <path id="sub01_04.svg" class="cls-1" d="M531.847,3177.63l13.142,7.38,0.741-1.18-11.223-6.2,11.223-6.2-0.741-1.18Zm34.382-4.74a17.752,17.752,0,0,1-1.64,4.42,14.9,14.9,0,0,1-3.5,4.44,15.611,15.611,0,0,1-3.921,2.54,4.577,4.577,0,0,1,1.081.78,0.347,0.347,0,0,0,.22.12,15.471,15.471,0,0,0,4-2.72,18.663,18.663,0,0,0,5.142-8.7,2.075,2.075,0,0,1,.4-0.92,0.349,0.349,0,0,0,.14-0.28,1.388,1.388,0,0,0-.52-0.76,0.978,0.978,0,0,0-.741-0.48,0.81,0.81,0,0,0-.24.06,2.325,2.325,0,0,1-.84.16c-0.32.02-4.721,0.04-7.441,0.04a29.5,29.5,0,0,1-3.881-.16,5.233,5.233,0,0,0,.16,1.42,0.242,0.242,0,0,0,.26.22,0.689,0.689,0,0,0,.18-0.02c0.92-.12,2.941-0.16,7.9-0.16h3.24Zm16.279,10.26h-2.681a26,26,0,0,1-2.98-.1c0,0.92.14,1.42,0.36,1.42h0.1c0.58-.08,2.6-0.12,6.121-0.12h3.781c0.74,0,1.84.02,2.081,0.06h0.06c0.18,0,.24-0.14.24-0.66,0-.58-0.04-0.68-0.3-0.68h-0.1c-0.86.06-1.94,0.08-4.6,0.08h-0.761v-5.96h2.061c0.7,0,1.68.02,1.88,0.04h0.08c0.16,0,.2-0.1.2-0.56,0-.62-0.04-0.76-0.24-0.76h-0.06c-1.38.1-2.38,0.12-5.961,0.12a26.877,26.877,0,0,1-3.421-.14,3.379,3.379,0,0,0,.1,1.06c0.08,0.28.12,0.32,0.3,0.32h0.16c0.6-.06,1.2-0.06,3.581-0.08v5.96Zm17.319-10.62a8.7,8.7,0,0,0,.1,1.46,0.264,0.264,0,0,0,.28.22h0.1c0.04,0,.14-0.02.28-0.02,0.1,0,.28,0,0.52-0.02,1.181-.06,2.081-0.08,4.641-0.08,1.421,0,1.881,0,3.241.02h0.56c0.2,0,.34.02,0.42,0.02h0.28c0.24,0,.28-0.12.28-0.78,0-.64-0.04-0.76-0.24-0.76a1.847,1.847,0,0,0-.3.02c-0.58.04-2.7,0.08-4.881,0.08A52.455,52.455,0,0,1,599.827,3172.53Zm-2.36,8.66c0.06,1.44.12,1.7,0.36,1.7a0.5,0.5,0,0,0,.16-0.02c0.9-.1,3.04-0.14,7.281-0.14,4.341,0,6.5.02,7.042,0.04a1.978,1.978,0,0,0,.3.02c0.26,0,.3-0.08.3-0.78,0-.62-0.06-0.82-0.26-0.82a3.834,3.834,0,0,0-.4.02c-0.74.08-3.321,0.12-6.4,0.12C599.807,3181.33,598.847,3181.31,597.467,3181.19Zm34.782-6.52a34.948,34.948,0,0,1-.82,7.44,1.577,1.577,0,0,1-1.84,1.38,10.534,10.534,0,0,1-2.081-.22,4.3,4.3,0,0,1,.4.96c0.08,0.46.1,0.5,0.26,0.56a5.2,5.2,0,0,0,1.541.12,3.58,3.58,0,0,0,1.84-.42c0.74-.42,1.16-1.24,1.46-2.94,0.16-.92.441-3.2,0.541-4.6,0.14-2.02.14-2.02,0.24-2.24a0.819,0.819,0,0,0,.1-0.34,1.094,1.094,0,0,0-.36-0.6,1.215,1.215,0,0,0-.781-0.54,0.7,0.7,0,0,0-.36.1,1.951,1.951,0,0,1-.7.14c-0.08,0-.94,0-4.621.02,0.02-.42.06-0.74,0.08-1.26a3.939,3.939,0,0,1,.3-1.78,0.477,0.477,0,0,0,.08-0.24c0-.26-0.56-0.4-1.92-0.46a8.467,8.467,0,0,1,.1,1.56c0,0.7-.02,1.46-0.08,2.18h-2.421a26.316,26.316,0,0,1-3.3-.14c0.06,1.22.16,1.58,0.46,1.58,0,0,.14-0.02.18-0.02a35.827,35.827,0,0,1,4.961-.22,13.775,13.775,0,0,1-1.781,5.34,10.765,10.765,0,0,1-4.54,4.12,3.162,3.162,0,0,1,1.04.78,0.309,0.309,0,0,0,.24.14,11.031,11.031,0,0,0,2.72-2.04,13.732,13.732,0,0,0,3.721-8.16,0.774,0.774,0,0,0,.02-0.18Zm24.4,2.96-13.163-7.38-0.72,1.18,11.2,6.2-11.2,6.2,0.72,1.18Zm11.938-7.84a10.591,10.591,0,0,1,.26,1.84c0.32,3.9.58,4.82,1.48,5.18a9.738,9.738,0,0,0-2.921,2.14,4.4,4.4,0,0,0-1.3,3.04,2.944,2.944,0,0,0,2.341,3,12.087,12.087,0,0,0,3.62.42c1.361,0,3.6-.12,4.381-0.22a0.285,0.285,0,0,0,.3-0.34,4.225,4.225,0,0,0-.12-1.04,0.241,0.241,0,0,0-.24-0.16,0.643,0.643,0,0,0-.16.02,29.44,29.44,0,0,1-4.661.38c-2.86,0-4.1-.64-4.1-2.12,0-1.76,1.8-3.42,5.321-4.86a23.834,23.834,0,0,1,3.081-1.06c0.24-.06.34-0.14,0.34-0.26a2.639,2.639,0,0,0-.92-1.42,0.371,0.371,0,0,0-.14.04,6.122,6.122,0,0,1-.98.6,7.4,7.4,0,0,1-2.7,1.06c-0.5,0-.74-0.34-0.92-1.28a21.167,21.167,0,0,1-.28-2.98,5.921,5.921,0,0,1,.12-1.38,1.928,1.928,0,0,0,.04-0.24,0.289,0.289,0,0,0-.3-0.24A8,8,0,0,0,668.588,3169.79Zm-130.2,41.52h-5.3v-8.72a12.535,12.535,0,0,1,.1-1.86h-1.5a13.107,13.107,0,0,1,.12,1.88v9.58a13.277,13.277,0,0,1-.12,1.94h1.4v-1.6h12.3v1.6h1.42a12.816,12.816,0,0,1-.14-2.02v-9.58a13.605,13.605,0,0,1,.12-1.8h-1.52a9.067,9.067,0,0,1,.12,1.8v8.78h-5.682v-12.36a9.311,9.311,0,0,1,.14-1.78h-1.6a9.594,9.594,0,0,1,.14,1.78v12.36Zm30.942,2.78a17.431,17.431,0,0,1-.12-2.22v-11.92a13.933,13.933,0,0,1,.1-1.92,19.144,19.144,0,0,1-2.2.1H556.187a18.572,18.572,0,0,1-2.18-.1,19,19,0,0,1,.1,1.94v11.9a18.108,18.108,0,0,1-.12,2.22h1.34v-1.16H567.99v1.16h1.34Zm-14-14.84h5.5v5.5h-5.5v-5.5Zm6.721,0h5.922v5.5h-5.922v-5.5Zm-6.721,6.6h5.5v5.96h-5.5v-5.96Zm6.721,0h5.922v5.96h-5.922v-5.96Zm20.68-4.8a33.532,33.532,0,0,1-5.521.48h-0.56c0.02,0.14.02,0.16,0.04,0.34,0.14,0.96.16,1.02,0.52,1.02a43.268,43.268,0,0,0,6.041-.64,11.4,11.4,0,0,0,3.5,4.48,10.693,10.693,0,0,0-4-.74c-3.261,0-5.241,1.34-5.241,3.56,0,1.7,1.3,3.02,3.6,3.66a18.506,18.506,0,0,0,4.221.58c0.48,0,.48,0,0.66-0.5,0.1-.26.28-0.7,0.42-1-0.38.02-.7,0.04-1,0.04-3.941,0-6.482-1.12-6.482-2.86,0-1.44,1.481-2.34,3.881-2.34a11.076,11.076,0,0,1,4.921,1.22,0.943,0.943,0,0,0,.42.2,0.62,0.62,0,0,0,.42-0.44,3.383,3.383,0,0,0,.38-0.92,0.356,0.356,0,0,0-.22-0.22,12.692,12.692,0,0,1-4.18-5,26.034,26.034,0,0,0,3.72-1.1c1.121-.4,1.221-0.44,1.221-0.58a4.289,4.289,0,0,0-.24-0.8c-0.121-.3-0.161-0.36-0.221-0.36a0.3,0.3,0,0,0-.16.04,26.451,26.451,0,0,1-4.841,1.62,11.874,11.874,0,0,1-.92-3v-0.16a0.252,0.252,0,0,0-.3-0.28,6.027,6.027,0,0,0-1.48.2,8.372,8.372,0,0,1,.68,1.62C582.288,3199.95,582.508,3200.51,582.728,3201.05Zm19.38-3.48a20.675,20.675,0,0,1-1.9,4.18c-1.321,2.6-2.961,6.02-3.721,7.8a23.92,23.92,0,0,1-1,2.3c-0.22.5-.361,0.82-0.361,0.84a2,2,0,0,0,1.261.66c0.1,0,.16-0.06.22-0.26a14.913,14.913,0,0,1,.64-1.78c1.24-2.86,3.2-4.74,4.961-4.74a1.266,1.266,0,0,1,1.22.74,5.05,5.05,0,0,1,.4,2.04,9.258,9.258,0,0,0,.4,2.6,2.3,2.3,0,0,0,2.5,1.5,4.756,4.756,0,0,0,3.821-2.04,3.228,3.228,0,0,0,.76-1.4,0.829,0.829,0,0,0-.12-0.4,2.422,2.422,0,0,1-.38-1.2,10.879,10.879,0,0,1-1.08,1.92,3.78,3.78,0,0,1-2.921,1.82,1.282,1.282,0,0,1-1.24-.64,3.264,3.264,0,0,1-.26-1.28,23.645,23.645,0,0,0-.32-2.76,2.337,2.337,0,0,0-2.461-2.06c-1.6,0-2.821.76-4.241,2.62,0.62-1.04.76-1.28,0.92-1.6,2.3-4.42,3.741-6.92,4.3-7.48a0.5,0.5,0,0,0,.24-0.34A2.877,2.877,0,0,0,602.108,3197.57Zm23.32,2.82a5.539,5.539,0,0,1,2.261.52,5.156,5.156,0,0,1,3.061,4.88,6.12,6.12,0,0,1-2.881,5.2,10.755,10.755,0,0,1-3.141,1.32,2.725,2.725,0,0,1,.88.76,0.436,0.436,0,0,0,.341.24,8.308,8.308,0,0,0,2.5-1.14,7.191,7.191,0,0,0,3.681-6.32c0-4-2.881-6.64-7.242-6.64a8.687,8.687,0,0,0-5.141,1.54,7.682,7.682,0,0,0-3.22,6.34,6.156,6.156,0,0,0,.8,3.24,2.735,2.735,0,0,0,2.26,1.36c1.5,0,2.821-1.32,3.981-3.96A26.243,26.243,0,0,0,625.428,3200.39Zm-1.38.08a23.867,23.867,0,0,1-1.82,6.86c-0.86,1.92-1.761,2.92-2.6,2.92-1.06,0-1.8-1.28-1.8-3.08a6.517,6.517,0,0,1,3.5-5.96A7.393,7.393,0,0,1,624.048,3200.47Zm18.179,0.5h-1.88a13.8,13.8,0,0,1-1.94-.12v1.38a12.717,12.717,0,0,1,1.94-.1h1.88v4.84h-2.44a13.806,13.806,0,0,1-2.221-.14v1.46a17.065,17.065,0,0,1,2.221-.14H652.27a18.05,18.05,0,0,1,2.28.14v-1.46a14.375,14.375,0,0,1-2.3.14h-2.481v-4.84h2.04a16.652,16.652,0,0,1,2.041.1v-1.38a14.528,14.528,0,0,1-2.041.12h-2.04v-1.78a14.2,14.2,0,0,1,.12-1.98h-1.5a9.631,9.631,0,0,1,.12,2v1.76h-5.041v-1.8a12.065,12.065,0,0,1,.12-1.96h-1.481a12.175,12.175,0,0,1,.12,1.98v1.78Zm1.241,6v-4.84h5.041v4.84h-5.041Zm-0.3,2.08a9.393,9.393,0,0,1-2.4,2.46,12.07,12.07,0,0,1-3.121,1.66,3.326,3.326,0,0,1,.9,1.08,15.89,15.89,0,0,0,2.64-1.52,14.8,14.8,0,0,0,3.081-2.98Zm4.541,0.72a16.3,16.3,0,0,0,2.56,2.56,15.265,15.265,0,0,0,3.321,2.02,3.638,3.638,0,0,1,.9-1.12,14.676,14.676,0,0,1-3.121-1.66,9.15,9.15,0,0,1-2.58-2.54Zm19.959-8.58a14.819,14.819,0,0,1-2.08-.1,17.512,17.512,0,0,1,.08,2.16v6.06a12.4,12.4,0,0,1-.12,2.02h1.38a11.744,11.744,0,0,1-.12-2.02v-1.48h3.581v1.2a13.261,13.261,0,0,1-.12,2.08h1.34a11.3,11.3,0,0,1-.12-2.08v-1.2h4.021v1.86c0,0.46-.08.54-0.54,0.54a9.808,9.808,0,0,1-1.6-.14,3.833,3.833,0,0,1,.28,1.12c0.54,0.04.86,0.04,1.321,0.04,1.38,0,1.68-.28,1.68-1.48v-6.32a21.847,21.847,0,0,1,.08-2.36,13,13,0,0,1-2.1.1h-2.52a21.124,21.124,0,0,0,3.841-2.58,3.666,3.666,0,0,1,.48-0.36l-0.48-.7a12.95,12.95,0,0,1-1.961.08h-6.7a10.479,10.479,0,0,1-2.021-.12v1.22a12.581,12.581,0,0,1,1.941-.1h7.081a15.859,15.859,0,0,1-2.96,2.04,26.59,26.59,0,0,0-2.581-1.74l-0.86.64a16.529,16.529,0,0,1,2.541,1.62h-2.761Zm3.821,0.96h4.021v1.88h-4.021v-1.88Zm-1.1,0v1.88h-3.581v-1.88h3.581Zm-3.581,2.8h3.581v1.94h-3.581v-1.94Zm8.7,1.94h-4.021v-1.94h4.021v1.94Zm-15.284-8.8a17.48,17.48,0,0,1,2.981,3.48l0.98-.88a24.279,24.279,0,0,0-3.08-3.4Zm-0.16,7.76a5.827,5.827,0,0,1,1.281-.1h1.18v4.6a10.561,10.561,0,0,1-2.741,2.26l0.64,1.26c0.28-.24.341-0.3,0.541-0.48,0.34-.32.44-0.4,0.72-0.66a18.023,18.023,0,0,0,1.32-1.38,5.081,5.081,0,0,0,1.86,1.68c1.221,0.64,2.361.78,6.162,0.78,1.76,0,4.081-.04,6.2-0.12a6.133,6.133,0,0,1,.44-1.42,62.628,62.628,0,0,1-7.682.4c-2.64,0-3.9-.18-4.741-0.66a3.336,3.336,0,0,1-1.56-1.68v-3.74a14.033,14.033,0,0,1,.1-2.04,8.1,8.1,0,0,1-1.46.1h-0.9a6.517,6.517,0,0,1-1.361-.1v1.3Zm31.442-5.34h5.421a15,15,0,0,1,1.921.12v-1.34a12.556,12.556,0,0,1-1.921.12h-5.421v-0.62a12.433,12.433,0,0,1,.12-1.82h-1.5a10.988,10.988,0,0,1,.14,1.9v4.16h-2.961a21.2,21.2,0,0,1-2.16-.1,11.484,11.484,0,0,1,.08,1.46v3.08a10.645,10.645,0,0,1-.08,1.38,19.147,19.147,0,0,1,1.98-.08h8.282a19.686,19.686,0,0,1,1.981.08,9.8,9.8,0,0,1-.08-1.4v-3.06a10.325,10.325,0,0,1,.08-1.46,14.391,14.391,0,0,1-2.161.1h-3.721v-2.52Zm4.581,3.64v3.48h-9.642v-3.48h9.642Zm-12.342,10.12a13.212,13.212,0,0,0,2.52-4.26l-1.12-.5a8.766,8.766,0,0,1-1.04,2.26,8.311,8.311,0,0,1-1.5,1.82Zm6.221-.26a24.583,24.583,0,0,0-.6-4.14l-1.1.2a18.318,18.318,0,0,1,.42,4.22Zm4.741-.22a30.692,30.692,0,0,0-1.7-4.06l-1.061.34a17.78,17.78,0,0,1,1.521,4.24Zm4.8-.22a33.484,33.484,0,0,0-2.641-4.12l-1.06.48a21.573,21.573,0,0,1,2.561,4.34Z" transform="translate(-531.688 -3169.75)"/>
</svg>
