<svg xmlns="http://www.w3.org/2000/svg" width="238.937" height="17.6" viewBox="0 0 238.937 17.6">
  <defs>
    <style>
      .cls-1 {
        fill: #333;
        fill-rule: evenodd;
      }
    </style>
  </defs>
  <path id="sub03_04.svg" class="cls-1" d="M585.188,7874.67a9.682,9.682,0,0,1,1.38.08v-1.22a9.1,9.1,0,0,1-1.4.08h-1.581v-1.14a5.241,5.241,0,0,1,.1-1.42h-1.34a7.845,7.845,0,0,1,.12,1.6v0.96h-2.04a9.282,9.282,0,0,1-1.481-.08v1.22a9.443,9.443,0,0,1,1.481-.08h1.7a13.719,13.719,0,0,1-3.781,4.8,3.02,3.02,0,0,1,.78,1.02,15.578,15.578,0,0,0,3.441-4.76c-0.08,1.12-.1,1.88-0.1,2.3v1.76a11.954,11.954,0,0,1-.12,2h1.32a13.217,13.217,0,0,1-.08-2.02v-1.76a21.59,21.59,0,0,0-.14-2.34,10.133,10.133,0,0,0,2.761,3.18,4.005,4.005,0,0,1,.64-1.04,9.512,9.512,0,0,1-3.1-3.14h1.441Zm3.981-2.92a18.263,18.263,0,0,1-1.961-.08c0.04,0.44.08,1.08,0.08,1.88v6.1a18.813,18.813,0,0,1-.1,1.9c0.66-.04,1.32-0.06,2-0.06h3.5c0.621,0,1.421.02,2,.08a17.7,17.7,0,0,1-.08-1.92v-6.1a13.981,13.981,0,0,1,.08-1.88,19.406,19.406,0,0,1-1.981.08h-3.54Zm-0.741,1.02h5.022v1.86h-5.022v-1.86Zm0,2.86h5.022v1.9h-5.022v-1.9Zm0,2.9h5.022v1.94h-5.022v-1.94Zm-8.6,8.98a12.8,12.8,0,0,0,2.28-4.58l-1.12-.46a9.663,9.663,0,0,1-2.221,4.28Zm4.961-3.46a8.86,8.86,0,0,1,.1-1.78h-1.421a12.06,12.06,0,0,1,.12,1.78v2.14a1.2,1.2,0,0,0,.661,1.38,7.589,7.589,0,0,0,3.04.34c2.681,0,3.541-.12,4.061-0.52,0.46-.36.6-0.86,0.8-2.68a3.559,3.559,0,0,1-1.2-.44,3.686,3.686,0,0,1-.42,2.14c-0.32.3-1.04,0.38-3.161,0.38-2.3,0-2.58-.1-2.58-0.84v-1.9Zm4.761,0.34a19.521,19.521,0,0,0-2.8-2.7l-0.86.64a15.925,15.925,0,0,1,2.761,2.88Zm6.341,2.16a23.916,23.916,0,0,0-2.881-4.16l-1.04.58a18.647,18.647,0,0,1,2.821,4.36Zm10.6-8.98c0,0.5-.02.94-0.06,1.38,0.52-.04,1-0.06,1.52-0.06h2.26a13.341,13.341,0,0,1-5.361,2.3,3.446,3.446,0,0,1,.58.94,16.462,16.462,0,0,0,4.5-1.94,7.012,7.012,0,0,1,.9,1,18.478,18.478,0,0,1-6.061,2.76,3.289,3.289,0,0,1,.62.96,23,23,0,0,0,5.962-2.92,5.772,5.772,0,0,1,.52,1.24,21.036,21.036,0,0,1-7.062,3.54,3.407,3.407,0,0,1,.62,1.02,22.856,22.856,0,0,0,6.682-3.58,7.918,7.918,0,0,1,.1,1.32c0,1.3-.24,1.58-1.3,1.58a9.48,9.48,0,0,1-1.781-.18,4.246,4.246,0,0,1,.32,1.16c0.66,0.04.96,0.06,1.42,0.06a2.789,2.789,0,0,0,1.841-.4,2.858,2.858,0,0,0,.62-2.1,8.6,8.6,0,0,0-1-3.94,7.5,7.5,0,0,0-1.621-2.08c0.3-.22.441-0.34,0.921-0.74h0.88a15.934,15.934,0,0,0,1.62,4.06,12.885,12.885,0,0,0,3.981,4.32,5.436,5.436,0,0,1,.72-1.12,10.33,10.33,0,0,1-3.9-3.86,17.693,17.693,0,0,0,3.261-2.38l-0.96-.82a10.26,10.26,0,0,1-2.781,2.3,12.7,12.7,0,0,1-.92-2.5h2.561a14.082,14.082,0,0,1,1.46.06,11.987,11.987,0,0,1-.04-1.44v-1.18a13.5,13.5,0,0,1,.06-1.42,13.722,13.722,0,0,1-1.48.06h-3.041a16.546,16.546,0,0,0,1.34-1.5,7.125,7.125,0,0,1,.52-0.64l-0.66-.58a14.678,14.678,0,0,1-1.5.06h-2.761a1.628,1.628,0,0,0,.18-0.3c0.38-.6.38-0.6,0.54-0.86l-1.32-.28a6.939,6.939,0,0,1-1.36,2.24,13.462,13.462,0,0,1-3.3,2.94,3.527,3.527,0,0,1,.74.82c0.42-.34.42-0.34,1.021-0.84v1.54Zm1.24-2.6a18.579,18.579,0,0,0,1.56-1.72h3.9a11.284,11.284,0,0,1-1.5,1.72h-3.961Zm-0.14.9h3.581v2.12h-3.581v-2.12Zm4.681,0h4.121v2.12h-4.121v-2.12Zm-9.382,10.12a15.422,15.422,0,0,1-.12,2.36h1.38a23.27,23.27,0,0,1-.08-2.38v-10.2a33.125,33.125,0,0,0,1.44-3.48c0.2-.62.26-0.78,0.38-1.08l-1.34-.34a10.671,10.671,0,0,1-.7,2.52,17.873,17.873,0,0,1-3.341,5.66,1.369,1.369,0,0,1,.42.54c0.22,0.36.22,0.36,0.32,0.54a11.986,11.986,0,0,0,1.7-2.66c-0.04,1.38-.06,1.86-0.06,2.84v5.68Zm30.281-6.18c-0.32-1.44-.98-2.06-2.2-2.06a4.685,4.685,0,0,0-2.681.94,12.99,12.99,0,0,0,2.361-3.42c1.88-.22,2.2-0.26,4.241-0.64,0.6-.12.66-0.14,0.66-0.36a4.468,4.468,0,0,0-.12-0.84,0.212,0.212,0,0,0-.2-0.2,2.38,2.38,0,0,0-.34.06,27.94,27.94,0,0,1-3.641.72,6.949,6.949,0,0,1,.78-1.7,0.592,0.592,0,0,0,.16-0.32c0-.26-0.52-0.46-1.68-0.64a7.058,7.058,0,0,1-.72,2.82c-0.76.08-1.941,0.14-2.621,0.14-0.82,0-1.3-.02-2.02-0.06a4.67,4.67,0,0,0,.1,1.04,0.324,0.324,0,0,0,.4.28c1.04,0,2.36-.06,3.541-0.14a13.194,13.194,0,0,1-2.981,3.76,14.881,14.881,0,0,1-1.4,1.12,0.4,0.4,0,0,0-.24.28,1.8,1.8,0,0,0,.82,1.06,0.518,0.518,0,0,0,.34-0.18,10.951,10.951,0,0,1,1.9-1.54,5.608,5.608,0,0,1,3.041-1.12c0.74,0,1.12.48,1.32,1.66-3.541,2-4.481,2.96-4.481,4.58a2.313,2.313,0,0,0,1.541,2.28,9.074,9.074,0,0,0,3.56.48c1.481,0,3.721-.08,4.661-0.18,0.46-.04.5-0.08,0.5-0.36a6.111,6.111,0,0,0-.08-0.94,0.266,0.266,0,0,0-.24-0.28,0.254,0.254,0,0,0-.12.02,27.57,27.57,0,0,1-5,.44c-2.46,0-3.5-.44-3.5-1.5,0-1.04.84-1.9,3.08-3.1,0.1-.06.12-0.08,0.18-0.12v0.76c0,0.44,0,.74-0.02.94-0.02.38-.02,0.64-0.02,0.8,0,0.26.06,0.3,0.4,0.3a1.92,1.92,0,0,0,.86-0.12,1.328,1.328,0,0,0,.081-0.9c0-.66-0.02-1.72-0.06-2.44a44.457,44.457,0,0,1,5.721-2.6,0.344,0.344,0,0,0,.34-0.3,4.721,4.721,0,0,0-.98-1.48,11.705,11.705,0,0,1-2.881,1.8Zm12.9,0.64a5.319,5.319,0,0,1,.8-0.12c0.44-.02,1.1-0.08,2.26-0.2v6.34a13.009,13.009,0,0,1-.12,1.9h1.38a12.631,12.631,0,0,1-.12-1.9v-6.48c0.58-.06.76-0.08,1.641-0.22,0.1,0.3.16,0.5,0.32,1.14l0.98-.46a17.829,17.829,0,0,0-1.66-3.6l-0.8.42a13.918,13.918,0,0,1,.781,1.56c-1.041.12-1.961,0.22-2.581,0.26a3.884,3.884,0,0,1-.44.02,43.105,43.105,0,0,0,2.761-3.92,15.7,15.7,0,0,1,1.1-1.72l-1.12-.66a17.088,17.088,0,0,1-1.981,3.56c-0.38-.48-0.56-0.72-1.06-1.3a23.1,23.1,0,0,0,1.56-2.62,12.526,12.526,0,0,1,.62-1.1l-1.18-.56a13.348,13.348,0,0,1-1.7,3.5c-0.36-.4-0.38-0.42-0.8-0.88l-0.661.9a21.41,21.41,0,0,1,2.561,3.02c-0.42.62-.42,0.62-1.34,1.86-0.26.02-.44,0.02-0.7,0.02a3.559,3.559,0,0,1-.681-0.04Zm13.023-4.34c0.36-.5.82-1.26,1.5-2.4,0.26-.44.28-0.48,0.4-0.66l-0.621-.64a7.96,7.96,0,0,1-1.44.08h-2.22c0.1-.2.16-0.32,0.3-0.62,0.2-.42.2-0.42,0.34-0.72l-1.24-.36a9.978,9.978,0,0,1-1.381,3.02,12.349,12.349,0,0,1-2.6,2.92,4.861,4.861,0,0,1,.78.82c0.44-.38.54-0.48,0.94-0.88,0,0.26.02,0.68,0.02,0.92v8.54a1.2,1.2,0,0,0,.8,1.42,11.912,11.912,0,0,0,3.581.3c3.181,0,3.981-.14,4.441-0.78a6.242,6.242,0,0,0,.68-2.94,3.842,3.842,0,0,1-1.18-.64,7.022,7.022,0,0,1-.34,2.54c-0.26.58-.8,0.68-3.561,0.68a12.779,12.779,0,0,1-2.821-.18,0.589,0.589,0,0,1-.46-0.7v-3.8h5.9a11.445,11.445,0,0,1,1.66.08,11.445,11.445,0,0,1-.08-1.66v-2.8a11.529,11.529,0,0,1,.08-1.62,11.064,11.064,0,0,1-1.68.08h-1.8Zm-3.821,0h-0.92a16.5,16.5,0,0,0,1.821-2.6h3.26a13.221,13.221,0,0,1-1.62,2.6h-2.541Zm-0.26,1.04h2.6v3.84h-2.6v-3.84Zm3.681,0h2.7v3.84h-2.7v-3.84Zm-11.742,4.14a16.525,16.525,0,0,1-1.041,5.44l1.041,0.44a20.843,20.843,0,0,0,1.06-5.7Zm4.261,0.24a20.5,20.5,0,0,1,.66,4.22l1.06-.26a30.369,30.369,0,0,0-.76-4.24Zm25.88-5.12v1.74a1.828,1.828,0,0,0-1.42-.48c-1.66,0-2.741,1.22-2.741,3.1,0,1.84,1.041,3.02,2.661,3.02a1.971,1.971,0,0,0,1.76-.94,6.161,6.161,0,0,1-.78,1.66,6.672,6.672,0,0,1-1.5,1.5,9.8,9.8,0,0,1-2.341,1.14,2.963,2.963,0,0,1,.821.56,0.588,0.588,0,0,0,.46.3,7.408,7.408,0,0,0,2.78-1.72,5.925,5.925,0,0,0,1.9-4.56,6.747,6.747,0,0,0-.42-2.34c0.02-2.34.04-3.5,0.04-3.68,0.56-.02,1.88-0.04,3.18-0.04,1.06,0,2.741.06,3.041,0.1h0.06c0.12,0,.14-0.1.14-0.82a0.656,0.656,0,0,0-.08-0.44,1.133,1.133,0,0,0-.54-0.04c-1.02,0-5.281.06-5.781,0.08,0.08-2.16.08-2.16,0.24-2.48a0.529,0.529,0,0,0,.1-0.26c0-.22-0.36-0.28-1.781-0.34a10.63,10.63,0,0,1,.18,3.12c-1.66.08-4.521,0.26-5.821,0.38-1.1.1-1.66,0.14-2.18,0.14h-0.3c0.12,1.04.26,1.5,0.44,1.5a0.9,0.9,0,0,0,.26-0.06,40.219,40.219,0,0,1,7.621-.8v0.66Zm-1.36,2.36c0.92,0,1.46.74,1.46,2,0,1.2-.5,1.84-1.44,1.84a1.616,1.616,0,0,1-1.62-1.88A1.7,1.7,0,0,1,675.728,7878.77Zm18.479-5.96c0.08,0.92.3,1.6,0.52,1.6a0.535,0.535,0,0,0,.2-0.04c0.42-.14,1.721-0.32,5.742-0.86a77.187,77.187,0,0,1-6.882,7.6,9.84,9.84,0,0,1-1.4,1.24,0.322,0.322,0,0,0-.18.24,2.4,2.4,0,0,0,1.08,1.1,0.482,0.482,0,0,0,.34-0.26,10.034,10.034,0,0,1,7.122-3.84c2.2,0,3.52,1.16,3.52,3.08a3.608,3.608,0,0,1-.48,1.8,3.961,3.961,0,0,1-1.84,1.58c-0.72-1.86-1.881-2.78-3.521-2.78-1.56,0-2.681.9-2.681,2.18a2.057,2.057,0,0,0,.6,1.46,4.093,4.093,0,0,0,2.98.92,7.114,7.114,0,0,0,5.041-1.8,4.507,4.507,0,0,0,1.321-3.28c0-2.58-1.841-4.3-4.661-4.3a6.7,6.7,0,0,0-2.461.46,7.1,7.1,0,0,0-2.38,1.42c0.68-.74.82-0.86,1.5-1.58,1.28-1.32,2.18-2.28,2.52-2.64a16.436,16.436,0,0,1,2.321-2.34c0.34-.24.38-0.26,0.38-0.4a1.156,1.156,0,0,0-.24-0.54,1.681,1.681,0,0,0-.86-0.88,0.631,0.631,0,0,0-.3.1,4.12,4.12,0,0,1-1.661.4c-1.86.24-3.92,0.44-4.5,0.44C695.067,7872.89,694.587,7872.85,694.207,7872.81Zm6.5,13.72a5.106,5.106,0,0,1-1.541.2c-1.32,0-2.22-.52-2.22-1.3a1.159,1.159,0,0,1,1.38-1.02C699.428,7884.41,700.208,7885.09,700.709,7886.53Zm20.419-9.86h-4.841a13.386,13.386,0,0,1-2.04-.12v1.36a15.346,15.346,0,0,1,2.04-.12h4.841v3.02h-5.921a13.3,13.3,0,0,1-2.021-.12v1.38a14.046,14.046,0,0,1,2.021-.12h5.921v4.22c0,0.42-.2.56-0.82,0.56a22.463,22.463,0,0,1-3.261-.32,3.792,3.792,0,0,1,.34,1.32c1.041,0.1,2.161.16,2.9,0.16,1.64,0,2.1-.34,2.1-1.5v-4.44h5.482a11.788,11.788,0,0,1,2,.12v-1.38a13.162,13.162,0,0,1-2,.12h-5.482v-3.02h4.641a14.027,14.027,0,0,1,2.021.12v-1.36a13.574,13.574,0,0,1-2.041.12h-4.621v-3.22a35.072,35.072,0,0,0,5.842-1.3l-1.061-1.14c-2,1.02-7.741,1.92-12.282,1.92h-0.56a3.576,3.576,0,0,1,.5,1.2,57.271,57.271,0,0,0,6.3-.5v3.04Zm16.379,0.88h3.5c0.78,0,1.34.02,1.96,0.06-0.04-.52-0.06-1.02-0.06-1.78v-2.38c0-.72.02-1.28,0.06-1.84a16.022,16.022,0,0,1-1.96.08h-2.761a16.352,16.352,0,0,1-2-.08,20.581,20.581,0,0,1,.08,2.12v12.4a13.913,13.913,0,0,1-.12,2.16h1.42a11.123,11.123,0,0,1-.12-2.16v-8.58Zm0-4.92h4.3v1.54h-4.3v-1.54Zm0,2.46h4.3v1.54h-4.3v-1.54Zm14.283-1.36c0-.84.02-1.4,0.08-2.12a16.527,16.527,0,0,1-2.021.08h-3.16a15.626,15.626,0,0,1-1.961-.08c0.04,0.62.06,1.16,0.06,1.84v2.38c0,0.7-.02,1.24-0.06,1.78,0.641-.04,1.121-0.06,1.941-0.06h3.941v8.8c0,0.46-.16.54-0.961,0.54-0.38,0-1.22-.08-2.1-0.18a5.045,5.045,0,0,1,.36,1.24c0.52,0.02,1.46.06,1.9,0.06,1.581,0,1.981-.32,1.981-1.58v-12.7Zm-5.9-1.1h4.721v1.54h-4.721v-1.54Zm0,2.46h4.721v1.54h-4.721v-1.54Zm1.7,5.78c0-.78.02-1.28,0.06-1.8a16.778,16.778,0,0,1-1.92.08h-3.5a16.427,16.427,0,0,1-1.9-.08c0.04,0.52.06,1.14,0.06,1.8v4.28a13.952,13.952,0,0,1-.1,1.8h1.2v-1.34h4.181c0.78,0,1.48.02,1.98,0.06-0.04-.48-0.06-0.98-0.06-1.76v-3.04Zm-6.1-.76h5v1.72h-5v-1.72Zm0,2.68h5v1.86h-5v-1.86Zm21.9-11a10.591,10.591,0,0,1,.26,1.84c0.32,3.9.58,4.82,1.48,5.18a9.738,9.738,0,0,0-2.921,2.14,4.4,4.4,0,0,0-1.3,3.04,2.944,2.944,0,0,0,2.341,3,12.087,12.087,0,0,0,3.62.42c1.361,0,3.6-.12,4.381-0.22a0.285,0.285,0,0,0,.3-0.34,4.225,4.225,0,0,0-.12-1.04,0.241,0.241,0,0,0-.24-0.16,0.643,0.643,0,0,0-.16.02,29.44,29.44,0,0,1-4.661.38c-2.86,0-4.1-.64-4.1-2.12,0-1.76,1.8-3.42,5.321-4.86a23.834,23.834,0,0,1,3.081-1.06c0.24-.06.34-0.14,0.34-0.26a2.639,2.639,0,0,0-.92-1.42,0.371,0.371,0,0,0-.14.04,6.122,6.122,0,0,1-.98.6,7.4,7.4,0,0,1-2.7,1.06c-0.5,0-.74-0.34-0.92-1.28a21.167,21.167,0,0,1-.28-2.98,5.921,5.921,0,0,1,.12-1.38,1.928,1.928,0,0,0,.04-0.24,0.289,0.289,0,0,0-.3-0.24A8,8,0,0,0,763.388,7871.79Zm18.679,1.54c0.04,1.04.18,1.44,0.48,1.44a0.879,0.879,0,0,0,.18-0.02c0.24-.04.42-0.06,0.88-0.1,0.3-.02.66-0.06,1.02-0.1l1.581-.14a11.1,11.1,0,0,0-2.3,2.4,9.676,9.676,0,0,0-1.8,5.46c0,3.36,1.96,5.42,5.141,5.42a5.7,5.7,0,0,0,4.821-2.38,10.153,10.153,0,0,0,1.44-5.78,22.61,22.61,0,0,0-.26-3.26,18.144,18.144,0,0,0,2.3,4.54,3.85,3.85,0,0,0,1.18,1.32,2.15,2.15,0,0,0,.9-1.06,0.351,0.351,0,0,0-.14-0.22,17.442,17.442,0,0,1-3.161-4.44,10.65,10.65,0,0,1-1.18-3.46c-0.04-.3-0.08-0.38-0.24-0.38a6.675,6.675,0,0,0-.86.18c-0.36.1-.44,0.14-0.44,0.26a0.371,0.371,0,0,0,.04.14,14.192,14.192,0,0,1,.82,4.84c0,2.92-.46,5.02-1.44,6.4a4.5,4.5,0,0,1-3.821,1.94,3.619,3.619,0,0,1-3.761-4.18,8.911,8.911,0,0,1,2.3-5.74,8.583,8.583,0,0,1,2.98-2.26,0.314,0.314,0,0,0,.3-0.22,2.447,2.447,0,0,0-.5-0.9,0.4,0.4,0,0,0-.32-0.22,0.589,0.589,0,0,0-.18.06,9.609,9.609,0,0,1-3.961.54A15.53,15.53,0,0,1,782.067,7873.33Zm28.5,1.16c-0.36.02-.62,0.02-0.88,0.02a17.891,17.891,0,0,1-3.481-.32,6.3,6.3,0,0,0-.08.88c0,0.28.02,0.34,0.12,0.36a19.055,19.055,0,0,0,3.281.28c0.28,0,.58,0,1.06-0.02,0.02,1.48.04,2.48,0.06,2.96a7.4,7.4,0,0,1-.98.04,17.514,17.514,0,0,1-4.061-.42,6.524,6.524,0,0,0-.18,1.06,0.229,0.229,0,0,0,.24.24,16.141,16.141,0,0,0,3.681.36c0.5,0,.92-0.02,1.34-0.04,0.04,0.94.1,1.64,0.22,3.28a12.756,12.756,0,0,0-1.76-.14c-2.361,0-3.861,1.02-3.861,2.62,0,1.46,1.32,2.34,3.461,2.34,1.52,0,2.56-.4,3.08-1.16a3.185,3.185,0,0,0,.44-2.1,11.3,11.3,0,0,1,1.821.82,13.193,13.193,0,0,1,2.14,1.54,0.387,0.387,0,0,0,.24.12,0.939,0.939,0,0,0,.54-0.56,0.885,0.885,0,0,0,.261-0.52c0-.2-0.461-0.56-1.5-1.18a14.783,14.783,0,0,0-3.6-1.54c-0.18-2.02-.24-2.82-0.26-3.62a22.013,22.013,0,0,0,4.321-.86c0.36-.12.4-0.16,0.4-0.26a3.073,3.073,0,0,0-.24-0.82c-0.1-.22-0.14-0.26-0.22-0.26a0.268,0.268,0,0,0-.1.02,17.657,17.657,0,0,1-4.221.94c-0.02-.94-0.02-1.6-0.02-1.96,0-.2,0-0.56-0.02-0.98,1.321-.14,2.381-0.3,3.561-0.54,0.5-.1.52-0.1,0.52-0.24a3.531,3.531,0,0,0-.2-0.8c-0.1-.22-0.14-0.28-0.22-0.28a2.585,2.585,0,0,0-.34.08,19.483,19.483,0,0,1-3.3.58,7.621,7.621,0,0,1,.3-2.46,0.825,0.825,0,0,0,.08-0.3c0-.24-0.58-0.38-1.74-0.44A28.5,28.5,0,0,1,810.568,7874.49Zm0.36,9.94s0.02,0.4.02,0.48c0,1.36-.64,1.88-2.26,1.88-1.4,0-2.181-.42-2.181-1.18,0-.82.98-1.4,2.4-1.4A7.325,7.325,0,0,1,810.928,7884.43Z" transform="translate(-578.344 -7870.78)"/>
</svg>
