<svg xmlns="http://www.w3.org/2000/svg" width="43.47" height="227.93" viewBox="0 0 43.47 227.93">
  <defs>
    <style>
      .cls-1 {
        fill: #333;
        fill-rule: evenodd;
      }
    </style>
  </defs>
  <path id="sub02_02.svg" class="cls-1" d="M1416.25,4231.05h-0.9a12.656,12.656,0,0,1-1.94-.12v1.36a13.6,13.6,0,0,1,1.94-.12h0.9v9.54a17.6,17.6,0,0,1-.12,2.38h1.38v-1.22h10.64a14.927,14.927,0,0,1,2.04.12v-1.4a14.927,14.927,0,0,1-2.04.12h-10.64v-9.54h3.86v4.58a11.692,11.692,0,0,1-.08,1.56,11.315,11.315,0,0,1,1.56-.08h3.58a10.822,10.822,0,0,1,1.54.08,12.744,12.744,0,0,1-.08-1.6v-4.54h1.22a13.212,13.212,0,0,1,1.94.12v-1.36a12.477,12.477,0,0,1-1.94.12h-1.22v-2.4a12.388,12.388,0,0,1,.14-1.96h-1.48a15.546,15.546,0,0,1,.12,1.94v2.42h-4.08v-2.4a14.949,14.949,0,0,1,.12-1.96h-1.48a12.216,12.216,0,0,1,.14,1.96v2.4h-3.86v-2.34a11.835,11.835,0,0,1,.14-2.02h-1.54a13.432,13.432,0,0,1,.14,2.04v2.32Zm10.42,1.12v4.96h-4.08v-4.96h4.08Zm-7.1,25.82a11.609,11.609,0,0,1-6.14,3.68,3.3,3.3,0,0,1,.72,1.08c3.38-1.26,5.24-2.56,6.82-4.76h2.5a11.2,11.2,0,0,0,2.22,2.24h-1.32a6.729,6.729,0,0,1,.1,1.48v3.5a11.622,11.622,0,0,1-.12,1.94h1.48a13.023,13.023,0,0,1-.12-1.94v-3.6a7.6,7.6,0,0,1,.08-1.3,16.708,16.708,0,0,0,4.72,2.4,4.115,4.115,0,0,1,.68-1.18,15.217,15.217,0,0,1-4.12-1.68,9.082,9.082,0,0,1-2.22-1.86h2.44a16.7,16.7,0,0,1,1.82.08,13.756,13.756,0,0,1-.08-1.8v-3.98a14.969,14.969,0,0,1,.08-1.88,12.457,12.457,0,0,1-1.82.1h-10a12.25,12.25,0,0,1-1.84-.1,16.24,16.24,0,0,1,.08,1.88v3.98a14.978,14.978,0,0,1-.08,1.8,16.41,16.41,0,0,1,1.78-.08h2.34Zm-2.86-6.46h4.9v2.22h-4.9v-2.22Zm0,3.22h4.9v2.26h-4.9v-2.26Zm6.04-3.22h5.1v2.22h-5.1v-2.22Zm0,3.22h5.1v2.26h-5.1v-2.26Zm-3.62,5.5a7.2,7.2,0,0,1,.06,1.06,4.157,4.157,0,0,1-1.3,3.3,8.693,8.693,0,0,1-3.48,1.6,4.815,4.815,0,0,1,.84,1.1,12.366,12.366,0,0,0,2.28-1,7.412,7.412,0,0,0,1.58-1.26,5.869,5.869,0,0,0,1.32-3.96,5.9,5.9,0,0,1,.08-0.82Zm-1.14,13.8a10.217,10.217,0,0,1,.1,1.56v0.58c-0.04,1.2-.2,9.18-0.2,9.68,0,2.98,1.22,4.38,3.84,4.38a8.791,8.791,0,0,0,5.14-1.7c1.24-.88,2.56-2.26,2.56-2.68a0.477,0.477,0,0,0-.08-0.24,3.549,3.549,0,0,1-.42-1.22,10.508,10.508,0,0,1-3.2,3.24,7.242,7.242,0,0,1-3.92,1.18c-1.88,0-2.56-.82-2.56-3.04,0-1.34.18-6.86,0.28-8.76a8.944,8.944,0,0,1,.3-2.18,0.987,0.987,0,0,0,.06-0.3c0-.2-0.08-0.26-0.38-0.32A10.212,10.212,0,0,0,1417.99,4274.05Zm6.72,2.48a0.28,0.28,0,0,0,.12.18,6.992,6.992,0,0,1,1.58,2,0.241,0.241,0,0,0,.2.16,1.208,1.208,0,0,0,.48-0.32,0.622,0.622,0,0,0,.34-0.38,4.82,4.82,0,0,0-.88-1.2,3.744,3.744,0,0,0-1.08-.96,0.745,0.745,0,0,0-.48.24,0.656,0.656,0,0,1-.16.12A0.214,0.214,0,0,0,1424.71,4276.53Zm1.66-1.14a0.121,0.121,0,0,0,.08.1,7.35,7.35,0,0,1,1.62,2c0.06,0.12.08,0.14,0.16,0.14a0.718,0.718,0,0,0,.36-0.18c0.4-.28.46-0.32,0.46-0.44a6,6,0,0,0-1.9-2.16A1.323,1.323,0,0,0,1426.37,4275.39Zm-1.58,27.06c0.06,0.9.08,1.68,0.08,2.22a10.855,10.855,0,0,1-.44,3.52,2.711,2.711,0,0,1-1.32-.78,4.273,4.273,0,0,1-.9-1.52,2.052,2.052,0,0,1-.48.72,0.305,0.305,0,0,0-.12.24,2,2,0,0,0,.38.84,3.751,3.751,0,0,0,1.92,1.48,5.128,5.128,0,0,1-2.76,1.64,1.757,1.757,0,0,1,.72.72,0.243,0.243,0,0,0,.2.12,4.178,4.178,0,0,0,1.2-.5,4.438,4.438,0,0,0,1.94-1.7,3.86,3.86,0,0,0,.46.02c2.62,0,4.42-1.68,4.42-4.08a3.918,3.918,0,0,0-1.62-3.32,4.8,4.8,0,0,0-2.5-.76c-0.04-.44-0.06-0.94-0.06-1.14a1.846,1.846,0,0,1,.08-0.64,0.5,0.5,0,0,0,.02-0.16c0-.22-0.38-0.3-1.34-0.3h-0.32a10.551,10.551,0,0,1,.38,2.32,6.427,6.427,0,0,0-4.04,2.26,8.058,8.058,0,0,0-1.56,3.1c0.02-2.88.18-4.48,0.54-5.14a0.554,0.554,0,0,0,.1-0.24c0-.2-0.56-0.38-1.52-0.46a3.834,3.834,0,0,1,.02.4c0,0.24-.04.86-0.06,1.24a23.247,23.247,0,0,0-.16,2.82,24.571,24.571,0,0,0,.26,3.56,0.2,0.2,0,0,0,.22.18h0.2a2.05,2.05,0,0,0,.8-0.12,0.505,0.505,0,0,0,.08-0.32,7.112,7.112,0,0,1,.66-2.3A6.676,6.676,0,0,1,1424.79,4302.45Zm1.24-.06a2.87,2.87,0,0,1,2.82,2.84,2.992,2.992,0,0,1-3.18,3.14,13.387,13.387,0,0,0,.42-3.84C1426.09,4303.91,1426.07,4303.41,1426.03,4302.39Zm-6.3,18.3c-0.12,0-.16.06-0.28,0.32a3.673,3.673,0,0,0-.24.74c0,0.12.06,0.16,0.68,0.38a21.188,21.188,0,0,0,5.12,1.08,0.258,0.258,0,0,0,.22-0.1,4.6,4.6,0,0,0,.1-0.94c0-.38-0.02-0.42-0.18-0.42a17.829,17.829,0,0,1-4.78-.88A1.978,1.978,0,0,0,1419.73,4320.69Zm-3.28,6.06c0.42,1.1.78,1.66,1.04,1.66a0.583,0.583,0,0,0,.3-0.12,11.24,11.24,0,0,1,5.04-1.72c1.74,0,2.66,1.08,2.66,3.08,0,3.02-2.06,5.16-6.24,6.5a2.619,2.619,0,0,1,.78.64c0.28,0.32.3,0.34,0.5,0.34a8.75,8.75,0,0,0,2.18-.9c2.88-1.66,4.22-3.76,4.22-6.68,0-2.62-1.48-4.18-3.94-4.18a12.555,12.555,0,0,0-3.38.6A18.552,18.552,0,0,1,1416.45,4326.75Zm6.78,20.04a5.538,5.538,0,0,1,2.26.52,5.156,5.156,0,0,1,3.06,4.88,6.119,6.119,0,0,1-2.88,5.2,10.759,10.759,0,0,1-3.14,1.32,2.725,2.725,0,0,1,.88.76,0.434,0.434,0,0,0,.34.24,8.308,8.308,0,0,0,2.5-1.14,7.192,7.192,0,0,0,3.68-6.32c0-4-2.88-6.64-7.24-6.64a8.682,8.682,0,0,0-5.14,1.54,7.682,7.682,0,0,0-3.22,6.34,6.156,6.156,0,0,0,.8,3.24,2.735,2.735,0,0,0,2.26,1.36c1.5,0,2.82-1.32,3.98-3.96A26.243,26.243,0,0,0,1423.23,4346.79Zm-1.38.08a23.867,23.867,0,0,1-1.82,6.86c-0.86,1.92-1.76,2.92-2.6,2.92-1.06,0-1.8-1.28-1.8-3.08a6.518,6.518,0,0,1,3.5-5.96A7.393,7.393,0,0,1,1421.85,4346.87Zm-3.32,25.36a13.817,13.817,0,0,1,2.78,2.14,26.1,26.1,0,0,1-7.56,4.32,3.59,3.59,0,0,1,.76,1.12,27.533,27.533,0,0,0,4.28-2.24v4.64a12.011,12.011,0,0,1-.12,1.72h1.36v-1.08h8.02v1.08h1.36a10.6,10.6,0,0,1-.12-1.7v-4.64a9.152,9.152,0,0,1,.1-1.56,8.779,8.779,0,0,1-1.4.08h-7.04a27.215,27.215,0,0,0,6.18-6.12c0.34-.46.44-0.6,0.64-0.84l-0.68-.82a11.258,11.258,0,0,1-1.78.1h-4.24c0.34-.44.34-0.44,1.26-1.74l-1.3-.5a10.86,10.86,0,0,1-2.14,3.06,17.658,17.658,0,0,1-4.74,3.7,3.121,3.121,0,0,1,.8.92,20.874,20.874,0,0,0,5.26-4.36h5.74a22.923,22.923,0,0,1-3.7,4.08,17.831,17.831,0,0,0-2.82-2.04Zm1.48,5h8.04v4.54h-8.04v-4.54Zm1.24,19.6a11.528,11.528,0,0,0,1.4-1.04h0.58c0.26,1.16.32,1.36,0.46,1.84a15.951,15.951,0,0,0,3.28,6.06,17.117,17.117,0,0,0,3.14,2.66,5.693,5.693,0,0,1,.94-1.08,12.28,12.28,0,0,1-5.08-4.9,22.949,22.949,0,0,0,2.34-1.94,15.116,15.116,0,0,1,1.16-1.04l-1.08-.86a11.747,11.747,0,0,1-2.94,2.84,15.11,15.11,0,0,1-1.14-3.58h2.06a17.215,17.215,0,0,1,1.88.1v-1.22a11.265,11.265,0,0,1-1.88.1h-8.12a11.713,11.713,0,0,1-1.88-.1v1.22a17.8,17.8,0,0,1,1.88-.1h2.82a17.655,17.655,0,0,1-6.72,2.62,3.28,3.28,0,0,1,.72,1.04,21.839,21.839,0,0,0,5.14-2,6.5,6.5,0,0,1,1.12,1.34,16.3,16.3,0,0,1-3.02,1.68,25.228,25.228,0,0,1-4.4,1.46,3.214,3.214,0,0,1,.72,1.06,24.1,24.1,0,0,0,7.18-3.28,9.06,9.06,0,0,1,.54,1.62,21.334,21.334,0,0,1-8.62,4.2,5.021,5.021,0,0,1,.74,1.06,24.023,24.023,0,0,0,8.12-4.06,11.8,11.8,0,0,1,.08,1.44c0,1.82-.26,2.3-1.26,2.3a12.036,12.036,0,0,1-2.46-.3,4.287,4.287,0,0,1,.3,1.28,20.321,20.321,0,0,0,2.28.14,2.006,2.006,0,0,0,1.76-.58,4.395,4.395,0,0,0,.56-2.56c0-2.98-1.1-5.9-2.76-7.32Zm0.24-4.94h-5.26a18.58,18.58,0,0,1-1.94-.08,8.447,8.447,0,0,1,.08,1.28v1.18a8.827,8.827,0,0,1-.08,1.32h1.26v-2.64h13.56v2.64h1.26a8.167,8.167,0,0,1-.08-1.32v-1.18a7.642,7.642,0,0,1,.08-1.28,18.58,18.58,0,0,1-1.94.08h-5.7v-0.6a5.907,5.907,0,0,1,.12-1.18h-1.48a5.761,5.761,0,0,1,.12,1.18v0.6Zm-2.96,23.52a16.647,16.647,0,0,1-2.16-.1,11.345,11.345,0,0,1,.1,1.82v6.36a12.661,12.661,0,0,1-.1,1.98c0.64-.06,1.34-0.1,2.04-0.1h7.72c0.7,0,1.38.04,2.04,0.1a11.368,11.368,0,0,1-.1-1.92v-6.34a10.812,10.812,0,0,1,.1-1.9,15.173,15.173,0,0,1-2,.1h-7.64Zm8.34,1.06v1.86h-9.2v-1.86h9.2Zm0,2.9v1.94h-9.2v-1.94h9.2Zm0,2.98v1.98h-9.2v-1.98h9.2Zm-13.08,5.68a13.807,13.807,0,0,1,1.98-.12h13.12a13.9,13.9,0,0,1,1.96.12v-1.38a13.423,13.423,0,0,1-1.98.12h-13.1a13.236,13.236,0,0,1-1.98-.12v1.38Zm5.64,0.3c-1.5,1.34-2.6,1.86-5.34,2.52a3.769,3.769,0,0,1,.84,1.08,12.668,12.668,0,0,0,5.58-2.9Zm4.42,0.68a15.976,15.976,0,0,0,5.82,2.84,5.531,5.531,0,0,1,.84-1.1,13.743,13.743,0,0,1-5.6-2.44Zm4.38,13.4a1.7,1.7,0,0,0,.8-0.74,5.814,5.814,0,0,0-1.18-1.4,2.027,2.027,0,0,0-.92-0.64,0.563,0.563,0,0,0-.4.24c-0.32.26-.32,0.26-0.32,0.32a0.426,0.426,0,0,0,.14.18,8.377,8.377,0,0,1,1.7,1.88A0.221,0.221,0,0,0,1428.23,4442.41Zm-0.38-3.52a0.145,0.145,0,0,0,.08.12,7.6,7.6,0,0,1,1.76,1.92,0.11,0.11,0,0,0,.12.08,1.17,1.17,0,0,0,.4-0.24c0.36-.26.4-0.3,0.4-0.42a6.1,6.1,0,0,0-2.02-2.02A1.342,1.342,0,0,0,1427.85,4438.89Zm-8.96,4.76c-0.54.08-.54,0.08-0.8,0.12a20.3,20.3,0,0,1-3.84.48c0.18,1,.38,1.48.6,1.48a0.461,0.461,0,0,0,.18-0.06,16.066,16.066,0,0,1,3.52-.84,31.773,31.773,0,0,1-4.08,8.56,0.242,0.242,0,0,0,.06.4,2.505,2.505,0,0,0,.94.52,0.321,0.321,0,0,0,.22-0.1,23.815,23.815,0,0,0,2.14-4.06,53.831,53.831,0,0,0,2.08-5.58,12.463,12.463,0,0,1,2.14-.26c1.04,0,1.52.64,1.52,2.08a15.29,15.29,0,0,1-.96,5.32c-0.42,1.12-.92,1.6-1.68,1.6a3.647,3.647,0,0,1-1.98-.64,3.839,3.839,0,0,1,.22,1.22,0.336,0.336,0,0,0,.16.36,4.724,4.724,0,0,0,1.82.38,2.532,2.532,0,0,0,2.34-1.6,15.609,15.609,0,0,0,1.4-6.44c0-2.32-.82-3.38-2.6-3.38a14.55,14.55,0,0,0-2.04.22c0.04-.14.06-0.22,0.12-0.42a10.454,10.454,0,0,1,.94-2.72,0.443,0.443,0,0,0,.12-0.28c0-.26-0.64-0.52-1.8-0.72A16.9,16.9,0,0,1,1418.89,4443.65Zm10.44,4.88a2.149,2.149,0,0,0,.8-0.46,0.482,0.482,0,0,0,.26-0.34,8.908,8.908,0,0,0-1.72-3.14,8.04,8.04,0,0,0-1.84-1.86,1.93,1.93,0,0,0-.82.78,0.208,0.208,0,0,0,.1.16,11.183,11.183,0,0,1,3.04,4.68A0.188,0.188,0,0,0,1429.33,4448.53Zm-33.98-208.36a16.278,16.278,0,0,0,3.46-6.02,3.7,3.7,0,0,1,3.48,3.74,4.178,4.178,0,0,1-2.38,3.62,9.692,9.692,0,0,1-3.18,1.14,2.436,2.436,0,0,1,.88.8,0.433,0.433,0,0,0,.38.2,6.387,6.387,0,0,0,1.5-.46c2.72-1.14,4.16-2.92,4.16-5.16a4.677,4.677,0,0,0-1.94-3.88,5.656,5.656,0,0,0-2.6-.96,4.515,4.515,0,0,1,.24-0.62,0.685,0.685,0,0,0,.16-0.34c0-.18-0.38-0.32-1.52-0.58a6.4,6.4,0,0,1-.2,1.46,10.207,10.207,0,0,0-3.18.54c0-.58.04-1.64,0.1-2.54a47.639,47.639,0,0,0,5.2-.68c0.9-.18.94-0.2,0.94-0.32a8.421,8.421,0,0,0-.08-1c0-.12-0.04-0.16-0.1-0.16a3.129,3.129,0,0,0-.48.12,32.509,32.509,0,0,1-5.4.9,5.542,5.542,0,0,1,.4-2.04,0.788,0.788,0,0,0,.1-0.28,0.2,0.2,0,0,0-.18-0.2,10.212,10.212,0,0,0-1.52-.18,4.874,4.874,0,0,1,.02.54c0,0.18-.04.94-0.12,2.26-0.9.04-1.48,0.06-2,.06-0.58,0-.94-0.02-1.74-0.08v0.24a4.31,4.31,0,0,0,.08.86c0.04,0.12.1,0.14,0.3,0.14,0.96,0,2.22-.04,3.3-0.1-0.04,1.02-.06,2.16-0.06,2.96a9.46,9.46,0,0,0-2.34,1.54,6.1,6.1,0,0,0-2.38,4.6,2.06,2.06,0,0,0,2.08,2.36,5.715,5.715,0,0,0,3.54-1.48c0.28,0.8.34,0.9,0.46,0.9a2.035,2.035,0,0,0,1.12-.56,0.284,0.284,0,0,0-.04-0.12A6.3,6.3,0,0,1,1395.35,4240.17Zm-0.74-5.4a9.626,9.626,0,0,1,2.92-.66,13.631,13.631,0,0,1-2.54,4.62A23.346,23.346,0,0,1,1394.61,4234.77Zm-0.68,5.06a5.122,5.122,0,0,1-2.94,1.54,1.111,1.111,0,0,1-1.06-1.28c0-1.62,1.4-3.52,3.46-4.72A23.257,23.257,0,0,0,1393.93,4239.83Zm-2.72,11.78c0.08,0.92.3,1.6,0.52,1.6a0.535,0.535,0,0,0,.2-0.04c0.42-.14,1.72-0.32,5.74-0.86a77.2,77.2,0,0,1-6.88,7.6,9.84,9.84,0,0,1-1.4,1.24,0.322,0.322,0,0,0-.18.24,2.4,2.4,0,0,0,1.08,1.1,0.482,0.482,0,0,0,.34-0.26,10.032,10.032,0,0,1,7.12-3.84c2.2,0,3.52,1.16,3.52,3.08a3.608,3.608,0,0,1-.48,1.8,3.961,3.961,0,0,1-1.84,1.58c-0.72-1.86-1.88-2.78-3.52-2.78-1.56,0-2.68.9-2.68,2.18a2.056,2.056,0,0,0,.6,1.46,4.093,4.093,0,0,0,2.98.92,7.113,7.113,0,0,0,5.04-1.8,4.51,4.51,0,0,0,1.32-3.28c0-2.58-1.84-4.3-4.66-4.3a6.694,6.694,0,0,0-2.46.46,7.1,7.1,0,0,0-2.38,1.42c0.68-.74.82-0.86,1.5-1.58,1.28-1.32,2.18-2.28,2.52-2.64a16.413,16.413,0,0,1,2.32-2.34c0.34-.24.38-0.26,0.38-0.4a1.156,1.156,0,0,0-.24-0.54,1.681,1.681,0,0,0-.86-0.88,0.631,0.631,0,0,0-.3.1,4.119,4.119,0,0,1-1.66.4c-1.86.24-3.92,0.44-4.5,0.44C1392.07,4251.69,1391.59,4251.65,1391.21,4251.61Zm6.5,13.72a5.1,5.1,0,0,1-1.54.2c-1.32,0-2.22-.52-2.22-1.3a1.159,1.159,0,0,1,1.38-1.02C1396.43,4263.21,1397.21,4263.89,1397.71,4265.33Zm-0.48,11.46a5.538,5.538,0,0,1,2.26.52,5.156,5.156,0,0,1,3.06,4.88,6.119,6.119,0,0,1-2.88,5.2,10.759,10.759,0,0,1-3.14,1.32,2.725,2.725,0,0,1,.88.76,0.434,0.434,0,0,0,.34.24,8.308,8.308,0,0,0,2.5-1.14,7.192,7.192,0,0,0,3.68-6.32c0-4-2.88-6.64-7.24-6.64a8.682,8.682,0,0,0-5.14,1.54,7.682,7.682,0,0,0-3.22,6.34,6.156,6.156,0,0,0,.8,3.24,2.735,2.735,0,0,0,2.26,1.36c1.5,0,2.82-1.32,3.98-3.96A26.243,26.243,0,0,0,1397.23,4276.79Zm-1.38.08a23.867,23.867,0,0,1-1.82,6.86c-0.86,1.92-1.76,2.92-2.6,2.92-1.06,0-1.8-1.28-1.8-3.08a6.518,6.518,0,0,1,3.5-5.96A7.393,7.393,0,0,1,1395.85,4276.87Zm3.74,26.04c0.04,1.96.04,2.42,0.16,5.36a6.908,6.908,0,0,0-1.82-.18c-2.06,0-3.42,1.04-3.42,2.62,0,1.52,1.24,2.5,3.22,2.5,2.12,0,3.36-1.04,3.36-2.84a3.571,3.571,0,0,0-.02-0.42,12.936,12.936,0,0,1,2.32,1.52,1.381,1.381,0,0,0,.64.48c0.1,0,.1,0,0.46-0.48a1.228,1.228,0,0,0,.3-0.56,0.5,0.5,0,0,0-.26-0.36,14.9,14.9,0,0,0-3.5-1.96c-0.14-2.34-.2-4.3-0.2-5.8a28.046,28.046,0,0,0,3-.52,0.2,0.2,0,0,0,.2-0.24,6.168,6.168,0,0,0-.1-0.96,0.132,0.132,0,0,0-.14-0.12,0.528,0.528,0,0,0-.14.02,25.083,25.083,0,0,1-2.82.56,8.223,8.223,0,0,1,.3-3.1,0.411,0.411,0,0,0,.08-0.26,0.255,0.255,0,0,0-.24-0.24,6.461,6.461,0,0,0-1.48-.22,11.546,11.546,0,0,1,.1,1.72v2.24a26.625,26.625,0,0,1-2.82.14c-0.64,0-1-.02-1.76-0.08v0.2a4.517,4.517,0,0,0,.1.94c0.02,0.14.08,0.16,0.28,0.16,0.18,0,.54,0,1.06.02h0.32C1397.45,4303.05,1398.51,4302.99,1399.59,4302.91Zm0.16,6.66a1.952,1.952,0,0,1,.02.54c0,1.28-.64,1.88-2.04,1.88-1.26,0-2.02-.5-2.02-1.34,0-.86.84-1.38,2.28-1.38A4.588,4.588,0,0,1,1399.75,4309.57Zm-7.78-1.92c-0.22.58-.22,0.58-0.58,1.56-0.24.58-.4,1.04-0.68,1.76a21.116,21.116,0,0,1-.26-3.3c0-2.94.78-7.52,1.48-8.76a0.494,0.494,0,0,0,.14-0.32c0-.24-0.6-0.5-1.66-0.7a20.134,20.134,0,0,1-.38,2.54,35.311,35.311,0,0,0-.78,7.02,19.014,19.014,0,0,0,.62,5.04c0.2,0.76.22,0.78,0.44,0.78a4.588,4.588,0,0,0,.82-0.06c0.16-.04.2-0.1,0.24-0.38a16.625,16.625,0,0,1,.8-3.16,3.937,3.937,0,0,0,.28-0.9,0.492,0.492,0,0,0-.12-0.32A1.961,1.961,0,0,1,1391.97,4307.65Zm0.26,17.7a27.335,27.335,0,0,1-2.66,5.62,12.24,12.24,0,0,1-1.1,1.56,0.66,0.66,0,0,0-.18.36,2.089,2.089,0,0,0,1.06.8c0.2,0,.56-0.48,1.18-1.56a40.677,40.677,0,0,0,3.16-6.98c0.82-.12,2.28-0.38,2.98-0.52,0.1-.02.16-0.04,0.18-0.04,0.36-.08.42-0.12,0.42-0.28a0.617,0.617,0,0,0-.02-0.18c0-.06-0.02-0.16-0.04-0.32-0.06-.48-0.1-0.6-0.24-0.6a0.3,0.3,0,0,0-.16.04,23.113,23.113,0,0,1-2.72.6,9.556,9.556,0,0,1,.82-2.46,0.745,0.745,0,0,0,.12-0.3c0-.1-0.04-0.14-0.32-0.24a10.564,10.564,0,0,0-1.46-.34,11.56,11.56,0,0,1-.62,3.56c-1.06.12-2.42,0.22-3.12,0.22-0.18,0-.8-0.02-1.12-0.02a6.3,6.3,0,0,0,.18,1.14c0.04,0.14.08,0.16,0.36,0.16,0.14,0,.32,0,0.64-0.02,0.2-.02.38-0.02,0.48-0.04C1390.77,4325.49,1390.93,4325.47,1392.23,4325.35Zm5.7,1.6a9.214,9.214,0,0,1,.1,1.28c0.04,1.34.1,2.44,0.2,3.84a7.2,7.2,0,0,0-1.76-.2c-1.98,0-3.42,1.16-3.42,2.76,0,1.48,1.3,2.48,3.24,2.48,1.56,0,2.62-.58,3.04-1.68a3.919,3.919,0,0,0,.24-1.58,10.465,10.465,0,0,1,2.6,1.76,0.505,0.505,0,0,0,.3.2,1.733,1.733,0,0,0,.72-1.1,1.862,1.862,0,0,0-.88-0.8,12.515,12.515,0,0,0-2.78-1.5c-0.12-1.44-.18-2.56-0.18-3.52a4.1,4.1,0,0,1,.14-1.28,0.6,0.6,0,0,0,.06-0.26C1399.55,4327.13,1399.23,4327.07,1397.93,4326.95Zm0.32,6.44a2.269,2.269,0,0,1,.02.28c0,1.52-.64,2.2-2.06,2.2-1.22,0-1.94-.5-1.94-1.34,0-.9.88-1.48,2.24-1.48A4.222,4.222,0,0,1,1398.25,4333.39Zm1.22-8.24a0.3,0.3,0,0,0,.2.22,10.591,10.591,0,0,1,3.36,2.08,0.794,0.794,0,0,0,.24.14,0.448,0.448,0,0,0,.32-0.28,2.387,2.387,0,0,0,.42-0.8v-0.02c0-.36-3.14-2.22-3.78-2.24a0.217,0.217,0,0,1-.1-0.02,1.178,1.178,0,0,0-.34.36c-0.04.08-.1,0.14-0.14,0.22A1.079,1.079,0,0,0,1399.47,4325.15Zm-6.3,26.98v-0.68c1.4-.2,2.38-0.32,2.94-0.38,0.84-.1,2.32-0.22,2.68-0.24-0.12,2.9-.32,3.42-1.28,3.42a3.889,3.889,0,0,1-1.84-.44,3.574,3.574,0,0,1,.32,1.12,0.368,0.368,0,0,0,.24.34,4.047,4.047,0,0,0,1.38.22,1.9,1.9,0,0,0,2.18-1.74,22.248,22.248,0,0,0,.28-3.02,6.669,6.669,0,0,0,.7-0.04c0.86-.04,2.54-0.1,3.3-0.1,0.22,0,.28-0.04.28-0.18v-0.16a1.077,1.077,0,0,0,.02-0.22v-0.08a3.39,3.39,0,0,1-.02-0.46c0-.12-0.06-0.16-0.32-0.16-0.72,0-2.1.08-3.92,0.22,0.06-1.38.06-1.46,0.06-2.06a3.894,3.894,0,0,1,.22-1.8,0.742,0.742,0,0,0,.04-0.18c0-.26-0.6-0.42-1.78-0.48a14.147,14.147,0,0,1,.2,3.1c0,0.54,0,.62-0.02,1.54-1.86.14-2.5,0.22-5.66,0.62v-0.46a10.806,10.806,0,0,1,.2-2.86,0.576,0.576,0,0,0,.1-0.32c0-.16-0.12-0.24-0.46-0.32a6.063,6.063,0,0,0-1.36-.18,12.782,12.782,0,0,1,.24,2.64c0,0.5,0,.5.02,1.68-1.48.2-1.48,0.2-2.2,0.32a18.79,18.79,0,0,1-2,.2,5.869,5.869,0,0,0,.26,1.06c0.12,0.34.2,0.44,0.34,0.44a1.29,1.29,0,0,0,.4-0.12,21.593,21.593,0,0,1,3.2-.7,35.84,35.84,0,0,0,.1,5.18c0.3,2.04,1.7,2.82,5.04,2.82a33.085,33.085,0,0,0,4.18-.22c0.2-.04.22-0.06,0.22-0.42a5.811,5.811,0,0,0-.1-0.92,0.133,0.133,0,0,0-.12-0.14,0.12,0.12,0,0,0-.08.02,22.507,22.507,0,0,1-4.36.4c-2.36,0-3.28-.4-3.54-1.54a17.071,17.071,0,0,1-.08-3.08v-1.64Zm8.18-6.6a0.237,0.237,0,0,0,.1.18,7.3,7.3,0,0,1,1.42,2.12c0.06,0.14.1,0.18,0.18,0.18a2.469,2.469,0,0,0,.64-0.36,0.408,0.408,0,0,0,.22-0.28,7.7,7.7,0,0,0-.94-1.46,2.118,2.118,0,0,0-.88-0.84A1.249,1.249,0,0,0,1401.35,4345.53Zm2.5-1.48a1.393,1.393,0,0,0-.76.48,0.183,0.183,0,0,0,.06.1,6.48,6.48,0,0,1,1.46,2.14,0.166,0.166,0,0,0,.16.14,0.89,0.89,0,0,0,.26-0.1c0.08-.04.16-0.1,0.26-0.14a0.463,0.463,0,0,0,.32-0.32,3.7,3.7,0,0,0-.72-1.22A3,3,0,0,0,1403.85,4344.05Zm-10.8,28.58c0.66-1.78,1.72-2.66,3.22-2.66a2.316,2.316,0,0,1,2.5,2.44c0,1.1-.34,1.72-1.72,3.14a7.371,7.371,0,0,0-1.28,1.6,4.436,4.436,0,0,0-.56,2.24v1.38h1.3v-1.32c0-1.22.34-1.86,1.68-3.16a8.576,8.576,0,0,0,1.48-1.64,3.952,3.952,0,0,0,.68-2.26c0-2.22-1.64-3.7-4.06-3.7-2.16,0-3.62,1.06-4.56,3.32Zm2.86,10.04a1.132,1.132,0,0,0-1.16,1.14,1.15,1.15,0,1,0,2.3,0A1.127,1.127,0,0,0,1395.91,4382.67Z" transform="translate(-1387.72 -4226.69)"/>
</svg>
