<svg id="sub03_01.svg" xmlns="http://www.w3.org/2000/svg" width="53.41" height="241.03" viewBox="0 0 53.41 241.03">
  <defs>
    <style>
      .cls-1 {
        fill: #fff;
        fill-rule: evenodd;
      }
    </style>
  </defs>
  <path id="sub03_01" class="cls-1" d="M1473.42,6331.7c-0.54.08-.54,0.08-0.8,0.12a20.3,20.3,0,0,1-3.84.48c0.18,1,.38,1.48.6,1.48a0.461,0.461,0,0,0,.18-0.06,16.066,16.066,0,0,1,3.52-.84,31.773,31.773,0,0,1-4.08,8.56,0.242,0.242,0,0,0,.06.4,2.505,2.505,0,0,0,.94.52,0.321,0.321,0,0,0,.22-0.1,23.815,23.815,0,0,0,2.14-4.06,53.831,53.831,0,0,0,2.08-5.58,12.463,12.463,0,0,1,2.14-.26c1.04,0,1.52.64,1.52,2.08a15.29,15.29,0,0,1-.96,5.32c-0.42,1.12-.92,1.6-1.68,1.6a3.647,3.647,0,0,1-1.98-.64,3.839,3.839,0,0,1,.22,1.22,0.336,0.336,0,0,0,.16.36,4.724,4.724,0,0,0,1.82.38,2.532,2.532,0,0,0,2.34-1.6,15.609,15.609,0,0,0,1.4-6.44c0-2.32-.82-3.38-2.6-3.38a14.55,14.55,0,0,0-2.04.22c0.04-.14.06-0.22,0.12-0.42a10.454,10.454,0,0,1,.94-2.72,0.443,0.443,0,0,0,.12-0.28c0-.26-0.64-0.52-1.8-0.72A16.9,16.9,0,0,1,1473.42,6331.7Zm10.44,4.88a2.149,2.149,0,0,0,.8-0.46,0.482,0.482,0,0,0,.26-0.34,8.908,8.908,0,0,0-1.72-3.14,8.04,8.04,0,0,0-1.84-1.86,1.93,1.93,0,0,0-.82.78,0.208,0.208,0,0,0,.1.16,11.183,11.183,0,0,1,3.04,4.68A0.188,0.188,0,0,0,1483.86,6336.58Zm-6.94,19.76v1.74a1.828,1.828,0,0,0-1.42-.48c-1.66,0-2.74,1.22-2.74,3.1,0,1.84,1.04,3.02,2.66,3.02a1.971,1.971,0,0,0,1.76-.94,6.161,6.161,0,0,1-.78,1.66,6.672,6.672,0,0,1-1.5,1.5,9.809,9.809,0,0,1-2.34,1.14,2.942,2.942,0,0,1,.82.56,0.588,0.588,0,0,0,.46.3,7.408,7.408,0,0,0,2.78-1.72,5.924,5.924,0,0,0,1.9-4.56,6.747,6.747,0,0,0-.42-2.34c0.02-2.34.04-3.5,0.04-3.68,0.56-.02,1.88-0.04,3.18-0.04,1.06,0,2.74.06,3.04,0.1h0.06c0.12,0,.14-0.1.14-0.82a0.656,0.656,0,0,0-.08-0.44,1.133,1.133,0,0,0-.54-0.04c-1.02,0-5.28.06-5.78,0.08,0.08-2.16.08-2.16,0.24-2.48a0.529,0.529,0,0,0,.1-0.26c0-.22-0.36-0.28-1.78-0.34a10.63,10.63,0,0,1,.18,3.12c-1.66.08-4.52,0.26-5.82,0.38-1.1.1-1.66,0.14-2.18,0.14h-0.3c0.12,1.04.26,1.5,0.44,1.5a0.9,0.9,0,0,0,.26-0.06,40.206,40.206,0,0,1,7.62-.8v0.66Zm-1.36,2.36c0.92,0,1.46.74,1.46,2,0,1.2-.5,1.84-1.44,1.84a1.616,1.616,0,0,1-1.62-1.88A1.7,1.7,0,0,1,1475.56,6358.7Zm-2.84,17.48a9.665,9.665,0,0,1-.18,1.8,31.489,31.489,0,0,0-.46,5.6,11.64,11.64,0,0,0,.12,2.48,1.161,1.161,0,0,0,.62.1c0.6,0,.68-0.02.76-0.34a11.3,11.3,0,0,1,1.18-2.64,2.127,2.127,0,0,0,.48-0.92,0.4,0.4,0,0,0-.06-0.22,2.32,2.32,0,0,1-.38-0.78c-0.56.94-.86,1.46-0.9,1.54a6.074,6.074,0,0,0-.38.64,2.53,2.53,0,0,1-.22.36,0.248,0.248,0,0,0-.04.06c0.02-.24.02-0.36,0.04-0.72,0.08-1.52.12-2.24,0.22-3.02,0.1-.76.3-1.9,0.42-2.4a2.608,2.608,0,0,1,.3-0.64,0.83,0.83,0,0,0,.12-0.28C1474.36,6376.56,1473.74,6376.34,1472.72,6376.18Zm6.36,0.66a19.392,19.392,0,0,1,.52,5.28,11.693,11.693,0,0,1-1.16,5.62,9.335,9.335,0,0,1-3.46,3.8,3.7,3.7,0,0,1,.88.42,0.437,0.437,0,0,1,.1.06,0.841,0.841,0,0,1,.1.04,0.339,0.339,0,0,0,.22.1,5.806,5.806,0,0,0,2.04-1.74c1.84-2.16,2.62-4.66,2.62-8.28,0-.88-0.02-1.72-0.1-2.84-0.04-.84-0.06-1.38-0.06-1.74v-0.42c0-.32-0.1-0.38-0.64-0.38A9.039,9.039,0,0,0,1479.08,6376.84Zm-1.42,32.68a5.538,5.538,0,0,1,2.26.52,5.156,5.156,0,0,1,3.06,4.88,6.119,6.119,0,0,1-2.88,5.2,10.759,10.759,0,0,1-3.14,1.32,2.725,2.725,0,0,1,.88.76,0.434,0.434,0,0,0,.34.24,8.308,8.308,0,0,0,2.5-1.14,7.192,7.192,0,0,0,3.68-6.32c0-4-2.88-6.64-7.24-6.64a8.682,8.682,0,0,0-5.14,1.54,7.682,7.682,0,0,0-3.22,6.34,6.156,6.156,0,0,0,.8,3.24,2.735,2.735,0,0,0,2.26,1.36c1.5,0,2.82-1.32,3.98-3.96A26.243,26.243,0,0,0,1477.66,6409.52Zm-1.38.08a23.867,23.867,0,0,1-1.82,6.86c-0.86,1.92-1.76,2.92-2.6,2.92-1.06,0-1.8-1.28-1.8-3.08a6.518,6.518,0,0,1,3.5-5.96A7.393,7.393,0,0,1,1476.28,6409.6Zm-0.46,32.74v3.04c-1.24.12-3.5,0.28-4.18,0.28-0.14,0-.38-0.02-0.56-0.02l0.26,1.28a7.026,7.026,0,0,1,.84-0.12,73.877,73.877,0,0,0,7.9-1.02,17.014,17.014,0,0,1,.68,1.72l1.1-.46a28.983,28.983,0,0,0-1.98-4.02l-0.96.4a14.772,14.772,0,0,1,.78,1.44c-1.16.2-1.52,0.26-2.76,0.4v-2.92h2.04c0.6,0,1,.02,1.5.04a10.742,10.742,0,0,1-.06-1.4v-2.24a10.835,10.835,0,0,1,.06-1.54,12.226,12.226,0,0,1-1.72.08h-1.82v-2.02a34.68,34.68,0,0,0,3.94-.7l-0.74-1.06a5.443,5.443,0,0,1-1.82.5,32.128,32.128,0,0,1-6.34.52,5.578,5.578,0,0,1,.48,1.06c1.6-.06,2.32-0.1,3.36-0.2v1.9h-1.68a13.607,13.607,0,0,1-1.78-.08,13.947,13.947,0,0,1,.08,1.62v2.1a9.384,9.384,0,0,1-.08,1.5c0.72-.06,1.08-0.08,1.76-0.08h1.7Zm0-4.08v3.08h-2.28v-3.08h2.28Zm1.12,0h2.38v3.08h-2.38v-3.08Zm-5.02-6.78a17.424,17.424,0,0,1-2.18-.12,18.262,18.262,0,0,1,.16,3.02c0,7.4-.48,10.12-2.18,12.62a3.791,3.791,0,0,1,1.04,1c1.76-2.74,2.34-5.88,2.34-12.88v-2.54h10.8v2.52a58.356,58.356,0,0,0,.42,8.32c0.4,2.58,1.28,4.34,2.14,4.34a1.1,1.1,0,0,0,.92-0.7,8.574,8.574,0,0,0,.66-2.84,4.246,4.246,0,0,1-.96-0.94,18.346,18.346,0,0,1-.34,2.34c-0.1.44-.16,0.56-0.28,0.56a4.3,4.3,0,0,1-.78-2.04,40.259,40.259,0,0,1-.56-8.4,36.9,36.9,0,0,1,.14-4.38,15.527,15.527,0,0,1-2.18.12h-9.16Zm3.98,23.46a14.579,14.579,0,0,1-2.94,3.34,20.145,20.145,0,0,1-5.24,3.34,3.02,3.02,0,0,1,.8,1.1,22.475,22.475,0,0,0,4.08-2.5,18.372,18.372,0,0,0,4.04-4.2,15.939,15.939,0,0,0,2.94,3.22,26.367,26.367,0,0,0,5.42,3.54,5.18,5.18,0,0,1,.76-1.22,20.136,20.136,0,0,1-5.26-3.14,13.27,13.27,0,0,1-3.16-3.48h-1.44Zm-3.74,7.14a10.751,10.751,0,0,1,1.5-.08h5.98a11.4,11.4,0,0,1,1.6.08v-1.3a11.172,11.172,0,0,1-1.62.08h-5.94a9.509,9.509,0,0,1-1.52-.08v1.3Zm-0.14,10.02v-1.12h9.28v1.12h1.38a12.818,12.818,0,0,1-.12-1.9v-4.22a10.688,10.688,0,0,1,.1-1.76,9.584,9.584,0,0,1-1.48.08h-9.04a9.584,9.584,0,0,1-1.48-.08,10.988,10.988,0,0,1,.1,1.76v4.22a13.4,13.4,0,0,1-.12,1.9h1.38Zm0-6.64h9.28v4.38h-9.28v-4.38Zm-2.44,16.42a7.294,7.294,0,0,1,.1,1.4v0.5c-0.02.68-.02,1.24-0.02,1.66a26.472,26.472,0,0,0,.68,6.66c0.62,2.12,1.62,3.22,2.94,3.22,1.08,0,2.1-.86,2.84-2.42a3.394,3.394,0,0,0,.34-0.96,0.333,0.333,0,0,0-.12-0.24,3.3,3.3,0,0,1-.64-1.22c-0.66,2.1-1.56,3.36-2.42,3.36-1.36,0-2.24-3.12-2.24-7.9a11.42,11.42,0,0,1,.26-3.22,0.385,0.385,0,0,0,.06-0.18C1471.36,6482.28,1470.96,6482.12,1469.58,6481.88Zm10.26,2.72a11.508,11.508,0,0,1,3.2,6.9,0.155,0.155,0,0,0,.14.16,5.41,5.41,0,0,0,1.08-.34,0.338,0.338,0,0,0,.26-0.3,5.835,5.835,0,0,0-.2-0.98,12.931,12.931,0,0,0-1.3-3.4c-0.72-1.32-1.78-2.58-2.14-2.58A3.16,3.16,0,0,0,1479.84,6484.6Zm2.82,23.34a1.7,1.7,0,0,0,.8-0.74,5.814,5.814,0,0,0-1.18-1.4,2.027,2.027,0,0,0-.92-0.64,0.563,0.563,0,0,0-.4.24c-0.32.26-.32,0.26-0.32,0.32a0.426,0.426,0,0,0,.14.18,8.377,8.377,0,0,1,1.7,1.88A0.221,0.221,0,0,0,1482.66,6507.94Zm-0.38-3.52a0.145,0.145,0,0,0,.08.12,7.6,7.6,0,0,1,1.76,1.92,0.11,0.11,0,0,0,.12.08,1.17,1.17,0,0,0,.4-0.24c0.36-.26.4-0.3,0.4-0.42a6.1,6.1,0,0,0-2.02-2.02A1.342,1.342,0,0,0,1482.28,6504.42Zm-8.96,4.76c-0.54.08-.54,0.08-0.8,0.12a20.3,20.3,0,0,1-3.84.48c0.18,1,.38,1.48.6,1.48a0.461,0.461,0,0,0,.18-0.06,16.066,16.066,0,0,1,3.52-.84,31.773,31.773,0,0,1-4.08,8.56,0.242,0.242,0,0,0,.06.4,2.505,2.505,0,0,0,.94.52,0.321,0.321,0,0,0,.22-0.1,23.815,23.815,0,0,0,2.14-4.06,53.831,53.831,0,0,0,2.08-5.58,12.463,12.463,0,0,1,2.14-.26c1.04,0,1.52.64,1.52,2.08a15.29,15.29,0,0,1-.96,5.32c-0.42,1.12-.92,1.6-1.68,1.6a3.647,3.647,0,0,1-1.98-.64,3.839,3.839,0,0,1,.22,1.22,0.336,0.336,0,0,0,.16.36,4.724,4.724,0,0,0,1.82.38,2.532,2.532,0,0,0,2.34-1.6,15.609,15.609,0,0,0,1.4-6.44c0-2.32-.82-3.38-2.6-3.38a14.55,14.55,0,0,0-2.04.22c0.04-.14.06-0.22,0.12-0.42a10.454,10.454,0,0,1,.94-2.72,0.443,0.443,0,0,0,.12-0.28c0-.26-0.64-0.52-1.8-0.72A16.9,16.9,0,0,1,1473.32,6509.18Zm10.44,4.88a2.149,2.149,0,0,0,.8-0.46,0.482,0.482,0,0,0,.26-0.34,8.908,8.908,0,0,0-1.72-3.14,8.04,8.04,0,0,0-1.84-1.86,1.93,1.93,0,0,0-.82.78,0.208,0.208,0,0,0,.1.16,11.183,11.183,0,0,1,3.04,4.68A0.188,0.188,0,0,0,1483.76,6514.06Zm-35.9-181.8a21.761,21.761,0,0,0,.64-2.74c0.52,0.02.52,0.02,0.74,0.04a0.45,0.45,0,0,1,.14.02v-1.06a7.775,7.775,0,0,1-1.48.08h-1.1v-0.24a8.74,8.74,0,0,1,.1-1.66h-1.28a8.162,8.162,0,0,1,.12,1.64v0.26h-1.34a7.019,7.019,0,0,1-1.42-.1v1.08c0.4-.04.4-0.04,1-0.06a21.149,21.149,0,0,1,.52,2.74,12.118,12.118,0,0,1-1.92-.1v1.2a16.085,16.085,0,0,1,1.86-.08h5.5a26.688,26.688,0,0,0,.84,5.94,12.647,12.647,0,0,1-4.04,3.84,2.607,2.607,0,0,1,.86.82,13.776,13.776,0,0,0,3.54-3.52c0.7,1.88,1.62,3.12,2.32,3.12s1.1-.92,1.38-3.16a4.978,4.978,0,0,1-.98-0.72c-0.12,1.64-.24,2.24-0.46,2.42-0.14,0-.16-0.02-0.36-0.32a9.6,9.6,0,0,1-1.14-2.48,15.5,15.5,0,0,0,1.48-3.2c0.26-.7.32-0.88,0.46-1.18l-1.08-.5a12.154,12.154,0,0,1-1.2,3.54,25.577,25.577,0,0,1-.56-4.6h1.44a11.716,11.716,0,0,1,2.06.12v-1.26a11.319,11.319,0,0,1-2.06.12h-1.48c-0.04-.98-0.06-2.14-0.06-3.46a10.183,10.183,0,0,1,.12-2.08h-1.28a11.588,11.588,0,0,1,.08,1.42c0.02,2.78.02,3.06,0.06,4.12h-2.02Zm-2.38,0c-0.12-.96-0.24-1.74-0.36-2.32a3.164,3.164,0,0,0-.08-0.42h2.42a14.439,14.439,0,0,1-.62,2.74h-1.36Zm-8.54,3.82c0.36-.08.68-0.1,2.76-0.3v5.96a12.118,12.118,0,0,1-.12,2.22h1.32a11.986,11.986,0,0,1-.12-2.22v-6.06c0.6-.08.62-0.08,1.26-0.16,0.08,0.34.12,0.5,0.22,0.98l0.92-.36a24.816,24.816,0,0,0-1.22-3.46l-0.82.28a13.488,13.488,0,0,1,.62,1.66c-0.68.08-.82,0.08-1.8,0.16a7.887,7.887,0,0,0-.8.06,47.89,47.89,0,0,0,2.92-4.68c0.36-.64.42-0.76,0.58-1l-1.1-.54a14.563,14.563,0,0,1-1.76,3.48c-0.3-.46-0.64-0.92-0.98-1.38,0.5-.76,1.02-1.66,1.34-2.28a15.662,15.662,0,0,1,.76-1.42l-1.12-.54a13.454,13.454,0,0,1-1.6,3.44c-0.22-.3-0.3-0.4-0.64-0.8l-0.66.86a21.266,21.266,0,0,1,2.34,3.08c-0.28.46-.68,1.06-1.2,1.82-0.4.02-.46,0.02-0.48,0.02a4.68,4.68,0,0,1-.76-0.06Zm0.92,0.94a17.616,17.616,0,0,1-.92,5.06l0.96,0.46a24.77,24.77,0,0,0,.94-5.34Zm3.54,0.24a19.931,19.931,0,0,1,.74,4.28l0.98-.28a29.834,29.834,0,0,0-.82-4.22Zm7.4-.9c0-.92.02-1.44,0.06-1.84a7.969,7.969,0,0,1-1.34.08h-2.46a7.358,7.358,0,0,1-1.36-.08,15.931,15.931,0,0,1,.08,1.84v4.6a14.423,14.423,0,0,1-.1,1.8h1.12v-1.52h2.44c0.84,0,1.18,0,1.6.04a14.1,14.1,0,0,1-.04-1.58v-3.34Zm-3.98-.82h2.98v1.84h-2.98v-1.84Zm-0.02,2.78h3v1.96h-3v-1.96Zm9.26-7.46a15.4,15.4,0,0,0-1.76-2.98l-0.9.44a12.458,12.458,0,0,1,1.66,3.08Zm-12.34,20.92a9.665,9.665,0,0,1-.18,1.8,31.489,31.489,0,0,0-.46,5.6,11.64,11.64,0,0,0,.12,2.48,1.161,1.161,0,0,0,.62.1c0.6,0,.68-0.02.76-0.34a11.3,11.3,0,0,1,1.18-2.64,2.127,2.127,0,0,0,.48-0.92,0.4,0.4,0,0,0-.06-0.22,2.32,2.32,0,0,1-.38-0.78c-0.56.94-.86,1.46-0.9,1.54a6.074,6.074,0,0,0-.38.64,2.53,2.53,0,0,1-.22.36,0.248,0.248,0,0,0-.04.06c0.02-.24.02-0.36,0.04-0.72,0.08-1.52.12-2.24,0.22-3.02,0.1-.76.3-1.9,0.42-2.4a2.608,2.608,0,0,1,.3-0.64,0.83,0.83,0,0,0,.12-0.28C1443.36,6352.16,1442.74,6351.94,1441.72,6351.78Zm6.36,0.66a19.392,19.392,0,0,1,.52,5.28,11.693,11.693,0,0,1-1.16,5.62,9.335,9.335,0,0,1-3.46,3.8,3.7,3.7,0,0,1,.88.42,0.437,0.437,0,0,1,.1.06,0.841,0.841,0,0,1,.1.04,0.339,0.339,0,0,0,.22.1,5.806,5.806,0,0,0,2.04-1.74c1.84-2.16,2.62-4.66,2.62-8.28,0-.88-0.02-1.72-0.1-2.84-0.04-.84-0.06-1.38-0.06-1.74v-0.42c0-.32-0.1-0.38-0.64-0.38A9.039,9.039,0,0,0,1448.08,6352.44Zm-6.7,23.84a15.033,15.033,0,0,1-2.06-.1,17.044,17.044,0,0,1,.1,1.9v12.46a13.423,13.423,0,0,1-.12,1.98h1.4v-1.28h9.9v1.28h1.4a11.737,11.737,0,0,1-.12-2.04v-12.54a11.612,11.612,0,0,1,.1-1.76,13.6,13.6,0,0,1-2,.1h-8.6Zm-0.68,4.48v-3.3h9.9v3.3h-9.9Zm0,1.16h9.9v3.44h-9.9v-3.44Zm0,4.6h9.9v3.54h-9.9v-3.54Zm1.72,18.38c-0.54.08-.54,0.08-0.8,0.12a20.3,20.3,0,0,1-3.84.48c0.18,1,.38,1.48.6,1.48a0.461,0.461,0,0,0,.18-0.06,16.066,16.066,0,0,1,3.52-.84,31.773,31.773,0,0,1-4.08,8.56,0.242,0.242,0,0,0,.06.4,2.505,2.505,0,0,0,.94.52,0.321,0.321,0,0,0,.22-0.1,23.815,23.815,0,0,0,2.14-4.06,53.831,53.831,0,0,0,2.08-5.58,12.463,12.463,0,0,1,2.14-.26c1.04,0,1.52.64,1.52,2.08a15.29,15.29,0,0,1-.96,5.32c-0.42,1.12-.92,1.6-1.68,1.6a3.647,3.647,0,0,1-1.98-.64,3.839,3.839,0,0,1,.22,1.22,0.336,0.336,0,0,0,.16.36,4.724,4.724,0,0,0,1.82.38,2.532,2.532,0,0,0,2.34-1.6,15.609,15.609,0,0,0,1.4-6.44c0-2.32-.82-3.38-2.6-3.38a14.55,14.55,0,0,0-2.04.22c0.04-.14.06-0.22,0.12-0.42a10.454,10.454,0,0,1,.94-2.72,0.443,0.443,0,0,0,.12-0.28c0-.26-0.64-0.52-1.8-0.72A16.9,16.9,0,0,1,1442.42,6404.9Zm10.44,4.88a2.149,2.149,0,0,0,.8-0.46,0.482,0.482,0,0,0,.26-0.34,8.908,8.908,0,0,0-1.72-3.14,8.04,8.04,0,0,0-1.84-1.86,1.93,1.93,0,0,0-.82.78,0.208,0.208,0,0,0,.1.16,11.183,11.183,0,0,1,3.04,4.68A0.188,0.188,0,0,0,1452.86,6409.78Zm-11.92,18.94a12.081,12.081,0,0,1-.18,1.64,54.941,54.941,0,0,0-.64,5.48c-0.02.32-.04,0.5-0.04,0.54a0.29,0.29,0,0,0,.2.32,2.927,2.927,0,0,0,.92.4,0.4,0.4,0,0,0,.28-0.24,4.536,4.536,0,0,1,.58-0.74,9.038,9.038,0,0,1,6.02-2.96,2.355,2.355,0,0,1,2.66,2.34c0,1.24-.88,2.32-2.44,3.04a14.365,14.365,0,0,1-5.14,1.22,2.062,2.062,0,0,1,.64.7,0.549,0.549,0,0,0,.48.4,17.181,17.181,0,0,0,4.12-.88c2.54-.96,3.84-2.44,3.84-4.42,0-2.2-1.62-3.62-4.12-3.62a8.493,8.493,0,0,0-4,1.06,12.87,12.87,0,0,0-2.7,1.98c0.32-3.06.66-4.86,1-5.44a0.665,0.665,0,0,0,.14-0.28A2.49,2.49,0,0,0,1440.94,6428.72Zm2.98-4.06a0.637,0.637,0,0,0-.48.46,1.893,1.893,0,0,0-.26.52,0.208,0.208,0,0,0,.18.18,11.784,11.784,0,0,1,4.22,2.26,0.244,0.244,0,0,0,.18.08,1.844,1.844,0,0,0,.76-1.08,0.384,0.384,0,0,0-.22-0.28,10.342,10.342,0,0,0-1.8-1.16A12.2,12.2,0,0,0,1443.92,6424.66Zm0.96,27.12H1440a11.826,11.826,0,0,1-2.14-.14v1.46a15.9,15.9,0,0,1,2.14-.12h11.26a16.878,16.878,0,0,1,2.2.12v-1.46a12.731,12.731,0,0,1-2.2.14h-5.12v-1.56a8.229,8.229,0,0,1,.14-1.56h-1.54a8.529,8.529,0,0,1,.14,1.56v1.56Zm-5.54,11.62a16.785,16.785,0,0,1-2.22-.12v1.48a13.145,13.145,0,0,1,2.22-.14h12.76a12.018,12.018,0,0,1,2.12.14v-1.48a15.372,15.372,0,0,1-2.12.12h-4.42a50.711,50.711,0,0,0,2.56-6.7c0.58-1.84.58-1.86,0.76-2.32l-1.46-.5a40.383,40.383,0,0,1-3.22,9.52h-6.98Zm1.1-8.84a38.4,38.4,0,0,1,2.1,7.62l1.24-.48a43.843,43.843,0,0,0-2.08-7.58Zm3.48,23.36a31.4,31.4,0,0,0,4.78-.78c0.7-.16.7-0.16,0.7-0.38a1.682,1.682,0,0,0-.24-1.08,2.029,2.029,0,0,0-.5.12,26.993,26.993,0,0,1-4.48.92c0.04-.2.06-0.34,0.12-0.68a5.723,5.723,0,0,1,.44-1.86,0.537,0.537,0,0,0,.08-0.26c0-.26-0.58-0.44-1.76-0.5a4.722,4.722,0,0,1,.04.72,20.679,20.679,0,0,1-.24,2.54,0.5,0.5,0,0,0-.02.16c-1.3.08-2.08,0.1-2.9,0.1a17.405,17.405,0,0,1-1.78-.08,5.505,5.505,0,0,0,.12,1.04,0.3,0.3,0,0,0,.36.24h0.1a1.94,1.94,0,0,0,.34-0.02c1.68,0,2.72-.04,3.54-0.1a19.187,19.187,0,0,1-2.64,6.86,0.4,0.4,0,0,0-.12.26,1.832,1.832,0,0,0,1.1.88,0.345,0.345,0,0,0,.28-0.16,9.821,9.821,0,0,1,1.9-1.82,7.956,7.956,0,0,1,4.66-1.7c1.74,0,2.8.86,2.8,2.26,0,1.56-1.32,2.84-3.66,3.56a15,15,0,0,1-3.3.56,2.357,2.357,0,0,1,.72.9,0.424,0.424,0,0,0,.42.28,7.844,7.844,0,0,0,.9-0.14,12.027,12.027,0,0,0,2.54-.64c2.46-.9,3.84-2.5,3.84-4.4,0-2.24-1.48-3.5-4.12-3.5a8.258,8.258,0,0,0-2.96.54,8.754,8.754,0,0,0-3,1.92A22.867,22.867,0,0,0,1443.92,6477.92Zm2.74,22.8a5.538,5.538,0,0,1,2.26.52,5.156,5.156,0,0,1,3.06,4.88,6.119,6.119,0,0,1-2.88,5.2,10.759,10.759,0,0,1-3.14,1.32,2.725,2.725,0,0,1,.88.76,0.434,0.434,0,0,0,.34.24,8.308,8.308,0,0,0,2.5-1.14,7.192,7.192,0,0,0,3.68-6.32c0-4-2.88-6.64-7.24-6.64a8.682,8.682,0,0,0-5.14,1.54,7.682,7.682,0,0,0-3.22,6.34,6.156,6.156,0,0,0,.8,3.24,2.735,2.735,0,0,0,2.26,1.36c1.5,0,2.82-1.32,3.98-3.96A26.243,26.243,0,0,0,1446.66,6500.72Zm-1.38.08a23.867,23.867,0,0,1-1.82,6.86c-0.86,1.92-1.76,2.92-2.6,2.92-1.06,0-1.8-1.28-1.8-3.08a6.518,6.518,0,0,1,3.5-5.96A7.393,7.393,0,0,1,1445.28,6500.8Zm-0.88,28.96c0.36,0,.36,0,0.84.02h0.54c0.86,0,1.64-.04,2.38-0.1,0.02,1.52.04,2.06,0.12,3.62a8.3,8.3,0,0,0-1.66-.16c-2.18,0-3.56.98-3.56,2.56,0,1.48,1.28,2.46,3.24,2.46,2.14,0,3.3-1,3.3-2.8V6535a12.122,12.122,0,0,1,2.2,1.56c0.58,0.56.58,0.56,0.72,0.56a1.8,1.8,0,0,0,.8-0.98,0.853,0.853,0,0,0-.4-0.5,12.423,12.423,0,0,0-3.34-2c-0.12-1.94-.14-2.54-0.18-4.06a20.685,20.685,0,0,0,2.5-.36c0.28-.06.32-0.1,0.32-0.32a7.515,7.515,0,0,0-.06-0.88,0.168,0.168,0,0,0-.16-0.12,0.563,0.563,0,0,0-.16.02c-1.4.28-1.44,0.3-2.44,0.44,0-1.36,0-1.5.06-3.26a17.558,17.558,0,0,0,1.76-.26,0.236,0.236,0,0,0,.18-0.28,4.842,4.842,0,0,0-.08-0.86,0.14,0.14,0,0,0-.16-0.12,0.949,0.949,0,0,0-.3.06,22.49,22.49,0,0,1-4.74.42c-0.62,0-1.24-.02-2.06-0.06v0.28a2.472,2.472,0,0,0,.1.82c0.08,0.14.44,0.18,1.82,0.18,0.68,0,1.44-.02,2.2-0.06-0.06,1.7-.06,1.7-0.06,2.22v0.54a4.526,4.526,0,0,1,.02.5,0.981,0.981,0,0,0-.22.02c-0.58.04-1.32,0.08-2.04,0.08a17.333,17.333,0,0,1-2.12-.1,3.445,3.445,0,0,0-.02.4,2.119,2.119,0,0,0,.1.78,0.433,0.433,0,0,0,.4.1h0.16Zm3.88,4.84v0.5c0,1.22-.66,1.82-2,1.82-1.24,0-2.02-.48-2.02-1.26,0-.82.9-1.34,2.32-1.34A5.132,5.132,0,0,1,1448.28,6534.6Zm-9.08-11.78a13.444,13.444,0,0,1-.36,2.2,31.022,31.022,0,0,0-.98,7.36,17.649,17.649,0,0,0,.26,3.18,15.331,15.331,0,0,0,.62,2.42,0.292,0.292,0,0,0,.36.2,3.936,3.936,0,0,0,.8-0.1,0.257,0.257,0,0,0,.18-0.28,18.526,18.526,0,0,1,.94-3.66,1.088,1.088,0,0,0,.08-0.34,0.257,0.257,0,0,0-.08-0.2,2.557,2.557,0,0,1-.46-0.8c-0.46,1.18-.62,1.62-1.14,3.1a18,18,0,0,1-.32-3.52,26.156,26.156,0,0,1,.94-6.58,10.371,10.371,0,0,1,.62-1.82,1.006,1.006,0,0,0,.2-0.46A2.41,2.41,0,0,0,1439.2,6522.82Zm12.16-.44a0.318,0.318,0,0,0,.1.18,7.251,7.251,0,0,1,1.22,1.98,0.3,0.3,0,0,0,.26.24,1.325,1.325,0,0,0,.82-0.56,5.271,5.271,0,0,0-.62-1.12,3.027,3.027,0,0,0-1-1.16A1.212,1.212,0,0,0,1451.36,6522.38Zm3.32,1.46a1.187,1.187,0,0,0,.8-0.52,6.047,6.047,0,0,0-.86-1.5,1.588,1.588,0,0,0-.74-0.78,1.169,1.169,0,0,0-.42.18,0.483,0.483,0,0,0-.34.26,0.284,0.284,0,0,0,.04.12,6.977,6.977,0,0,1,1.28,2.02A0.232,0.232,0,0,0,1454.68,6523.84Zm-14.04,24.1c0.08,0.92.3,1.6,0.52,1.6a0.535,0.535,0,0,0,.2-0.04c0.42-.14,1.72-0.32,5.74-0.86a77.2,77.2,0,0,1-6.88,7.6,9.84,9.84,0,0,1-1.4,1.24,0.322,0.322,0,0,0-.18.24,2.4,2.4,0,0,0,1.08,1.1,0.482,0.482,0,0,0,.34-0.26,10.032,10.032,0,0,1,7.12-3.84c2.2,0,3.52,1.16,3.52,3.08a3.608,3.608,0,0,1-.48,1.8,3.961,3.961,0,0,1-1.84,1.58c-0.72-1.86-1.88-2.78-3.52-2.78-1.56,0-2.68.9-2.68,2.18a2.056,2.056,0,0,0,.6,1.46,4.093,4.093,0,0,0,2.98.92,7.113,7.113,0,0,0,5.04-1.8,4.51,4.51,0,0,0,1.32-3.28c0-2.58-1.84-4.3-4.66-4.3a6.694,6.694,0,0,0-2.46.46,7.1,7.1,0,0,0-2.38,1.42c0.68-.74.82-0.86,1.5-1.58,1.28-1.32,2.18-2.28,2.52-2.64a16.413,16.413,0,0,1,2.32-2.34c0.34-.24.38-0.26,0.38-0.4a1.156,1.156,0,0,0-.24-0.54,1.681,1.681,0,0,0-.86-0.88,0.631,0.631,0,0,0-.3.1,4.119,4.119,0,0,1-1.66.4c-1.86.24-3.92,0.44-4.5,0.44C1441.5,6548.02,1441.02,6547.98,1440.64,6547.94Zm6.5,13.72a5.1,5.1,0,0,1-1.54.2c-1.32,0-2.22-.52-2.22-1.3a1.159,1.159,0,0,1,1.38-1.02C1445.86,6559.54,1446.64,6560.22,1447.14,6561.66Z" transform="translate(-1436.78 -6321.94)"/>
  <path id="_" data-name="  ”  “  " class="cls-1" d="M1485.47,6326.56a3.193,3.193,0,0,0,1.5-2.92c0-1.1-.44-1.7-1.26-1.7a1.066,1.066,0,0,0-1.1,1.12,1.035,1.035,0,0,0,1,1.08c0.04,0,.18-0.02.34-0.04a2.127,2.127,0,0,1-1.16,1.82Zm3.22,0a3.215,3.215,0,0,0,1.5-2.92c0-1.1-.44-1.7-1.24-1.7a1.066,1.066,0,0,0-1.1,1.12,1.035,1.035,0,0,0,1,1.08c0.04,0,.18-0.02.34-0.04a2.1,2.1,0,0,1-1.16,1.82Zm-19.04,71.28a3.193,3.193,0,0,0-1.5,2.92c0,1.08.46,1.7,1.24,1.7a1.077,1.077,0,0,0,1.1-1.12,1.029,1.029,0,0,0-1-1.1,2.986,2.986,0,0,0-.34.04,2.109,2.109,0,0,1,1.18-1.82Zm-3.24,0a3.193,3.193,0,0,0-1.5,2.92c0,1.08.46,1.7,1.24,1.7a1.077,1.077,0,0,0,1.1-1.12,1.041,1.041,0,0,0-1-1.1,2.986,2.986,0,0,0-.34.04,2.173,2.173,0,0,1,1.18-1.82Z" transform="translate(-1436.78 -6321.94)"/>
</svg>
