<svg xmlns="http://www.w3.org/2000/svg" width="237.06" height="44.03" viewBox="0 0 237.06 44.03">
  <defs>
    <style>
      .cls-1 {
        fill: #333;
        fill-rule: evenodd;
      }
    </style>
  </defs>
  <path id="sub02_04.svg" class="cls-1" d="M1071.61,5462.07c-0.06,3.1-.74,4.98-2.28,6.4a9.24,9.24,0,0,1-2.66,1.66,2.919,2.919,0,0,1,1.04.74,0.347,0.347,0,0,0,.22.12,5.7,5.7,0,0,0,1.98-1.18c2.1-1.72,3.08-4.08,3.12-7.56v-0.18h3.56c1.08,0,2.08.02,2.42,0.02a2.714,2.714,0,0,0,.36.02c0.28,0,.32-0.08.32-0.66s-0.04-.7-0.22-0.7h-0.1c-0.28.02-1.64,0.04-2.84,0.04h-8.9a24.842,24.842,0,0,1-3.48-.12,5.465,5.465,0,0,0,.12,1.32,0.23,0.23,0,0,0,.26.18h0.12c0.56-.06,2.14-0.1,3.02-0.1h3.94Zm5.88-6.96a0.28,0.28,0,0,0,.12.18,7.059,7.059,0,0,1,1.6,2,0.248,0.248,0,0,0,.18.16,1.205,1.205,0,0,0,.5-0.32,0.556,0.556,0,0,0,.34-0.38,4.82,4.82,0,0,0-.88-1.2,3.7,3.7,0,0,0-1.1-.96,0.745,0.745,0,0,0-.48.24,0.656,0.656,0,0,1-.16.12A0.214,0.214,0,0,0,1077.49,5455.11Zm-1.06,2.4c0.34,0.02.4,0.02,0.44,0.02,0.28,0,.3-0.06.3-0.58,0-.66-0.04-0.82-0.26-0.82-0.04,0-.16,0-0.4.02-0.38.04-1.22,0.06-2.08,0.06h-5.5a17.24,17.24,0,0,1-2.4-.14c0.02,1.26.08,1.5,0.36,1.5,0,0,.04,0,0.22-0.02,0.58-.04,1.52-0.06,3.76-0.06,0.6,0,4.42.02,4.66,0.02h0.9Zm2.74-3.54a0.121,0.121,0,0,0,.08.1,7.35,7.35,0,0,1,1.62,2c0.06,0.12.08,0.14,0.16,0.14a0.718,0.718,0,0,0,.36-0.18c0.4-.28.46-0.32,0.46-0.44a6,6,0,0,0-1.9-2.16A1.323,1.323,0,0,0,1079.17,5453.97Zm10.06,3.56a8.7,8.7,0,0,0,.1,1.46,0.264,0.264,0,0,0,.28.22h0.1c0.04,0,.14-0.02.28-0.02,0.1,0,.28,0,0.52-0.02,1.18-.06,2.08-0.08,4.64-0.08,1.42,0,1.88,0,3.24.02h0.56c0.2,0,.34.02,0.42,0.02h0.28c0.24,0,.28-0.12.28-0.78,0-.64-0.04-0.76-0.24-0.76a1.847,1.847,0,0,0-.3.02c-0.58.04-2.7,0.08-4.88,0.08A52.431,52.431,0,0,1,1089.23,5457.53Zm-2.36,8.66c0.06,1.44.12,1.7,0.36,1.7a0.5,0.5,0,0,0,.16-0.02c0.9-.1,3.04-0.14,7.28-0.14,4.34,0,6.5.02,7.04,0.04a1.978,1.978,0,0,0,.3.02c0.26,0,.3-0.08.3-0.78,0-.62-0.06-0.82-0.26-0.82a3.834,3.834,0,0,0-.4.02c-0.74.08-3.32,0.12-6.4,0.12C1089.21,5466.33,1088.25,5466.31,1086.87,5466.19Zm35.12,0.5c-2.22.4-2.22,0.4-3.58,0.56-2.18.3-2.3,0.3-5.58,0.6a92.917,92.917,0,0,0,3.98-10.32,4.392,4.392,0,0,1,.58-1.36,0.431,0.431,0,0,0,.14-0.28c0-.24-0.68-0.5-1.86-0.7a20.635,20.635,0,0,1-.82,3.64,68.167,68.167,0,0,1-3.52,9.14c-0.54.06-1.42,0.1-1.78,0.1-0.04,0-.04,0-0.46-0.02a6.334,6.334,0,0,0,.36,1.28c0.12,0.32.18,0.4,0.32,0.4a0.726,0.726,0,0,0,.22-0.06,5.488,5.488,0,0,1,1.36-.28c5.16-.56,6.6-0.76,11.18-1.56,0.34,0.76.44,1,.62,1.5,0.26,0.74.28,0.76,0.4,0.76a3.311,3.311,0,0,0,1.1-.46,0.262,0.262,0,0,0,.12-0.24,20.138,20.138,0,0,0-1.18-2.68,21.36,21.36,0,0,0-2.68-4.24,1.139,1.139,0,0,0-.62-0.58,1.569,1.569,0,0,0-.6.32,0.514,0.514,0,0,0-.32.34,0.44,0.44,0,0,0,.12.24A24.744,24.744,0,0,1,1121.99,5466.69Zm18.44-9.3a5.538,5.538,0,0,1,2.26.52,5.156,5.156,0,0,1,3.06,4.88,6.119,6.119,0,0,1-2.88,5.2,10.759,10.759,0,0,1-3.14,1.32,2.725,2.725,0,0,1,.88.76,0.434,0.434,0,0,0,.34.24,8.308,8.308,0,0,0,2.5-1.14,7.192,7.192,0,0,0,3.68-6.32c0-4-2.88-6.64-7.24-6.64a8.682,8.682,0,0,0-5.14,1.54,7.682,7.682,0,0,0-3.22,6.34,6.156,6.156,0,0,0,.8,3.24,2.735,2.735,0,0,0,2.26,1.36c1.5,0,2.82-1.32,3.98-3.96A26.243,26.243,0,0,0,1140.43,5457.39Zm-1.38.08a23.867,23.867,0,0,1-1.82,6.86c-0.86,1.92-1.76,2.92-2.6,2.92-1.06,0-1.8-1.28-1.8-3.08a6.518,6.518,0,0,1,3.5-5.96A7.393,7.393,0,0,1,1139.05,5457.47Zm23.02,0.78a8.194,8.194,0,0,1,.26-2.96,0.631,0.631,0,0,0,.1-0.3,0.273,0.273,0,0,0-.24-0.26,7.791,7.791,0,0,0-1.54-.24c0.08,0.84.1,1.44,0.12,2.3,0.02,3.74.08,5.34,0.32,8.54a15.661,15.661,0,0,0-1.82-.12c-2.72,0-4.4,1.1-4.4,2.9,0,1.6,1.34,2.54,3.68,2.54,2.56,0,3.94-1.08,3.94-3.1v-0.6a12.349,12.349,0,0,1,2.92,1.42,16.034,16.034,0,0,1,2.08,1.54,0.4,0.4,0,0,0,.22.12,2.124,2.124,0,0,0,.82-1.16,3.1,3.1,0,0,0-1.08-.92,14.959,14.959,0,0,0-5.06-2.38c-0.2-2.42-.26-3.56-0.3-5.1a24.954,24.954,0,0,0,4.64-.52c0.82-.18.94-0.22,0.94-0.36a4.951,4.951,0,0,0-.18-0.84c-0.08-.26-0.14-0.34-0.24-0.34-0.08,0-.14.02-0.18,0.02a22.152,22.152,0,0,1-5,.76v-0.94Zm-0.94,8.4a1.529,1.529,0,0,1,.02.64c0,1.38-.92,2.06-2.76,2.06-1.44,0-2.26-.46-2.26-1.3,0-.96,1.2-1.62,2.94-1.62A10.489,10.489,0,0,1,1161.13,5466.65Zm20.6-12.16c-0.12,0-.16.06-0.28,0.32a3.673,3.673,0,0,0-.24.74c0,0.12.06,0.16,0.68,0.38a21.188,21.188,0,0,0,5.12,1.08,0.258,0.258,0,0,0,.22-0.1,4.6,4.6,0,0,0,.1-0.94c0-.38-0.02-0.42-0.18-0.42a17.829,17.829,0,0,1-4.78-.88A1.978,1.978,0,0,0,1181.73,5454.49Zm-3.28,6.06c0.42,1.1.78,1.66,1.04,1.66a0.583,0.583,0,0,0,.3-0.12,11.24,11.24,0,0,1,5.04-1.72c1.74,0,2.66,1.08,2.66,3.08,0,3.02-2.06,5.16-6.24,6.5a2.619,2.619,0,0,1,.78.64c0.28,0.32.3,0.34,0.5,0.34a8.75,8.75,0,0,0,2.18-.9c2.88-1.66,4.22-3.76,4.22-6.68,0-2.62-1.48-4.18-3.94-4.18a12.555,12.555,0,0,0-3.38.6A18.552,18.552,0,0,1,1178.45,5460.55Zm22.8,7.54a30.026,30.026,0,0,1-.2-3.36,27.913,27.913,0,0,1,.88-6.58,4.3,4.3,0,0,1,.48-1.32,0.885,0.885,0,0,0,.14-0.34c0-.2-0.66-0.48-1.7-0.7a15,15,0,0,1-.3,2.24,33.962,33.962,0,0,0-.72,6.66,20.73,20.73,0,0,0,.64,5.36,0.343,0.343,0,0,0,.42.28,2.835,2.835,0,0,0,.82-0.08,0.718,0.718,0,0,0,.14-0.4,21.472,21.472,0,0,1,1.02-3.1,1.891,1.891,0,0,0,.28-0.76,0.384,0.384,0,0,0-.08-0.24,2.825,2.825,0,0,1-.42-0.8c-0.12.26-.12,0.26-0.58,1.32Zm4.8-1.88a2.172,2.172,0,0,0-.96.78,3.63,3.63,0,0,0,1.08,1.48c0.92,0.78,2.1,1.08,4.2,1.08a17.334,17.334,0,0,0,3.1-.3c0.38-.06.42-0.1,0.42-0.24a9.35,9.35,0,0,0-.14-1.14,0.142,0.142,0,0,0-.16-0.14,0.254,0.254,0,0,0-.12.02,14.094,14.094,0,0,1-3.3.42C1207.91,5468.17,1206.75,5467.61,1206.05,5466.21Zm0.3-8.76c-0.18,0-.26.22-0.26,0.74v0.32c0.02,0.16.04,0.22,0.14,0.24a17.372,17.372,0,0,0,2.84.2,28.538,28.538,0,0,0,3.72-.26c0.22-.04.26-0.1,0.26-0.28a6.017,6.017,0,0,0-.08-0.98,0.142,0.142,0,0,0-.16-0.14,0.39,0.39,0,0,0-.14.02,21.365,21.365,0,0,1-3.68.32,19.726,19.726,0,0,1-2.3-.14C1206.53,5457.47,1206.41,5457.45,1206.35,5457.45Zm-134.96,34.36v3.04c-1.24.12-3.5,0.28-4.18,0.28-0.14,0-.38-0.02-0.56-0.02l0.26,1.28a7.026,7.026,0,0,1,.84-0.12,73.877,73.877,0,0,0,7.9-1.02,17.014,17.014,0,0,1,.68,1.72l1.1-.46a28.983,28.983,0,0,0-1.98-4.02l-0.96.4a14.772,14.772,0,0,1,.78,1.44c-1.16.2-1.52,0.26-2.76,0.4v-2.92h2.04c0.6,0,1,.02,1.5.04a10.742,10.742,0,0,1-.06-1.4v-2.24a10.835,10.835,0,0,1,.06-1.54,12.226,12.226,0,0,1-1.72.08h-1.82v-2.02a34.68,34.68,0,0,0,3.94-.7l-0.74-1.06a5.443,5.443,0,0,1-1.82.5,32.128,32.128,0,0,1-6.34.52,5.578,5.578,0,0,1,.48,1.06c1.6-.06,2.32-0.1,3.36-0.2v1.9h-1.68a13.607,13.607,0,0,1-1.78-.08,13.947,13.947,0,0,1,.08,1.62v2.1a9.384,9.384,0,0,1-.08,1.5c0.72-.06,1.08-0.08,1.76-0.08h1.7Zm0-4.08v3.08h-2.28v-3.08h2.28Zm1.12,0h2.38v3.08h-2.38v-3.08Zm-5.02-6.78a17.424,17.424,0,0,1-2.18-.12,18.262,18.262,0,0,1,.16,3.02c0,7.4-.48,10.12-2.18,12.62a3.791,3.791,0,0,1,1.04,1c1.76-2.74,2.34-5.88,2.34-12.88v-2.54h10.8v2.52a58.356,58.356,0,0,0,.42,8.32c0.4,2.58,1.28,4.34,2.14,4.34a1.1,1.1,0,0,0,.92-0.7,8.574,8.574,0,0,0,.66-2.84,4.246,4.246,0,0,1-.96-0.94,18.346,18.346,0,0,1-.34,2.34c-0.1.44-.16,0.56-0.28,0.56a4.3,4.3,0,0,1-.78-2.04,40.259,40.259,0,0,1-.56-8.4,36.9,36.9,0,0,1,.14-4.38,15.527,15.527,0,0,1-2.18.12h-9.16Zm26.38-.94a14.579,14.579,0,0,1-2.94,3.34,20.145,20.145,0,0,1-5.24,3.34,3.02,3.02,0,0,1,.8,1.1,22.475,22.475,0,0,0,4.08-2.5,18.372,18.372,0,0,0,4.04-4.2,15.939,15.939,0,0,0,2.94,3.22,26.367,26.367,0,0,0,5.42,3.54,5.18,5.18,0,0,1,.76-1.22,20.136,20.136,0,0,1-5.26-3.14,13.27,13.27,0,0,1-3.16-3.48h-1.44Zm-3.74,7.14a10.751,10.751,0,0,1,1.5-.08h5.98a11.4,11.4,0,0,1,1.6.08v-1.3a11.172,11.172,0,0,1-1.62.08h-5.94a9.509,9.509,0,0,1-1.52-.08v1.3Zm-0.14,10.02v-1.12h9.28v1.12h1.38a12.818,12.818,0,0,1-.12-1.9v-4.22a10.688,10.688,0,0,1,.1-1.76,9.584,9.584,0,0,1-1.48.08h-9.04a9.584,9.584,0,0,1-1.48-.08,10.988,10.988,0,0,1,.1,1.76v4.22a13.4,13.4,0,0,1-.12,1.9h1.38Zm0-6.64h9.28v4.38h-9.28v-4.38Zm19.96-7.98a7.294,7.294,0,0,1,.1,1.4v0.5c-0.02.68-.02,1.24-0.02,1.66a26.472,26.472,0,0,0,.68,6.66c0.62,2.12,1.62,3.22,2.94,3.22,1.08,0,2.1-.86,2.84-2.42a3.394,3.394,0,0,0,.34-0.96,0.333,0.333,0,0,0-.12-0.24,3.3,3.3,0,0,1-.64-1.22c-0.66,2.1-1.56,3.36-2.42,3.36-1.36,0-2.24-3.12-2.24-7.9a11.42,11.42,0,0,1,.26-3.22,0.385,0.385,0,0,0,.06-0.18C1111.73,5482.95,1111.33,5482.79,1109.95,5482.55Zm10.26,2.72a11.508,11.508,0,0,1,3.2,6.9,0.155,0.155,0,0,0,.14.16,5.41,5.41,0,0,0,1.08-.34,0.338,0.338,0,0,0,.26-0.3,5.835,5.835,0,0,0-.2-0.98,12.931,12.931,0,0,0-1.3-3.4c-0.72-1.32-1.78-2.58-2.14-2.58A3.16,3.16,0,0,0,1120.21,5485.27Zm25.22-1.06a1.7,1.7,0,0,0,.8-0.74,5.814,5.814,0,0,0-1.18-1.4,2.027,2.027,0,0,0-.92-0.64,0.563,0.563,0,0,0-.4.24c-0.32.26-.32,0.26-0.32,0.32a0.426,0.426,0,0,0,.14.18,8.377,8.377,0,0,1,1.7,1.88A0.221,0.221,0,0,0,1145.43,5484.21Zm-0.38-3.52a0.145,0.145,0,0,0,.08.12,7.6,7.6,0,0,1,1.76,1.92,0.11,0.11,0,0,0,.12.08,1.17,1.17,0,0,0,.4-0.24c0.36-.26.4-0.3,0.4-0.42a6.1,6.1,0,0,0-2.02-2.02A1.342,1.342,0,0,0,1145.05,5480.69Zm-8.96,4.76c-0.54.08-.54,0.08-0.8,0.12a20.3,20.3,0,0,1-3.84.48c0.18,1,.38,1.48.6,1.48a0.461,0.461,0,0,0,.18-0.06,16.066,16.066,0,0,1,3.52-.84,31.773,31.773,0,0,1-4.08,8.56,0.242,0.242,0,0,0,.06.4,2.505,2.505,0,0,0,.94.52,0.321,0.321,0,0,0,.22-0.1,23.815,23.815,0,0,0,2.14-4.06,53.831,53.831,0,0,0,2.08-5.58,12.463,12.463,0,0,1,2.14-.26c1.04,0,1.52.64,1.52,2.08a15.29,15.29,0,0,1-.96,5.32c-0.42,1.12-.92,1.6-1.68,1.6a3.647,3.647,0,0,1-1.98-.64,3.839,3.839,0,0,1,.22,1.22,0.336,0.336,0,0,0,.16.36,4.724,4.724,0,0,0,1.82.38,2.532,2.532,0,0,0,2.34-1.6,15.609,15.609,0,0,0,1.4-6.44c0-2.32-.82-3.38-2.6-3.38a14.55,14.55,0,0,0-2.04.22c0.04-.14.06-0.22,0.12-0.42a10.454,10.454,0,0,1,.94-2.72,0.443,0.443,0,0,0,.12-0.28c0-.26-0.64-0.52-1.8-0.72A16.9,16.9,0,0,1,1136.09,5485.45Zm10.44,4.88a2.149,2.149,0,0,0,.8-0.46,0.482,0.482,0,0,0,.26-0.34,8.908,8.908,0,0,0-1.72-3.14,8.04,8.04,0,0,0-1.84-1.86,1.93,1.93,0,0,0-.82.78,0.208,0.208,0,0,0,.1.16,11.183,11.183,0,0,1,3.04,4.68A0.188,0.188,0,0,0,1146.53,5490.33Zm14.56-3.66h-4.7v-3.62a9.507,9.507,0,0,1,.08-1.44h-1.44a13.173,13.173,0,0,1,.1,1.5v3.8c0,0.34-.02.62-0.04,0.98,0.48-.02.82-0.04,1.2-0.04h4.8v7h-5.48v-3.52a12.223,12.223,0,0,1,.08-1.64h-1.44a13.169,13.169,0,0,1,.1,1.7v4.2a9.824,9.824,0,0,1-.12,1.64h1.38v-1.16h12.48v1.16h1.38a7.734,7.734,0,0,1-.12-1.64v-4.32a10.2,10.2,0,0,1,.1-1.7h-1.46a12.175,12.175,0,0,1,.1,1.64v3.64h-5.72v-7h5.18c0.38,0,.7.02,1.18,0.04-0.02-.28-0.04-0.6-0.04-0.98v-3.84a9.113,9.113,0,0,1,.1-1.46h-1.44a10.353,10.353,0,0,1,.08,1.4v3.66h-5.06v-4.9a8.216,8.216,0,0,1,.12-1.72h-1.54a7.213,7.213,0,0,1,.14,1.72v4.9Zm18.12-4.86c0.08,0.92.3,1.6,0.52,1.6a0.535,0.535,0,0,0,.2-0.04c0.42-.14,1.72-0.32,5.74-0.86a77.2,77.2,0,0,1-6.88,7.6,9.84,9.84,0,0,1-1.4,1.24,0.322,0.322,0,0,0-.18.24,2.4,2.4,0,0,0,1.08,1.1,0.482,0.482,0,0,0,.34-0.26,10.032,10.032,0,0,1,7.12-3.84c2.2,0,3.52,1.16,3.52,3.08a3.608,3.608,0,0,1-.48,1.8,3.961,3.961,0,0,1-1.84,1.58c-0.72-1.86-1.88-2.78-3.52-2.78-1.56,0-2.68.9-2.68,2.18a2.056,2.056,0,0,0,.6,1.46,4.093,4.093,0,0,0,2.98.92,7.113,7.113,0,0,0,5.04-1.8,4.51,4.51,0,0,0,1.32-3.28c0-2.58-1.84-4.3-4.66-4.3a6.694,6.694,0,0,0-2.46.46,7.1,7.1,0,0,0-2.38,1.42c0.68-.74.82-0.86,1.5-1.58,1.28-1.32,2.18-2.28,2.52-2.64a16.413,16.413,0,0,1,2.32-2.34c0.34-.24.38-0.26,0.38-0.4a1.156,1.156,0,0,0-.24-0.54,1.681,1.681,0,0,0-.86-0.88,0.631,0.631,0,0,0-.3.1,4.119,4.119,0,0,1-1.66.4c-1.86.24-3.92,0.44-4.5,0.44C1180.07,5481.89,1179.59,5481.85,1179.21,5481.81Zm6.5,13.72a5.1,5.1,0,0,1-1.54.2c-1.32,0-2.22-.52-2.22-1.3a1.159,1.159,0,0,1,1.38-1.02C1184.43,5493.41,1185.21,5494.09,1185.71,5495.53Zm21.92-12.14a5.538,5.538,0,0,1,2.26.52,5.156,5.156,0,0,1,3.06,4.88,6.119,6.119,0,0,1-2.88,5.2,10.759,10.759,0,0,1-3.14,1.32,2.725,2.725,0,0,1,.88.76,0.434,0.434,0,0,0,.34.24,8.308,8.308,0,0,0,2.5-1.14,7.192,7.192,0,0,0,3.68-6.32c0-4-2.88-6.64-7.24-6.64a8.682,8.682,0,0,0-5.14,1.54,7.682,7.682,0,0,0-3.22,6.34,6.156,6.156,0,0,0,.8,3.24,2.735,2.735,0,0,0,2.26,1.36c1.5,0,2.82-1.32,3.98-3.96A26.243,26.243,0,0,0,1207.63,5483.39Zm-1.38.08a23.867,23.867,0,0,1-1.82,6.86c-0.86,1.92-1.76,2.92-2.6,2.92-1.06,0-1.8-1.28-1.8-3.08a6.518,6.518,0,0,1,3.5-5.96A7.393,7.393,0,0,1,1206.25,5483.47Zm26.14,2.84c0.04,1.96.04,2.42,0.16,5.36a6.908,6.908,0,0,0-1.82-.18c-2.06,0-3.42,1.04-3.42,2.62,0,1.52,1.24,2.5,3.22,2.5,2.12,0,3.36-1.04,3.36-2.84a3.571,3.571,0,0,0-.02-0.42,12.936,12.936,0,0,1,2.32,1.52,1.381,1.381,0,0,0,.64.48c0.1,0,.1,0,0.46-0.48a1.228,1.228,0,0,0,.3-0.56,0.5,0.5,0,0,0-.26-0.36,14.9,14.9,0,0,0-3.5-1.96c-0.14-2.34-.2-4.3-0.2-5.8a28.046,28.046,0,0,0,3-.52,0.2,0.2,0,0,0,.2-0.24,6.168,6.168,0,0,0-.1-0.96,0.132,0.132,0,0,0-.14-0.12,0.528,0.528,0,0,0-.14.02,25.083,25.083,0,0,1-2.82.56,8.223,8.223,0,0,1,.3-3.1,0.411,0.411,0,0,0,.08-0.26,0.255,0.255,0,0,0-.24-0.24,6.461,6.461,0,0,0-1.48-.22,11.546,11.546,0,0,1,.1,1.72v2.24a26.625,26.625,0,0,1-2.82.14c-0.64,0-1-.02-1.76-0.08v0.2a4.517,4.517,0,0,0,.1.94c0.02,0.14.08,0.16,0.28,0.16,0.18,0,.54,0,1.06.02h0.32C1230.25,5486.45,1231.31,5486.39,1232.39,5486.31Zm0.16,6.66a1.952,1.952,0,0,1,.02.54c0,1.28-.64,1.88-2.04,1.88-1.26,0-2.02-.5-2.02-1.34,0-.86.84-1.38,2.28-1.38A4.588,4.588,0,0,1,1232.55,5492.97Zm-7.78-1.92c-0.22.58-.22,0.58-0.58,1.56-0.24.58-.4,1.04-0.68,1.76a21.116,21.116,0,0,1-.26-3.3c0-2.94.78-7.52,1.48-8.76a0.494,0.494,0,0,0,.14-0.32c0-.24-0.6-0.5-1.66-0.7a20.134,20.134,0,0,1-.38,2.54,35.311,35.311,0,0,0-.78,7.02,19.014,19.014,0,0,0,.62,5.04c0.2,0.76.22,0.78,0.44,0.78a4.588,4.588,0,0,0,.82-0.06c0.16-.04.2-0.1,0.24-0.38a16.625,16.625,0,0,1,.8-3.16,3.937,3.937,0,0,0,.28-0.9,0.492,0.492,0,0,0-.12-0.32A1.961,1.961,0,0,1,1224.77,5491.05Zm22.66-5.9a27.335,27.335,0,0,1-2.66,5.62,12.24,12.24,0,0,1-1.1,1.56,0.66,0.66,0,0,0-.18.36,2.089,2.089,0,0,0,1.06.8c0.2,0,.56-0.48,1.18-1.56a40.677,40.677,0,0,0,3.16-6.98c0.82-.12,2.28-0.38,2.98-0.52,0.1-.02.16-0.04,0.18-0.04,0.36-.08.42-0.12,0.42-0.28a0.617,0.617,0,0,0-.02-0.18c0-.06-0.02-0.16-0.04-0.32-0.06-.48-0.1-0.6-0.24-0.6a0.3,0.3,0,0,0-.16.04,23.113,23.113,0,0,1-2.72.6,9.556,9.556,0,0,1,.82-2.46,0.745,0.745,0,0,0,.12-0.3c0-.1-0.04-0.14-0.32-0.24a10.564,10.564,0,0,0-1.46-.34,11.56,11.56,0,0,1-.62,3.56c-1.06.12-2.42,0.22-3.12,0.22-0.18,0-.8-0.02-1.12-0.02a6.3,6.3,0,0,0,.18,1.14c0.04,0.14.08,0.16,0.36,0.16,0.14,0,.32,0,0.64-0.02,0.2-.02.38-0.02,0.48-0.04C1245.97,5485.29,1246.13,5485.27,1247.43,5485.15Zm5.7,1.6a9.214,9.214,0,0,1,.1,1.28c0.04,1.34.1,2.44,0.2,3.84a7.2,7.2,0,0,0-1.76-.2c-1.98,0-3.42,1.16-3.42,2.76,0,1.48,1.3,2.48,3.24,2.48,1.56,0,2.62-.58,3.04-1.68a3.919,3.919,0,0,0,.24-1.58,10.465,10.465,0,0,1,2.6,1.76,0.505,0.505,0,0,0,.3.2,1.733,1.733,0,0,0,.72-1.1,1.862,1.862,0,0,0-.88-0.8,12.515,12.515,0,0,0-2.78-1.5c-0.12-1.44-.18-2.56-0.18-3.52a4.1,4.1,0,0,1,.14-1.28,0.6,0.6,0,0,0,.06-0.26C1254.75,5486.93,1254.43,5486.87,1253.13,5486.75Zm0.32,6.44a2.269,2.269,0,0,1,.02.28c0,1.52-.64,2.2-2.06,2.2-1.22,0-1.94-.5-1.94-1.34,0-.9.88-1.48,2.24-1.48A4.222,4.222,0,0,1,1253.45,5493.19Zm1.22-8.24a0.3,0.3,0,0,0,.2.22,10.591,10.591,0,0,1,3.36,2.08,0.794,0.794,0,0,0,.24.14,0.448,0.448,0,0,0,.32-0.28,2.387,2.387,0,0,0,.42-0.8v-0.02c0-.36-3.14-2.22-3.78-2.24a0.217,0.217,0,0,1-.1-0.02,1.178,1.178,0,0,0-.34.36c-0.04.08-.1,0.14-0.14,0.22A1.079,1.079,0,0,0,1254.67,5484.95Zm16.1,3.38v-0.68c1.4-.2,2.38-0.32,2.94-0.38,0.84-.1,2.32-0.22,2.68-0.24-0.12,2.9-.32,3.42-1.28,3.42a3.889,3.889,0,0,1-1.84-.44,3.574,3.574,0,0,1,.32,1.12,0.368,0.368,0,0,0,.24.34,4.047,4.047,0,0,0,1.38.22,1.9,1.9,0,0,0,2.18-1.74,22.248,22.248,0,0,0,.28-3.02,6.669,6.669,0,0,0,.7-0.04c0.86-.04,2.54-0.1,3.3-0.1,0.22,0,.28-0.04.28-0.18v-0.16a1.077,1.077,0,0,0,.02-0.22v-0.08a3.39,3.39,0,0,1-.02-0.46c0-.12-0.06-0.16-0.32-0.16-0.72,0-2.1.08-3.92,0.22,0.06-1.38.06-1.46,0.06-2.06a3.894,3.894,0,0,1,.22-1.8,0.742,0.742,0,0,0,.04-0.18c0-.26-0.6-0.42-1.78-0.48a14.147,14.147,0,0,1,.2,3.1c0,0.54,0,.62-0.02,1.54-1.86.14-2.5,0.22-5.66,0.62v-0.46a10.806,10.806,0,0,1,.2-2.86,0.576,0.576,0,0,0,.1-0.32c0-.16-0.12-0.24-0.46-0.32a6.063,6.063,0,0,0-1.36-.18,12.782,12.782,0,0,1,.24,2.64c0,0.5,0,.5.02,1.68-1.48.2-1.48,0.2-2.2,0.32a18.79,18.79,0,0,1-2,.2,5.869,5.869,0,0,0,.26,1.06c0.12,0.34.2,0.44,0.34,0.44a1.29,1.29,0,0,0,.4-0.12,21.593,21.593,0,0,1,3.2-.7,35.84,35.84,0,0,0,.1,5.18c0.3,2.04,1.7,2.82,5.04,2.82a33.085,33.085,0,0,0,4.18-.22c0.2-.04.22-0.06,0.22-0.42a5.811,5.811,0,0,0-.1-0.92,0.133,0.133,0,0,0-.12-0.14,0.12,0.12,0,0,0-.08.02,22.507,22.507,0,0,1-4.36.4c-2.36,0-3.28-.4-3.54-1.54a17.071,17.071,0,0,1-.08-3.08v-1.64Zm8.18-6.6a0.237,0.237,0,0,0,.1.18,7.3,7.3,0,0,1,1.42,2.12c0.06,0.14.1,0.18,0.18,0.18a2.469,2.469,0,0,0,.64-0.36,0.408,0.408,0,0,0,.22-0.28,7.7,7.7,0,0,0-.94-1.46,2.118,2.118,0,0,0-.88-0.84A1.249,1.249,0,0,0,1278.95,5481.73Zm2.5-1.48a1.393,1.393,0,0,0-.76.48,0.183,0.183,0,0,0,.06.1,6.48,6.48,0,0,1,1.46,2.14,0.166,0.166,0,0,0,.16.14,0.89,0.89,0,0,0,.26-0.1c0.08-.04.16-0.1,0.26-0.14a0.463,0.463,0,0,0,.32-0.32,3.7,3.7,0,0,0-.72-1.22A3,3,0,0,0,1281.45,5480.25Zm11.6,4.18c0.66-1.78,1.72-2.66,3.22-2.66a2.316,2.316,0,0,1,2.5,2.44c0,1.1-.34,1.72-1.72,3.14a7.371,7.371,0,0,0-1.28,1.6,4.436,4.436,0,0,0-.56,2.24v1.38h1.3v-1.32c0-1.22.34-1.86,1.68-3.16a8.576,8.576,0,0,0,1.48-1.64,3.952,3.952,0,0,0,.68-2.26c0-2.22-1.64-3.7-4.06-3.7-2.16,0-3.62,1.06-4.56,3.32Zm2.86,10.04a1.132,1.132,0,0,0-1.16,1.14,1.15,1.15,0,1,0,2.3,0A1.127,1.127,0,0,0,1295.91,5494.47Z" transform="translate(-1063.28 -5453.44)"/>
</svg>
