<svg xmlns="http://www.w3.org/2000/svg" width="275.219" height="17.84" viewBox="0 0 275.219 17.84">
  <defs>
    <style>
      .cls-1 {
        fill: #333;
        fill-rule: evenodd;
      }
    </style>
  </defs>
  <path id="sub03_02.svg" class="cls-1" d="M524.227,6798.49a6.136,6.136,0,0,0,.28,1.32,0.254,0.254,0,0,0,.26.22,1.509,1.509,0,0,0,.48-0.12,50.393,50.393,0,0,1,5.382-.84,39.476,39.476,0,0,1-3.581,3.84,42.547,42.547,0,0,1-3.7,3.16,4.038,4.038,0,0,1-1.4.76c-0.24.08-.3,0.12-0.3,0.28a1.656,1.656,0,0,0,.76,1.2,0.942,0.942,0,0,0,.18-0.06c0.9-.68,4.021-1.76,8.042-2.82a7.943,7.943,0,0,0-2.141,1.84,4.418,4.418,0,0,0-1.08,2.82,3.338,3.338,0,0,0,2.2,3.16,8.142,8.142,0,0,0,3.321.74,0.343,0.343,0,0,0,.34-0.1,4.812,4.812,0,0,0,.14-1.12,0.2,0.2,0,0,0-.24-0.24,7.623,7.623,0,0,1-2.22-.32c-1.541-.42-2.281-1.18-2.281-2.28,0-1.24.84-2.48,2.441-3.6a8.046,8.046,0,0,1,4.161-1.52,4.257,4.257,0,0,0,1.12-.14,0.23,0.23,0,0,0,.12-0.22,3.154,3.154,0,0,0-.24-1.02,0.275,0.275,0,0,0-.26-0.18,1.788,1.788,0,0,0-.44.08c-0.34.1-.881,0.22-1.5,0.34a71.576,71.576,0,0,0-9.062,2.34,33.274,33.274,0,0,0,3.061-2.44c1.12-1,2.861-2.74,3.821-3.8a2.563,2.563,0,0,1,.68-0.6,0.532,0.532,0,0,0,.32-0.38,0.81,0.81,0,0,0-.32-0.5,1.52,1.52,0,0,0-.8-0.64,0.825,0.825,0,0,0-.3.08,5.792,5.792,0,0,1-1.141.3,47.4,47.4,0,0,1-5.4.48C524.627,6798.51,524.427,6798.51,524.227,6798.49Zm28,1.9a5.539,5.539,0,0,1,2.261.52,5.156,5.156,0,0,1,3.061,4.88,6.12,6.12,0,0,1-2.881,5.2,10.755,10.755,0,0,1-3.141,1.32,2.725,2.725,0,0,1,.88.76,0.436,0.436,0,0,0,.341.24,8.308,8.308,0,0,0,2.5-1.14,7.191,7.191,0,0,0,3.681-6.32c0-4-2.881-6.64-7.242-6.64a8.687,8.687,0,0,0-5.141,1.54,7.682,7.682,0,0,0-3.22,6.34,6.156,6.156,0,0,0,.8,3.24,2.735,2.735,0,0,0,2.26,1.36c1.5,0,2.821-1.32,3.981-3.96A26.243,26.243,0,0,0,552.228,6800.39Zm-1.38.08a23.867,23.867,0,0,1-1.82,6.86c-0.86,1.92-1.761,2.92-2.6,2.92-1.06,0-1.8-1.28-1.8-3.08a6.517,6.517,0,0,1,3.5-5.96A7.393,7.393,0,0,1,550.848,6800.47Zm22.96,12.08h-3.02v-3.04a5.014,5.014,0,0,1,.12-1.34h-1.381a6.774,6.774,0,0,1,.1,1.34v3.04h-0.6a19.1,19.1,0,0,1-2.14-.1v1.3a17.829,17.829,0,0,1,2.32-.12h9.822a20.21,20.21,0,0,1,2.481.12v-1.3c-0.66.06-1.32,0.1-2.381,0.1h-4.16v-2.58h3.22a18.47,18.47,0,0,1,2.041.08v-1.22a12.753,12.753,0,0,1-2.041.1h-3.22v-0.72a6.3,6.3,0,0,1,.1-1.34h-1.361a6.417,6.417,0,0,1,.1,1.34v4.34Zm2.741-10.66a10.091,10.091,0,0,1-3.221,3.68,3.149,3.149,0,0,1,.8.74,10.223,10.223,0,0,0,2.781-3.58c-0.06.96-.08,1.56-0.08,1.76v1.28a8.049,8.049,0,0,1-.1,1.42h1.22a7.019,7.019,0,0,1-.1-1.42v-1.34c-0.02-.92-0.04-1.52-0.08-1.8a11.217,11.217,0,0,0,3.081,3.7,5.185,5.185,0,0,1,.86-0.9,10.759,10.759,0,0,1-3.561-3.54h1.721a6.337,6.337,0,0,1,1.22.08v-1.12a6.206,6.206,0,0,1-1.22.08h-2.021v-0.12a7.611,7.611,0,0,1,.08-1.38h-1.18a7.22,7.22,0,0,1,.08,1.36v0.14h-1.2a6.562,6.562,0,0,1-1.261-.08v1.12a5.672,5.672,0,0,1,1.161-.08h1.02Zm-6.261,0a10.355,10.355,0,0,1-2.961,3.4,3.488,3.488,0,0,1,.74.8,9.849,9.849,0,0,0,2.561-3.38c-0.06.78-.08,1.34-0.08,1.7v1.34a8.567,8.567,0,0,1-.12,1.44h1.24a6.9,6.9,0,0,1-.1-1.42v-1.36c0-.32-0.04-1.2-0.08-1.74a7.756,7.756,0,0,0,1.72,2.22,4.909,4.909,0,0,1,.76-0.8,6.968,6.968,0,0,1-2.14-2.2h0.84a8.074,8.074,0,0,1,1.14.06v-1.1a5.728,5.728,0,0,1-1.2.08h-1.04v-0.14a7.471,7.471,0,0,1,.08-1.38h-1.18a7.611,7.611,0,0,1,.08,1.38v0.14h-1.621a5.851,5.851,0,0,1-1.2-.08v1.12a5.977,5.977,0,0,1,1.2-.08h1.361Zm-3.161-3H579.35a17.329,17.329,0,0,1,2.04.08v-1.28a12.027,12.027,0,0,1-2.16.12H568.167a19.355,19.355,0,0,1-2.34-.1,24.62,24.62,0,0,1,.1,3.06c0,6.8-.46,9.78-1.9,12.4a4.143,4.143,0,0,1,.98.98c1.641-3.1,2.121-6.24,2.121-13.9v-1.36Zm28.121,7.18a6.71,6.71,0,0,1-1.12,3.32,8.411,8.411,0,0,1-2.161-2.78l-1.2.7a13.55,13.55,0,0,1,.9,1.08,12.582,12.582,0,0,0,1.741,1.84,11.456,11.456,0,0,1-5.842,2.84,3.535,3.535,0,0,1,.8,1.16,12.631,12.631,0,0,0,5.981-3.28c2.56,1.76,5.461,2.62,9.782,2.94a4.68,4.68,0,0,1,.6-1.36,25.649,25.649,0,0,1-5-.56,14.611,14.611,0,0,1-4.681-1.88,8.317,8.317,0,0,0,1.42-4.02h4.561a14.77,14.77,0,0,1,2.121.1,9.8,9.8,0,0,1-.08-1.46v-3.62a10.026,10.026,0,0,1,.08-1.44,14.374,14.374,0,0,1-2.161.1h-4.3a16,16,0,0,1,.12-2.78h-1.46a17.054,17.054,0,0,1,.12,2.78h-4.321a21.5,21.5,0,0,1-2.16-.1,11.374,11.374,0,0,1,.08,1.44v3.62a11.081,11.081,0,0,1-.08,1.46c0.64-.06,1.36-0.1,2.12-0.1h4.141Zm1.32-1.1c0.08-1.32.08-1.32,0.12-4.1h5.141v4.1h-5.261Zm-6.261,0v-4.1h5.161c-0.02,2.02-.06,2.98-0.12,4.1h-5.041Zm22.68-5.72a4.826,4.826,0,0,0-.1,1.08c0,0.36.02,0.38,0.6,0.5a25.524,25.524,0,0,0,5.161.52,22.751,22.751,0,0,0,2.981-.16c0.14-.04.16-0.12,0.16-0.48a4.478,4.478,0,0,0-.08-0.86,0.15,0.15,0,0,0-.18-0.14c-0.1,0-.2.02-0.74,0.08-0.52.06-1.7,0.12-2.5,0.12A20.928,20.928,0,0,1,612.987,6799.25Zm-0.82,9.36a2.083,2.083,0,0,0-1.06.8,3.378,3.378,0,0,0,.4.98,4.358,4.358,0,0,0,1.4,1.5c1.18,0.8,2.721,1.12,5.3,1.12a29.345,29.345,0,0,0,5.361-.52,0.257,0.257,0,0,0,.221-0.3,8.023,8.023,0,0,0-.06-1.1,0.195,0.195,0,0,0-.281-0.16,23.044,23.044,0,0,1-5.281.62,15.635,15.635,0,0,1-2.5-.2,4.414,4.414,0,0,1-2.581-1.22A3.4,3.4,0,0,1,612.167,6808.61Zm9.922-10.52a0.253,0.253,0,0,0,.12.16,7.771,7.771,0,0,1,1.6,2,0.221,0.221,0,0,0,.18.18,1.793,1.793,0,0,0,.84-0.68,2.8,2.8,0,0,0-.56-0.86,5.442,5.442,0,0,0-1.421-1.34,0.88,0.88,0,0,0-.48.24,0.656,0.656,0,0,1-.16.12A0.242,0.242,0,0,0,622.089,6798.09Zm1.681-1.16a0.121,0.121,0,0,0,.08.1,7.127,7.127,0,0,1,1.62,2,0.182,0.182,0,0,0,.16.14,0.872,0.872,0,0,0,.36-0.18c0.4-.28.46-0.32,0.46-0.44a6,6,0,0,0-1.9-2.16A1.323,1.323,0,0,0,623.77,6796.93Zm13.218,0.86a10.591,10.591,0,0,1,.26,1.84c0.32,3.9.58,4.82,1.48,5.18a9.738,9.738,0,0,0-2.921,2.14,4.4,4.4,0,0,0-1.3,3.04,2.944,2.944,0,0,0,2.341,3,12.087,12.087,0,0,0,3.62.42c1.361,0,3.6-.12,4.381-0.22a0.285,0.285,0,0,0,.3-0.34,4.225,4.225,0,0,0-.12-1.04,0.241,0.241,0,0,0-.24-0.16,0.643,0.643,0,0,0-.16.02,29.44,29.44,0,0,1-4.661.38c-2.86,0-4.1-.64-4.1-2.12,0-1.76,1.8-3.42,5.321-4.86a23.834,23.834,0,0,1,3.081-1.06c0.24-.06.34-0.14,0.34-0.26a2.639,2.639,0,0,0-.92-1.42,0.371,0.371,0,0,0-.14.04,6.122,6.122,0,0,1-.98.6,7.4,7.4,0,0,1-2.7,1.06c-0.5,0-.74-0.34-0.92-1.28a21.167,21.167,0,0,1-.28-2.98,5.921,5.921,0,0,1,.12-1.38,1.928,1.928,0,0,0,.04-0.24,0.289,0.289,0,0,0-.3-0.24A8,8,0,0,0,636.988,6797.79Zm29.641,3.1a17.752,17.752,0,0,1-1.64,4.42,14.9,14.9,0,0,1-3.5,4.44,15.611,15.611,0,0,1-3.921,2.54,4.577,4.577,0,0,1,1.081.78,0.347,0.347,0,0,0,.22.12,15.471,15.471,0,0,0,4-2.72,18.663,18.663,0,0,0,5.142-8.7,2.075,2.075,0,0,1,.4-0.92,0.349,0.349,0,0,0,.14-0.28,1.388,1.388,0,0,0-.52-0.76,0.978,0.978,0,0,0-.741-0.48,0.81,0.81,0,0,0-.24.06,2.325,2.325,0,0,1-.84.16c-0.32.02-4.721,0.04-7.441,0.04a29.5,29.5,0,0,1-3.881-.16,5.233,5.233,0,0,0,.16,1.42,0.242,0.242,0,0,0,.26.22,0.689,0.689,0,0,0,.18-0.02c0.92-.12,2.941-0.16,7.9-0.16h3.24Zm9.738,1.42a4.647,4.647,0,0,0,.16,1.28,0.34,0.34,0,0,0,.32.32,0.56,0.56,0,0,0,.12-0.02c1.16-.2,1.941-0.22,9.322-0.24a11.082,11.082,0,0,1-3.321,3.22,2.545,2.545,0,0,1,.8.46,0.447,0.447,0,0,0,.34.2c0.36,0,1.84-1.36,2.82-2.58a2.367,2.367,0,0,1,.92-0.96,0.412,0.412,0,0,0,.321-0.38,1.925,1.925,0,0,0-.441-0.82,1,1,0,0,0-.7-0.52,0.691,0.691,0,0,0-.24.06,2.485,2.485,0,0,1-.84.12c-0.46.02-4.581,0.06-6.081,0.06A20.388,20.388,0,0,1,676.367,6802.31Zm4.521,2.64a4.244,4.244,0,0,1,.1,1,8.533,8.533,0,0,1-.18,1.64,6.916,6.916,0,0,1-2.321,4.2,7.708,7.708,0,0,1-1.74,1.12,3.309,3.309,0,0,1,.84.66,0.341,0.341,0,0,0,.24.14,4.418,4.418,0,0,0,1.4-.84c1.74-1.36,2.66-3.18,3.04-5.96a3.837,3.837,0,0,1,.28-1.4,0.447,0.447,0,0,0,.06-0.2,0.19,0.19,0,0,0-.16-0.18A9.008,9.008,0,0,0,680.888,6804.95Zm19.98-2.22a0.27,0.27,0,0,0-.1.2,0.652,0.652,0,0,0,.06.2,10.684,10.684,0,0,1,1.24,2.54c0.16,0.5.18,0.52,0.28,0.52a1.747,1.747,0,0,0,.5-0.16c0.5-.24.62-0.32,0.62-0.48a9.741,9.741,0,0,0-1.1-2.44,1.333,1.333,0,0,0-.68-0.82A2.064,2.064,0,0,0,700.868,6802.73Zm6.121,0.02a9.528,9.528,0,0,1-1.16,3.54,14.738,14.738,0,0,1-6.321,6.52,3.9,3.9,0,0,1,.8.5,0.639,0.639,0,0,0,.42.26,1.947,1.947,0,0,0,.64-0.32,16.2,16.2,0,0,0,4-3.7,20.387,20.387,0,0,0,2.66-4.72,2.978,2.978,0,0,1,.46-0.86,0.528,0.528,0,0,0,.2-0.32C708.689,6803.41,708.129,6803.11,706.989,6802.75Zm-7.181,3.52c-0.02-.06-0.32-0.68-0.481-0.98a10.292,10.292,0,0,0-.76-1.3,0.85,0.85,0,0,0-1.68-.18,0.318,0.318,0,0,0,.1.18,12.691,12.691,0,0,1,1.56,2.92,0.251,0.251,0,0,0,.22.22,2.459,2.459,0,0,0,.761-0.34c0.26-.16.3-0.22,0.3-0.36A0.563,0.563,0,0,0,699.808,6806.27Zm25.48-5.02c0-.18-0.32-0.46-1.42-1.18a11.379,11.379,0,0,0-2.761-1.42,0.6,0.6,0,0,0-.38.34,1.54,1.54,0,0,0-.4.64c0,0.1.06,0.14,0.24,0.24a11.19,11.19,0,0,1,2.381,1.36,11.5,11.5,0,0,1,1.34,1.06,0.239,0.239,0,0,0,.16.08,0.683,0.683,0,0,0,.44-0.4A1.727,1.727,0,0,0,725.288,6801.25Zm7.082,1.08a21.671,21.671,0,0,1-2.841,3.42,23.926,23.926,0,0,1-6.1,4.32,14.457,14.457,0,0,1-4.421,1.54c0.4,1.04.78,1.7,1,1.7a0.365,0.365,0,0,0,.2-0.12,4.116,4.116,0,0,1,1.14-.6,26.945,26.945,0,0,0,8.222-4.9,37.267,37.267,0,0,0,2.9-3.02,1.074,1.074,0,0,0,.38-0.74,0.851,0.851,0,0,0-.04-0.22A4.13,4.13,0,0,1,732.37,6802.33Zm-14.123,1.6c0.02,0.16.04,0.16,0.48,0.32a16.354,16.354,0,0,1,3.621,1.9,0.369,0.369,0,0,0,.6-0.28,2.5,2.5,0,0,0,.36-0.82,3.39,3.39,0,0,0-1.46-.96,18.58,18.58,0,0,0-2.9-1.22,0.353,0.353,0,0,0-.3.22A2.705,2.705,0,0,0,718.247,6803.93Zm30.982,3.16c-1.54.02-1.8,0.02-2.421,0.02a46.459,46.459,0,0,1-5.3-.16c0.06,1.12.14,1.48,0.4,1.48h0.02a36.773,36.773,0,0,1,4.961-.16c1.041,0,1.1,0,2.341.02v3.18h-5.9c-0.921,0-1.981-.04-2.541-0.1a5.181,5.181,0,0,0,.12,1.24,0.216,0.216,0,0,0,.22.2h0.02a18.226,18.226,0,0,1,2.381-.12l5.681-.02v0.48c0,0.46.02,0.48,0.36,0.48h0.36c0.58-.02.62-0.04,0.62-0.38,0-.02,0-0.6-0.02-0.8v-0.94c0-.54,0-1.1-0.02-1.68v-1.72c0.02-1.28.02-2.38,0.02-3.26,0-1,0-1.26.02-1.76-0.6.04-1.02,0.06-1.68,0.06h-5.121a21.345,21.345,0,0,1-2.721-.14,4.359,4.359,0,0,0,.16,1.32,0.179,0.179,0,0,0,.2.14,0.561,0.561,0,0,0,.1-0.02,18.7,18.7,0,0,1,2.3-.12h5.441v2.76Zm17.139-4.52c0-.4-3.421-3.02-3.981-3.04a0.5,0.5,0,0,0-.4.26,2.007,2.007,0,0,0-.5.74c0,0.1.02,0.12,0.46,0.38a15.737,15.737,0,0,1,3.241,2.62,0.31,0.31,0,0,0,.22.14A2.256,2.256,0,0,0,766.368,6802.57Zm8.082-1.24a18.757,18.757,0,0,1-3.4,4.18,23.9,23.9,0,0,1-4.5,3.28,18.576,18.576,0,0,1-5.061,2.08,2.917,2.917,0,0,0,1.04,1.64,0.469,0.469,0,0,0,.26-0.14,5.724,5.724,0,0,1,1.16-.62,26.217,26.217,0,0,0,7.562-4.66c1.7-1.52,3.621-3.74,3.621-4.2a0.476,0.476,0,0,0-.1-0.28A5.747,5.747,0,0,1,774.45,6801.33Zm9.8,9.76a30.026,30.026,0,0,1-.2-3.36,27.913,27.913,0,0,1,.88-6.58,4.3,4.3,0,0,1,.48-1.32,0.885,0.885,0,0,0,.14-0.34c0-.2-0.66-0.48-1.7-0.7a15,15,0,0,1-.3,2.24,33.962,33.962,0,0,0-.72,6.66,20.73,20.73,0,0,0,.64,5.36,0.343,0.343,0,0,0,.42.28,2.835,2.835,0,0,0,.82-0.08,0.718,0.718,0,0,0,.14-0.4,21.472,21.472,0,0,1,1.02-3.1,1.891,1.891,0,0,0,.28-0.76,0.384,0.384,0,0,0-.08-0.24,2.825,2.825,0,0,1-.42-0.8c-0.12.26-.12,0.26-0.58,1.32Zm4.8-1.88a2.172,2.172,0,0,0-.96.78,3.63,3.63,0,0,0,1.08,1.48c0.92,0.78,2.1,1.08,4.2,1.08a17.345,17.345,0,0,0,3.1-.3c0.38-.06.42-0.1,0.42-0.24a9.35,9.35,0,0,0-.14-1.14,0.142,0.142,0,0,0-.16-0.14,0.254,0.254,0,0,0-.12.02,14.108,14.108,0,0,1-3.3.42C790.909,6811.17,789.748,6810.61,789.048,6809.21Zm0.3-8.76c-0.18,0-.26.22-0.26,0.74v0.32c0.02,0.16.04,0.22,0.14,0.24a17.377,17.377,0,0,0,2.841.2,28.567,28.567,0,0,0,3.721-.26c0.22-.04.26-0.1,0.26-0.28a6.017,6.017,0,0,0-.08-0.98,0.142,0.142,0,0,0-.16-0.14,0.4,0.4,0,0,0-.141.02,21.365,21.365,0,0,1-3.68.32,19.744,19.744,0,0,1-2.3-.14C789.528,6800.47,789.408,6800.45,789.348,6800.45Z" transform="translate(-521.656 -6796.38)"/>
</svg>
