<svg xmlns="http://www.w3.org/2000/svg" width="172.53" height="84.65" viewBox="0 0 172.53 84.65">
  <defs>
    <style>
      .cls-1 {
        fill: #333;
        fill-rule: evenodd;
      }
    </style>
  </defs>
  <path id="sub01_02.svg" class="cls-1" d="M1027.08,1929.43h-5.32a11.794,11.794,0,0,1-1.86-.11v1.22a12.338,12.338,0,0,1,1.86-.12h4.27a16.365,16.365,0,0,1-6.44,3.23,3.512,3.512,0,0,1,.67.97,21.668,21.668,0,0,0,3.82-1.65,12.049,12.049,0,0,0,3.06-2.36c-0.04.49-.06,0.74-0.06,0.99v0.47a7.282,7.282,0,0,1-.08,1.24h1.26a7.023,7.023,0,0,1-.08-1.26v-0.47c0-.17-0.04-0.57-0.07-0.99a12.329,12.329,0,0,0,3.36,2.43,18.671,18.671,0,0,0,3.93,1.52,3.334,3.334,0,0,1,.65-1.06,17.293,17.293,0,0,1-4.05-1.35,11.551,11.551,0,0,1-2.79-1.71h4.48a11.553,11.553,0,0,1,1.88.12v-1.22a11.345,11.345,0,0,1-1.88.11h-5.51v-1.82c1.81-.17,3.19-0.34,4.48-0.59,0.88-.17,1.2-0.23,1.39-0.25l-0.85-1.06c-1.73.65-6.8,1.22-10.68,1.22-0.28,0-.76,0-1.35-0.02a2.887,2.887,0,0,1,.48,1.04c2.22-.02,3.15-0.06,5.43-0.23v1.71Zm-5.28,7.89a11.325,11.325,0,0,1-1.9-.12v1.24a12.642,12.642,0,0,1,1.92-.12h5.53v2.32c0,0.4-.19.51-0.92,0.51a15.364,15.364,0,0,1-2.43-.22,3.719,3.719,0,0,1,.31,1.17c0.66,0.06,1.57.1,2.14,0.1,1.56,0,2.04-.34,2.04-1.46v-2.42h5.14a12.566,12.566,0,0,1,1.94.12v-1.24a11.934,11.934,0,0,1-1.92.12h-5.16v-0.34a18.639,18.639,0,0,0,4.06-2.51l-0.66-.69a7.191,7.191,0,0,1-1.33.08h-5.74a8.952,8.952,0,0,1-1.71-.1v1.16a10.418,10.418,0,0,1,1.73-.09h5.75a13.093,13.093,0,0,1-2.58,1.46h-0.72a7.317,7.317,0,0,1,.06,1.03h-5.55Zm27.81,4.02a26.991,26.991,0,0,0-2.47-3.98l-0.93.43a15.678,15.678,0,0,1,1.12,1.65,32.438,32.438,0,0,1-3.76.99v-3.45h3.69a10.479,10.479,0,0,1,1.69.07,11.633,11.633,0,0,1-.06-1.73v-2.83a17.863,17.863,0,0,1,.06-1.8,13.446,13.446,0,0,1-1.75.07h-3.06a12.615,12.615,0,0,1-1.71-.07c0.04,0.45.06,0.87,0.06,1.99v7.96a8.553,8.553,0,0,1-1.35.17l0.4,1.28a8.521,8.521,0,0,1,1.08-.31c2.19-.55,3.44-0.91,4.43-1.23,0.51-.16.51-0.16,0.78-0.25,0.3,0.59.43,0.85,0.78,1.61Zm-6.04-9.63h4.28v1.6h-4.28v-1.6Zm0,2.53h4.28v1.79h-4.28v-1.79Zm1.66-5.83a11.3,11.3,0,0,1,.72,1.97l1.06-.34a16.062,16.062,0,0,0-.72-1.63h1.42a16.71,16.71,0,0,1,1.73.07v-1.16a8.6,8.6,0,0,1-1.8.12h-3.35c0.18-.36.18-0.36,0.69-1.43l-1.2-.32a7.723,7.723,0,0,1-.97,2.2,10.561,10.561,0,0,1-1.97,2.44,3.529,3.529,0,0,1,.95.64,11.934,11.934,0,0,0,1.95-2.56h1.49Zm7.44-.02a9.694,9.694,0,0,1,.78,1.99l1.06-.36a10,10,0,0,0-.77-1.63h1.88a16.246,16.246,0,0,1,1.93.09v-1.17a11.447,11.447,0,0,1-1.93.11h-4.11c0.23-.51.35-0.74,0.59-1.37l-1.16-.32a9.149,9.149,0,0,1-2.35,4.24,4.159,4.159,0,0,1,.93.57,13.228,13.228,0,0,0,1.48-2.15h1.67Zm4.24,4.23c0-.81.02-1.33,0.06-1.91a19.377,19.377,0,0,1-1.96.07h-2.6c-0.61,0-1.24-.02-1.73-0.07,0.04,0.51.05,0.81,0.05,2.05v7.69a13.055,13.055,0,0,1-.11,1.9h1.33a12.713,12.713,0,0,1-.09-1.94v-8.66h3.93v6.86c0,0.63-.12.76-0.63,0.76a12.377,12.377,0,0,1-1.92-.19,3.354,3.354,0,0,1,.29,1.21c0.64,0.04,1.19.08,1.55,0.08,1.45,0,1.83-.36,1.83-1.71v-6.14Zm8.8,0.54a13.472,13.472,0,0,1,2.64,2.41,15.611,15.611,0,0,1-5.28,5.64,3.252,3.252,0,0,1,.89.99,17.144,17.144,0,0,0,7.28-11.65,11.525,11.525,0,0,0,2.52,3.84v5.64a15.942,15.942,0,0,1-.13,2.23h1.41a14.368,14.368,0,0,1-.12-2.23v-4.59a15.1,15.1,0,0,0,3.74,2.56,7.067,7.067,0,0,1,.76-1.16,15.383,15.383,0,0,1-4.5-2.87v-6.21a11.32,11.32,0,0,1,.12-1.9h-1.41a12.985,12.985,0,0,1,.13,1.9v5.13a11.06,11.06,0,0,1-2.24-3.99c0.04-.21.06-0.28,0.1-0.51a14,14,0,0,1-1.45.06h-2.85c0.23-.67.36-1.03,0.5-1.45a8.183,8.183,0,0,1,.36-1.02l-1.31-.27a13.766,13.766,0,0,1-.57,2.28,16.064,16.064,0,0,1-3.75,6.19,2.923,2.923,0,0,1,.8.95,18.185,18.185,0,0,0,3.57-5.64h3.44a22.459,22.459,0,0,1-1.5,5.03,16.161,16.161,0,0,0-2.49-2.22Zm22.97,1.27a6.764,6.764,0,0,0,.53-0.51,21.334,21.334,0,0,1,1.86-1.64c1.73-1.35,2.76-1.88,3.63-1.88,0.67,0,.93.46,0.93,1.62,0,0.47-.04,1.38-0.15,3.06-0.11,1.8-.17,2.96-0.17,3.49,0,1.46.68,2.2,2.01,2.2a4.243,4.243,0,0,0,2.34-.74,1.191,1.191,0,0,0,.68-0.72,1.08,1.08,0,0,0-.05-0.25,2.315,2.315,0,0,1-.18-1.1,3.731,3.731,0,0,1-2.66,1.52c-0.64,0-.87-0.32-0.87-1.21,0-.36.06-1.54,0.13-2.74,0.16-2.24.23-3.49,0.23-3.72,0-1.77-.68-2.64-2.11-2.64a3.9,3.9,0,0,0-1.8.47,20.916,20.916,0,0,0-2.34,1.6,16.931,16.931,0,0,0-1.97,1.82c0-.13.02-0.66,0.02-0.74a15.106,15.106,0,0,1,1.1-1.61,0.365,0.365,0,0,0,.11-0.21,1.349,1.349,0,0,0-.7-0.71,0.254,0.254,0,0,0-.17.04c-0.12.06-.12,0.06-0.21,0.1a9.583,9.583,0,0,1,.32-2.62,0.729,0.729,0,0,0,.1-0.31c0-.25-0.67-0.42-1.64-0.44,0.04,1.14.04,1.14,0.04,1.75,0,0.29,0,.29-0.04,1.86a22.79,22.79,0,0,1-2.92.31,2.887,2.887,0,0,1-.4-0.02,6.275,6.275,0,0,0,.17.97c0.09,0.32.15,0.4,0.26,0.4a0.585,0.585,0,0,0,.19-0.04,16.616,16.616,0,0,1,2.66-.53c-0.01,1.14-.03,1.74-0.03,1.82a33.68,33.68,0,0,1-2.74,3.67c-1.03,1.17-1.03,1.17-1.03,1.29a1.147,1.147,0,0,0,.4.57,0.828,0.828,0,0,0,.52.38,0.407,0.407,0,0,0,.3-0.27,30.656,30.656,0,0,1,2.51-3.34c-0.02.36-.02,0.68-0.02,1.16,0,2.87,0,3.08-.02,3.68-0.02.54-.02,1.11-0.02,1.18,0,0.46.02,0.48,0.51,0.48,0.71,0,.82-0.04.82-0.27v-0.08c-0.07-.85-0.13-2.96-0.13-4.52v-2.58Zm25.12-5.4a5.151,5.151,0,0,1,2.14.5,4.891,4.891,0,0,1,2.91,4.63,5.805,5.805,0,0,1-2.74,4.94,10.272,10.272,0,0,1-2.98,1.26,2.57,2.57,0,0,1,.84.72,0.416,0.416,0,0,0,.32.23,7.7,7.7,0,0,0,2.37-1.09,6.82,6.82,0,0,0,3.5-6c0-3.8-2.74-6.31-6.88-6.31a8.242,8.242,0,0,0-4.88,1.47,7.28,7.28,0,0,0-3.06,6.02,5.913,5.913,0,0,0,.76,3.08,2.609,2.609,0,0,0,2.15,1.29c1.42,0,2.68-1.26,3.78-3.76A25.419,25.419,0,0,0,1113.8,1929.03Zm-1.32.08a22.647,22.647,0,0,1-1.72,6.52c-0.82,1.82-1.68,2.77-2.47,2.77-1.01,0-1.71-1.22-1.71-2.93a6.2,6.2,0,0,1,3.32-5.66A7.134,7.134,0,0,1,1112.48,1929.11Zm22.25,0.4h-3.15a10.807,10.807,0,0,1-1.63-.08,15.47,15.47,0,0,1,.07,1.62v4.2a13.348,13.348,0,0,1-.09,1.9h1.21v-1.09h3.59v3.82a14.409,14.409,0,0,1-.13,2.22h1.41a13.54,13.54,0,0,1-.14-2.22v-3.82h3.95v1.07h1.28a10.689,10.689,0,0,1-.1-1.88v-4.13a12.382,12.382,0,0,1,.08-1.69,12.351,12.351,0,0,1-1.75.08h-3.46v-1.56a12.8,12.8,0,0,1,.14-2.09h-1.41a13.44,13.44,0,0,1,.13,2.07v1.58Zm0,1.06V1935h-3.57v-4.43h3.57Zm1.14,4.43v-4.43h3.95V1935h-3.95Zm-10.08-8.26a16.219,16.219,0,0,1,3.19,2.56l0.72-.99a23.058,23.058,0,0,0-3.17-2.41Zm-0.8,4.63a14.929,14.929,0,0,1,3.34,2.26l0.67-1.06a20.9,20.9,0,0,0-3.37-2.13Zm2.89,4.26a18.951,18.951,0,0,1-1.75,3.89,7.49,7.49,0,0,1-1.07,1.48l1.09,0.95a7.637,7.637,0,0,1,.38-0.7,26.882,26.882,0,0,0,2.31-4.94Zm19.09-.76a5.126,5.126,0,0,1,1.18-.16c0.55-.05.55-0.05,1.5-0.15v5.72a14.458,14.458,0,0,1-.11,2.11h1.25a10.694,10.694,0,0,1-.11-2.11v-5.81c0.58-.06.58-0.06,1.48-0.19a8.449,8.449,0,0,1,.28.85l0.84-.38a19.675,19.675,0,0,0-1.48-3.27l-0.76.33a12.583,12.583,0,0,1,.79,1.63c-0.93.12-1.95,0.21-2.71,0.25,0.78-.97,1.92-2.51,2.3-3.12,1-1.55,1-1.55,1.25-1.88l-1.03-.64a13.738,13.738,0,0,1-1.8,3.11c-0.38-.47-0.55-0.68-0.97-1.16a30.7,30.7,0,0,0,1.62-2.64,6.666,6.666,0,0,1,.58-1l-1.12-.57a12.33,12.33,0,0,1-1.74,3.47c-0.29-.3-0.4-0.43-0.78-0.83l-0.61.83a19.612,19.612,0,0,1,2.43,2.76c-0.53.74-.7,0.97-1.31,1.73h-0.34a2.933,2.933,0,0,1-.78-0.06Zm10.39-2.7v1.29h-2.33a13.775,13.775,0,0,1-1.6-.06,9.184,9.184,0,0,1,.06,1.52v3.69a14.819,14.819,0,0,1-.1,1.73h1.1v-1.07h2.87v1.37c0,1.27.42,1.48,2.89,1.48,1.5,0,2.28-.17,2.68-0.55,0.38-.38.53-0.87,0.7-2.3a3.544,3.544,0,0,1-.99-0.55,8,8,0,0,1-.02-1.08v-2.7a11.885,11.885,0,0,1,.06-1.54c-0.44.04-.83,0.06-1.54,0.06h-2.77v-1.29h2.22c0.7,0,1.33.02,1.67,0.06-0.02-.19-0.03-0.8-0.05-1.83v-2.35c0-.95.02-1.3,0.05-1.66-0.41.04-.91,0.06-1.69,0.06h-5.13c-0.85,0-1.25-.02-1.74-0.06,0.03,0.44.05,0.71,0.05,1.6v2.47c0,0.93-.02,1.27-0.05,1.77,0.41-.04.93-0.06,1.67-0.06h1.99Zm0-4.83v1.54h-2.62v-1.54h2.62Zm1.01,0h2.83v1.54h-2.83v-1.54Zm-1.01,2.42v1.53h-2.62v-1.53h2.62Zm1.01,0h2.83v1.53h-2.83v-1.53Zm0,9.51h2.72c0.58,0,1.06.02,1.44,0.04-0.15,1.67-.34,1.83-2.41,1.83-1.54,0-1.75-.1-1.75-0.76v-1.11Zm-1.01-4.9v1.45h-2.87v-1.45h2.87Zm1.01,0h3.25v1.45h-3.25v-1.45Zm-1.01,2.34v1.63h-2.87v-1.63h2.87Zm1.01,0h3.25v1.63h-3.25v-1.63Zm-10.49-.95a17.466,17.466,0,0,1-1.06,4.98l0.93,0.45a20.2,20.2,0,0,0,1.1-5.24Zm3.46,0.08a19.593,19.593,0,0,1,.55,4.19l0.93-.26a22.16,22.16,0,0,0-.64-4.12Zm21.76-6.92a35.187,35.187,0,0,1-4.56.55,4.539,4.539,0,0,0,.47,1.35,0.366,0.366,0,0,0,.36.28,0.621,0.621,0,0,0,.32-0.09c0.9-.42,1.96-0.63,8.84-1.8a8.821,8.821,0,0,0-2.24,1.91,7.409,7.409,0,0,0-1.71,4.66c0,2.6,1.31,4.35,3.93,5.3a11.889,11.889,0,0,0,2.2.57,0.245,0.245,0,0,0,.25-0.19,3.824,3.824,0,0,0,.21-1.07,0.177,0.177,0,0,0-.19-0.2,7.193,7.193,0,0,1-2.09-.5c-2-.76-3.02-2.05-3.02-3.85a7.328,7.328,0,0,1,3.8-6.2,6.836,6.836,0,0,1,3.25-.81c0.34,0,.4-0.02.4-0.19a5.581,5.581,0,0,0-.27-1.09,0.282,0.282,0,0,0-.25-0.15,0.342,0.342,0,0,0-.13.02,17.16,17.16,0,0,1-2.07.36Zm7.27,2.77a0.213,0.213,0,0,0,.12.17,7.325,7.325,0,0,1,1.5,1.9,0.22,0.22,0,0,0,.19.16,1.832,1.832,0,0,0,.58-0.42,0.366,0.366,0,0,0,.19-0.25,5.458,5.458,0,0,0-.83-1.14,3.547,3.547,0,0,0-1.03-.91,0.7,0.7,0,0,0-.45.23,1.738,1.738,0,0,1-.15.11A0.268,0.268,0,0,0,1180.37,1931.69Zm2.32-1.61a1.5,1.5,0,0,0-.72.51,0.191,0.191,0,0,0,.07.12,6.106,6.106,0,0,1,1.52,1.9,0.173,0.173,0,0,0,.15.13,0.681,0.681,0,0,0,.35-0.19c0.38-.25.43-0.29,0.43-0.4A5.663,5.663,0,0,0,1182.69,1930.08Zm-166.21,30.58a3.036,3.036,0,0,0-1.43,2.77c0,1.03.44,1.62,1.18,1.62a1.03,1.03,0,0,0,1.05-1.07,0.979,0.979,0,0,0-.95-1.04,2.861,2.861,0,0,0-.33.04,2,2,0,0,1,1.12-1.73Zm-3.08,0a3.029,3.029,0,0,0-1.42,2.77c0,1.03.43,1.62,1.17,1.62a1.03,1.03,0,0,0,1.05-1.07,0.991,0.991,0,0,0-.95-1.04,2.506,2.506,0,0,0-.32.04,2.046,2.046,0,0,1,1.12-1.73Zm14.93,12.08a11.477,11.477,0,0,1-.09,1.79h1.12v-1.35h4.37c0.49,0,.93.02,1.48,0.06-0.04-.48-0.06-0.84-0.06-1.52v-5a9.605,9.605,0,0,1,.08-1.56h-1.16a11.154,11.154,0,0,1,.08,1.52v5.51h-4.79v-5.3a9.35,9.35,0,0,1,.08-1.52h-1.11a11.99,11.99,0,0,0,1.5-2.26h6.84a82.716,82.716,0,0,1-.53,10.24c-0.23,1.54-.34,1.67-1.29,1.67a7.535,7.535,0,0,1-1.84-.23,5.63,5.63,0,0,1,.28,1.22,12.764,12.764,0,0,0,1.58.11c1.46,0,1.94-.38,2.24-1.84a75.184,75.184,0,0,0,.67-11.13,9.857,9.857,0,0,1,.05-1.18,9.75,9.75,0,0,1-1.48.08h-6c0.19-.46.36-0.88,0.47-1.18s0.23-.63.29-0.78l-1.2-.3a7.391,7.391,0,0,1-.44,1.69,9.16,9.16,0,0,1-2.47,3.78,1.574,1.574,0,0,1,.59.93c0.4-.4.48-0.5,0.69-0.74a13.765,13.765,0,0,1,.05,1.5v5.79Zm5.65-2.33a26.406,26.406,0,0,0-1.52-2.4,17.143,17.143,0,0,0,1-3.7l-0.97-.21a11.818,11.818,0,0,1-.66,3.09c-0.48-.62-0.74-0.93-1.48-1.78l-0.72.57a26.112,26.112,0,0,1,1.84,2.18,10.593,10.593,0,0,1-1.94,3.01,2.821,2.821,0,0,1,.7.72,11.925,11.925,0,0,0,1.81-2.89,14.58,14.58,0,0,1,1.25,2.24Zm-8.06-.06v4.04c0,0.56-.09.67-0.53,0.67a6.106,6.106,0,0,1-1.41-.19,3.182,3.182,0,0,1,.23,1.16c0.5,0.04.72,0.06,1.07,0.06,1.36,0,1.69-.29,1.69-1.54v-12.33a14.085,14.085,0,0,1,.05-1.81,10.216,10.216,0,0,1-1.5.08h-1.21a11.958,11.958,0,0,1-1.54-.08c0.05,0.57.07,1.2,0.07,2.38,0,8.58-.2,10.69-1.31,12.74a4.508,4.508,0,0,1,.9.9c0.81-1.56,1.15-3.1,1.34-6.08h2.15Zm0-5.38h-2.03l0.02-.87v-2.59h2.01v3.46Zm0,0.99v3.38h-2.09c0.04-.76.04-0.76,0.06-3.38h2.03Zm30.82-2.77a14.088,14.088,0,0,1-4.2,4.04,2.749,2.749,0,0,1,1.04.67,0.23,0.23,0,0,0,.19.09c0.35,0,2.32-1.84,3.37-3.11a3.85,3.85,0,0,1,1.25-1.31,0.335,0.335,0,0,0,.23-0.31,2.231,2.231,0,0,0-.48-0.89,0.959,0.959,0,0,0-.68-0.53,0.779,0.779,0,0,0-.21.04,3.82,3.82,0,0,1-.97.11c-2.45.02-6.4,0.04-6.99,0.04a37.275,37.275,0,0,1-4.94-.17,7.366,7.366,0,0,0,.19,1.25,0.311,0.311,0,0,0,.32.32,0.948,0.948,0,0,0,.21-0.02,18.063,18.063,0,0,1,2.63-.17Zm-6.63,1.72a10.763,10.763,0,0,1,.04,1.3,10.975,10.975,0,0,1-1.41,5.3,8.132,8.132,0,0,1-3.88,3.19,2.672,2.672,0,0,1,.76.51,0.6,0.6,0,0,0,.42.31,4.394,4.394,0,0,0,1.18-.63,9.159,9.159,0,0,0,3.78-5.28,23.9,23.9,0,0,0,.53-2.85,3.3,3.3,0,0,1,.19-1.01,0.86,0.86,0,0,0,.12-0.4c0-.15-0.1-0.21-0.46-0.28A8.178,8.178,0,0,0,1050.11,1964.91Zm20.18-2.43a0.331,0.331,0,0,0,.09.21,15.2,15.2,0,0,1,1.43,2.85c0.32,0.95.32,0.95,0.47,0.95a2.827,2.827,0,0,0,.8-0.34c0.25-.15.3-0.21,0.3-0.34a10.408,10.408,0,0,0-1.02-2.4c-0.67-1.23-.93-1.57-1.1-1.57a1.787,1.787,0,0,0-.67.32A0.518,0.518,0,0,0,1070.29,1962.48Zm7.75-.07a11.785,11.785,0,0,1-1.33,4.01,18.711,18.711,0,0,1-7.89,8.26,3.464,3.464,0,0,1,1.01.66,0.409,0.409,0,0,0,.27.12c0.43,0,2.83-1.83,4.12-3.16a21.281,21.281,0,0,0,4.27-6.4c0.9-2.03.9-2.03,1.14-2.3a0.326,0.326,0,0,0,.15-0.24C1079.8,1963.11,1079.12,1962.73,1078.04,1962.41Zm-11.5.49a1.339,1.339,0,0,0-.51.25,0.761,0.761,0,0,0-.46.42,0.681,0.681,0,0,0,.1.19,14.18,14.18,0,0,1,1.98,3.66,0.229,0.229,0,0,0,.2.21,1.484,1.484,0,0,0,.61-0.25,0.664,0.664,0,0,0,.48-0.43,12.005,12.005,0,0,0-1.12-2.34A5.3,5.3,0,0,0,1066.54,1962.9Zm19.56,2.24a3.049,3.049,0,0,0,1.42-2.77c0-1.05-.42-1.62-1.2-1.62a1.017,1.017,0,0,0-1.04,1.07,0.979,0.979,0,0,0,.95,1.02c0.04,0,.17-0.01.32-0.03a2.025,2.025,0,0,1-1.1,1.73Zm3.05,0a3.047,3.047,0,0,0,1.43-2.77c0-1.05-.42-1.62-1.18-1.62a1.011,1.011,0,0,0-1.04,1.07,0.973,0.973,0,0,0,.95,1.02c0.03,0,.17-0.01.32-0.03a2.02,2.02,0,0,1-1.1,1.73Zm10.19,8.06a27.06,27.06,0,0,1-.19-3.19,26.45,26.45,0,0,1,.83-6.25,4.1,4.1,0,0,1,.46-1.26,0.874,0.874,0,0,0,.13-0.32c0-.19-0.62-0.46-1.61-0.67a14.693,14.693,0,0,1-.29,2.13,32.71,32.71,0,0,0-.68,6.33,19.622,19.622,0,0,0,.61,5.09,0.324,0.324,0,0,0,.4.27,2.454,2.454,0,0,0,.77-0.08,0.666,0.666,0,0,0,.14-0.38,19.081,19.081,0,0,1,.97-2.95,1.81,1.81,0,0,0,.26-0.72,0.381,0.381,0,0,0-.07-0.22,2.678,2.678,0,0,1-.4-0.76c-0.12.24-.12,0.24-0.55,1.25Zm4.56-1.79a2.062,2.062,0,0,0-.91.74,3.469,3.469,0,0,0,1.02,1.41c0.87,0.74,2,1.02,3.99,1.02a16.471,16.471,0,0,0,2.94-.28c0.37-.06.4-0.1,0.4-0.23a8.41,8.41,0,0,0-.13-1.08,0.131,0.131,0,0,0-.15-0.13,0.487,0.487,0,0,0-.12.01,13.007,13.007,0,0,1-3.13.4C1105.66,1973.27,1104.56,1972.74,1103.9,1971.41Zm0.28-8.32c-0.17,0-.25.21-0.25,0.7v0.31c0.02,0.15.04,0.21,0.14,0.23a17.065,17.065,0,0,0,2.7.19,27.593,27.593,0,0,0,3.53-.25c0.21-.04.25-0.1,0.25-0.27a5.544,5.544,0,0,0-.08-0.93,0.137,0.137,0,0,0-.15-0.13,0.318,0.318,0,0,0-.13.02,20.373,20.373,0,0,1-3.5.3,18.177,18.177,0,0,1-2.19-.13C1104.35,1963.11,1104.24,1963.09,1104.18,1963.09Zm17.75,1.62a25.775,25.775,0,0,1-2.53,5.33,11.878,11.878,0,0,1-1.04,1.49,0.563,0.563,0,0,0-.17.34,1.963,1.963,0,0,0,1,.76c0.19,0,.53-0.46,1.12-1.48a39.314,39.314,0,0,0,3.01-6.63c0.77-.12,2.16-0.36,2.83-0.5,0.09-.02.15-0.04,0.17-0.04,0.34-.07.4-0.11,0.4-0.26a0.524,0.524,0,0,0-.02-0.17c0-.06-0.02-0.15-0.04-0.31-0.06-.45-0.1-0.57-0.23-0.57a0.257,0.257,0,0,0-.15.04,20.951,20.951,0,0,1-2.58.57,9.2,9.2,0,0,1,.77-2.34,0.645,0.645,0,0,0,.12-0.28c0-.1-0.04-0.13-0.31-0.23a9.446,9.446,0,0,0-1.38-.32,10.9,10.9,0,0,1-.59,3.38c-1.01.11-2.3,0.21-2.97,0.21-0.17,0-.76-0.02-1.06-0.02a5.949,5.949,0,0,0,.17,1.08c0.04,0.14.08,0.15,0.34,0.15,0.14,0,.31,0,0.61-0.01,0.19-.02.36-0.02,0.46-0.04C1120.54,1964.84,1120.69,1964.82,1121.93,1964.71Zm5.41,1.52a8.077,8.077,0,0,1,.1,1.21c0.04,1.27.09,2.32,0.19,3.65a6.951,6.951,0,0,0-1.67-.19c-1.88,0-3.25,1.1-3.25,2.62,0,1.41,1.23,2.36,3.07,2.36,1.49,0,2.49-.55,2.89-1.6a3.753,3.753,0,0,0,.23-1.5,9.959,9.959,0,0,1,2.47,1.67,0.483,0.483,0,0,0,.29.19,1.681,1.681,0,0,0,.68-1.04,1.7,1.7,0,0,0-.84-0.76,11.7,11.7,0,0,0-2.64-1.43c-0.11-1.37-.17-2.43-0.17-3.34a4.121,4.121,0,0,1,.13-1.22,0.54,0.54,0,0,0,.06-0.24C1128.88,1966.4,1128.58,1966.34,1127.34,1966.23Zm0.31,6.11a2.218,2.218,0,0,1,.02.27c0,1.44-.61,2.09-1.96,2.09-1.16,0-1.84-.48-1.84-1.27,0-.86.83-1.41,2.12-1.41A4.029,4.029,0,0,1,1127.65,1972.34Zm1.16-7.82a0.288,0.288,0,0,0,.19.21,10.1,10.1,0,0,1,3.19,1.97,0.676,0.676,0,0,0,.22.13,0.424,0.424,0,0,0,.31-0.26,2.554,2.554,0,0,0,.4-0.76v-0.02c0-.34-2.98-2.11-3.59-2.13a0.217,0.217,0,0,1-.1-0.02,1.05,1.05,0,0,0-.32.34c-0.04.08-.1,0.14-0.13,0.21A0.932,0.932,0,0,0,1128.81,1964.52Zm12.67-2.99c0.08,0.88.28,1.52,0.49,1.52a0.609,0.609,0,0,0,.19-0.03c0.4-.14,1.64-0.31,5.46-0.82a75,75,0,0,1-6.54,7.22,9.915,9.915,0,0,1-1.33,1.18,0.3,0.3,0,0,0-.17.22,2.278,2.278,0,0,0,1.03,1.05,0.468,0.468,0,0,0,.32-0.25,9.516,9.516,0,0,1,6.76-3.65c2.09,0,3.35,1.11,3.35,2.93a3.492,3.492,0,0,1-.46,1.71,3.839,3.839,0,0,1-1.75,1.5c-0.68-1.77-1.78-2.64-3.34-2.64-1.48,0-2.55.85-2.55,2.07a1.967,1.967,0,0,0,.57,1.39,3.885,3.885,0,0,0,2.83.87,6.764,6.764,0,0,0,4.79-1.71,4.269,4.269,0,0,0,1.25-3.11c0-2.46-1.74-4.09-4.42-4.09a6.258,6.258,0,0,0-2.34.44,6.732,6.732,0,0,0-2.26,1.35c0.65-.71.78-0.82,1.43-1.5,1.21-1.26,2.07-2.17,2.39-2.51a16.324,16.324,0,0,1,2.2-2.22c0.33-.23.36-0.25,0.36-0.38a1.085,1.085,0,0,0-.22-0.52,1.619,1.619,0,0,0-.82-0.83,0.68,0.68,0,0,0-.29.09,3.8,3.8,0,0,1-1.57.38c-1.77.23-3.73,0.42-4.28,0.42C1142.3,1961.61,1141.84,1961.57,1141.48,1961.53Zm6.17,13.04a4.885,4.885,0,0,1-1.46.19c-1.25,0-2.11-.5-2.11-1.24a1.1,1.1,0,0,1,1.31-.97C1146.44,1972.55,1147.18,1973.2,1147.65,1974.57Zm-120.67,21.17h-4.99c-0.76,0-1.33-.02-1.84-0.07a8.98,8.98,0,0,1,.07,1.23v0.97a8.715,8.715,0,0,1-.07,1.25h1.21v-2.29h12.75v2.29h1.21a8.533,8.533,0,0,1-.07-1.25v-0.97a8.062,8.062,0,0,1,.07-1.23c-0.51.05-1.08,0.07-1.84,0.07h-5.3v-0.85a5.243,5.243,0,0,1,.12-1.14h-1.43a5.376,5.376,0,0,1,.11,1.14v0.85Zm-0.09,4.39v3.15h-3.31a9.245,9.245,0,0,1-1.65-.09v1.22a9.351,9.351,0,0,1,1.65-.1h3.31v4.08h-5.11a15.548,15.548,0,0,1-1.96-.11v1.33a13.618,13.618,0,0,1,2-.13h11.87a13.436,13.436,0,0,1,1.96.13v-1.33a15.341,15.341,0,0,1-1.92.11h-5.62v-4.08h3.8a9.106,9.106,0,0,1,1.63.1v-1.22a8.752,8.752,0,0,1-1.63.09h-3.8v-3.15h3.7a13.24,13.24,0,0,1,1.84.11v-1.25a10.874,10.874,0,0,1-1.84.1h-8.23a11.241,11.241,0,0,1-1.84-.1v1.25a13.24,13.24,0,0,1,1.84-.11h3.31Zm6.42,7.35a16.212,16.212,0,0,0-2.32-2.68l-0.93.5a14.345,14.345,0,0,1,2.24,2.73Zm20.73-9.72a18.079,18.079,0,0,1-1.92,5.64,14.867,14.867,0,0,1-5.24,5.58,3.4,3.4,0,0,1,.93.88,15.945,15.945,0,0,0,3.53-3.27,17.73,17.73,0,0,0,2.85-5.24,19.758,19.758,0,0,0,.93-3.59h0.8a65.422,65.422,0,0,1-.61,9.42c-0.23,1.29-.47,1.63-1.25,1.63a9.811,9.811,0,0,1-2.39-.36,3.656,3.656,0,0,1,.32,1.27,15.217,15.217,0,0,0,2.09.19c1.75,0,2.22-.66,2.56-3.64,0.19-1.73.34-4.24,0.42-7.03,0.06-2,.06-2.03.11-2.55a9.1,9.1,0,0,1-1.53.08h-5.63c0.29-.67.38-0.93,0.55-1.41,0.38-1.02.38-1.02,0.5-1.31l-1.28-.26a11.707,11.707,0,0,1-.89,2.85,11.29,11.29,0,0,1-2.24,3.36,3.135,3.135,0,0,1,.93.74,14.878,14.878,0,0,0,1.96-2.98h1.65a12.89,12.89,0,0,1-1.35,3.4,10.377,10.377,0,0,1-3.32,3.51,3.261,3.261,0,0,1,.85.89,12.844,12.844,0,0,0,3.35-3.78,14.606,14.606,0,0,0,1.55-4.02h1.77Zm-9.78.76v4.46a13.6,13.6,0,0,1-3.1.87l0.36,1.3a6.805,6.805,0,0,1,.93-0.36c1.39-.5,1.39-0.5,1.81-0.67v4.31a10.758,10.758,0,0,1-.14,1.9h1.39a13.584,13.584,0,0,1-.13-1.9v-4.75c0.89-.36,1.18-0.49,2.09-0.91v-1.08a20.5,20.5,0,0,1-2.09.87v-4.04h0.85c0.46,0,.74.02,1.14,0.05v-1.17a4.663,4.663,0,0,1-1.14.09h-0.85v-2.28a7.487,7.487,0,0,1,.13-1.52h-1.39a6.782,6.782,0,0,1,.14,1.52v2.28h-1.31c0.05-.4.09-0.66,0.15-1.2a7.328,7.328,0,0,1,.11-0.97l-1.18-.19a4.017,4.017,0,0,1,.02.48,12.747,12.747,0,0,1-1.14,5.26,3.83,3.83,0,0,1,1.01.57,14.686,14.686,0,0,0,.84-2.92h1.5Zm27.36-1.49a5.151,5.151,0,0,1,2.14.5,4.891,4.891,0,0,1,2.91,4.63,5.805,5.805,0,0,1-2.74,4.94,10.272,10.272,0,0,1-2.98,1.26,2.57,2.57,0,0,1,.84.72,0.416,0.416,0,0,0,.32.23,7.7,7.7,0,0,0,2.37-1.09,6.82,6.82,0,0,0,3.5-6c0-3.8-2.74-6.31-6.88-6.31a8.242,8.242,0,0,0-4.88,1.47,7.28,7.28,0,0,0-3.06,6.02,5.913,5.913,0,0,0,.76,3.08,2.609,2.609,0,0,0,2.15,1.29c1.42,0,2.68-1.26,3.78-3.76A25.419,25.419,0,0,0,1071.62,1997.03Zm-1.32.08a22.647,22.647,0,0,1-1.72,6.52c-0.82,1.82-1.68,2.77-2.47,2.77-1.01,0-1.71-1.22-1.71-2.93a6.2,6.2,0,0,1,3.32-5.66A7.134,7.134,0,0,1,1070.3,1997.11Zm15.43,3.61a12.428,12.428,0,0,1-1.82-.11v1.23a11.246,11.246,0,0,1,1.82-.11h3.29a13.089,13.089,0,0,1-5.51,3.23,2.069,2.069,0,0,1,.61.96c0.76-.34.97-0.43,1.48-0.7v3.46a11.4,11.4,0,0,1-.11,1.63h1.21v-0.91h3.29v0.74h1.14a9.529,9.529,0,0,1-.08-1.4v-3.19a10.875,10.875,0,0,1,.08-1.49,11.248,11.248,0,0,1-1.52.08h-2.09a13.859,13.859,0,0,0,2.87-2.41h2.77a12.816,12.816,0,0,0,2.98,2.41h-2.16a11.187,11.187,0,0,1-1.54-.08,11.758,11.758,0,0,1,.08,1.49v3.36a9.187,9.187,0,0,1-.1,1.38h1.18v-0.89h3.57v0.89h1.22a9.055,9.055,0,0,1-.12-1.63v-3.42c0.59,0.27.89,0.4,1.65,0.68a5.063,5.063,0,0,1,.65-1.02,13.175,13.175,0,0,1-6.04-3.17h3.67a11.8,11.8,0,0,1,1.8.11v-1.23a12.419,12.419,0,0,1-1.8.11h-7.01c0.57-.8.64-0.91,1.12-1.67l-1.22-.32c-0.04.15-.06,0.2-0.11,0.36-0.02-.33-0.02-0.52-0.02-1.18v-2.13c0-.59.02-1.08,0.05-1.48a11.121,11.121,0,0,1-1.55.07h-2.8a11.953,11.953,0,0,1-1.57-.07,13.377,13.377,0,0,1,.07,1.5v1.99a12.677,12.677,0,0,1-.07,1.43,13.132,13.132,0,0,1,1.56-.08h2.81a13.5,13.5,0,0,1,1.48.04,6.61,6.61,0,0,1-1.01,1.54h-4.2Zm0.52-5.41h3.64v2.92h-3.64v-2.92Zm0.45,9.76h3.29v3.36h-3.29v-3.36Zm6.9,0h3.57v3.36h-3.57v-3.36Zm5.09-9.27a10.48,10.48,0,0,1,.08-1.5,12.384,12.384,0,0,1-1.58.07h-3a11.617,11.617,0,0,1-1.56-.07,10.416,10.416,0,0,1,.08,1.46v2.15a8.949,8.949,0,0,1-.08,1.31,11.538,11.538,0,0,1,1.58-.08h3a13.243,13.243,0,0,1,1.56.08,10.148,10.148,0,0,1-.08-1.43v-1.99Zm-4.9-.49h3.82v2.92h-3.82v-2.92Zm20.52,6.87c-0.31-1.37-.93-1.95-2.09-1.95a4.42,4.42,0,0,0-2.55.89,12.283,12.283,0,0,0,2.24-3.25c1.79-.21,2.09-0.25,4.03-0.61,0.57-.11.63-0.13,0.63-0.34a4.93,4.93,0,0,0-.11-0.8,0.209,0.209,0,0,0-.19-0.19,2.12,2.12,0,0,0-.33.06,25.194,25.194,0,0,1-3.46.68,6.492,6.492,0,0,1,.75-1.61,0.576,0.576,0,0,0,.15-0.31c0-.24-0.5-0.43-1.6-0.6a6.81,6.81,0,0,1-.68,2.68c-0.72.07-1.84,0.13-2.49,0.13-0.78,0-1.24-.02-1.92-0.06a4.248,4.248,0,0,0,.1.99,0.305,0.305,0,0,0,.38.27c0.98,0,2.24-.06,3.36-0.14a12.51,12.51,0,0,1-2.83,3.57,15.216,15.216,0,0,1-1.33,1.07,0.383,0.383,0,0,0-.23.26,1.7,1.7,0,0,0,.78,1.01,0.506,0.506,0,0,0,.32-0.17,10.277,10.277,0,0,1,1.81-1.46,5.255,5.255,0,0,1,2.88-1.07c0.71,0,1.07.46,1.26,1.58-3.36,1.9-4.26,2.81-4.26,4.35a2.205,2.205,0,0,0,1.47,2.17,8.634,8.634,0,0,0,3.38.45c1.4,0,3.53-.07,4.42-0.17,0.44-.04.48-0.08,0.48-0.34a5.429,5.429,0,0,0-.08-0.89,0.256,0.256,0,0,0-.23-0.27,0.234,0.234,0,0,0-.11.02,26.1,26.1,0,0,1-4.75.42c-2.34,0-3.32-.42-3.32-1.43,0-.99.79-1.8,2.92-2.94a1.116,1.116,0,0,0,.17-0.12v0.73c0,0.41,0,.7-0.02.89-0.02.36-.02,0.61-0.02,0.76,0,0.24.06,0.28,0.38,0.28a1.937,1.937,0,0,0,.82-0.11,1.231,1.231,0,0,0,.08-0.86c0-.62-0.02-1.63-0.06-2.31a40.9,40.9,0,0,1,5.43-2.47,0.342,0.342,0,0,0,.33-0.29,4.55,4.55,0,0,0-.93-1.4,11.436,11.436,0,0,1-2.74,1.71Zm21.22,1.39a12.7,12.7,0,0,1-5.22,4.31,3.246,3.246,0,0,1,.8.97,14.075,14.075,0,0,0,5.07-4.63,12.677,12.677,0,0,0-.08,1.5v2.9a10.807,10.807,0,0,1-.11,1.69h1.31a7.745,7.745,0,0,1-.12-1.69v-2.87a12.2,12.2,0,0,0-.07-1.53,13.092,13.092,0,0,0,5.28,4.73,4.8,4.8,0,0,1,.72-1.09,12.551,12.551,0,0,1-3.27-1.97,11.994,11.994,0,0,1-2.2-2.32H1141a12.372,12.372,0,0,1,1.62.09v-1.21a11.33,11.33,0,0,1-1.66.11h-3.78v-0.72a7.189,7.189,0,0,1,.1-1.48h-1.29a7.491,7.491,0,0,1,.11,1.58v0.62h-2.96a15.563,15.563,0,0,1-1.75-.09v1.19a11.921,11.921,0,0,1,1.67-.09h2.47Zm-7.01-6.06h-0.89a8.544,8.544,0,0,1-1.37-.11v1.21a9.585,9.585,0,0,1,1.35-.07h0.91v3.91a12.451,12.451,0,0,1-2.39.8l0.36,1.23c0.17-.09.83-0.38,2.03-0.87v5.13c0,0.32-.17.43-0.63,0.43a6,6,0,0,1-1.27-.11,4.342,4.342,0,0,1,.27,1.16c0.32,0.02.47,0.02,0.66,0.02,1.67,0,2.11-.29,2.11-1.33v-5.8c0.76-.36,1.03-0.49,1.84-0.91l-0.09-1.04c-0.82.41-1.08,0.55-1.75,0.83v-3.45h0.36a7.359,7.359,0,0,1,1.22.07v-1.18a6.64,6.64,0,0,1-1.24.08h-0.34v-1.79a11.6,11.6,0,0,1,.12-1.82h-1.37a13.881,13.881,0,0,1,.11,1.84v1.77Zm6.4-1.79c-0.07,2.53-.97,3.75-3.28,4.52a3.292,3.292,0,0,1,.78.94,5.773,5.773,0,0,0,2.67-2.11,6.288,6.288,0,0,0,.9-3.35h1.59v3.56c0,0.93.4,1.12,2.36,1.12,2.37,0,2.6-.19,2.79-2.21a2.614,2.614,0,0,1-.99-0.32c-0.03,1.46-.09,1.52-1.63,1.52-1.27,0-1.48-.06-1.48-0.4v-3.27h2.51v1.71h1.15a9.491,9.491,0,0,1-.05-1.02v-0.61a11.167,11.167,0,0,1,.05-1.14c-0.45.04-.87,0.06-1.63,0.06h-7.45c-0.76,0-1.14-.02-1.61-0.06a8.915,8.915,0,0,1,.06,1.16v0.8a9.461,9.461,0,0,1-.06,1.14h1.12v-2.04h2.2Zm16.95-1.29a9.282,9.282,0,0,1,.1,1.48v0.55c-0.04,1.14-.19,8.72-0.19,9.2,0,2.83,1.16,4.16,3.64,4.16a8.331,8.331,0,0,0,4.89-1.62c1.17-.83,2.43-2.14,2.43-2.54a0.449,0.449,0,0,0-.08-0.23,3.565,3.565,0,0,1-.4-1.16,9.916,9.916,0,0,1-3.04,3.08,6.856,6.856,0,0,1-3.72,1.12c-1.79,0-2.43-.78-2.43-2.89,0-1.27.17-6.51,0.27-8.32a8.4,8.4,0,0,1,.28-2.07,0.882,0.882,0,0,0,.06-0.28c0-.19-0.08-0.25-0.36-0.31A11.171,11.171,0,0,0,1151.87,1994.43Zm19.33,12.77a27.06,27.06,0,0,1-.19-3.19,26.45,26.45,0,0,1,.83-6.25,4.1,4.1,0,0,1,.46-1.26,0.874,0.874,0,0,0,.13-0.32,2.486,2.486,0,0,0-1.61-.67,14.693,14.693,0,0,1-.29,2.13,31.945,31.945,0,0,0-.68,6.33,20.072,20.072,0,0,0,.6,5.09,0.334,0.334,0,0,0,.4.27,2.538,2.538,0,0,0,.78-0.08,0.666,0.666,0,0,0,.14-0.38,20.106,20.106,0,0,1,.96-2.95,1.75,1.75,0,0,0,.27-0.72,0.333,0.333,0,0,0-.08-0.22,2.876,2.876,0,0,1-.39-0.76c-0.12.24-.12,0.24-0.56,1.25Zm4.55-1.79a2.132,2.132,0,0,0-.91.74,3.416,3.416,0,0,0,1.03,1.41c0.87,0.74,1.99,1.02,3.99,1.02a16.561,16.561,0,0,0,2.94-.28c0.36-.06.4-0.1,0.4-0.23a8.41,8.41,0,0,0-.13-1.08,0.131,0.131,0,0,0-.15-0.13,0.487,0.487,0,0,0-.12.01,13.007,13.007,0,0,1-3.13.4C1177.52,2007.27,1176.42,2006.74,1175.75,2005.41Zm0.29-8.32c-0.17,0-.25.21-0.25,0.7v0.31c0.02,0.15.04,0.21,0.14,0.23a17.018,17.018,0,0,0,2.69.19,27.76,27.76,0,0,0,3.54-.25,0.224,0.224,0,0,0,.24-0.27,5.693,5.693,0,0,0-.07-0.93,0.137,0.137,0,0,0-.15-0.13,0.39,0.39,0,0,0-.14.02,20.254,20.254,0,0,1-3.49.3,17.924,17.924,0,0,1-2.19-.13C1176.21,1997.11,1176.1,1997.09,1176.04,1997.09Z" transform="translate(-1011.97 -1925.69)"/>
</svg>
