<svg xmlns="http://www.w3.org/2000/svg" width="78" height="33.031" viewBox="0 0 78 33.031">
  <defs>
    <style>
      .cls-1 {
        fill: #ef3f00;
        fill-rule: evenodd;
      }
    </style>
  </defs>
  <path id="bms_logo.svg" class="cls-1" d="M399.691,189.882h6.821a21.649,21.649,0,0,1,1.476-7.208A63.282,63.282,0,0,0,400.883,184,17.128,17.128,0,0,0,399.691,189.882Zm1.1,7.432a63.164,63.164,0,0,0,7.165,1.343,21.928,21.928,0,0,1-1.437-7.138h-6.831a17.226,17.226,0,0,0,1.1,5.795h0Zm5.641,6.417a16.866,16.866,0,0,0,6.033,1.947,20.131,20.131,0,0,1-2.075-2.467,20.593,20.593,0,0,1-1.673-2.808,62.814,62.814,0,0,1-6.986-1.172,12.51,12.51,0,0,0,4.7,4.5h0Zm8.347,1.872a17.556,17.556,0,0,0,3.19-3.421q0.558-.781,1.033-1.6c-1.358.1-2.76,0.162-4.2,0.162s-2.836-.059-4.189-0.162q0.468,0.822,1.02,1.608a17.358,17.358,0,0,0,3.142,3.414h0Zm-12.906-23.531a62.846,62.846,0,0,1,6.9-1.142,20.965,20.965,0,0,1,3.584-5.113,16.777,16.777,0,0,0-5.917,1.946,12.605,12.605,0,0,0-4.565,4.311v0Zm25.122-3.465a14.05,14.05,0,0,1,2.817,3.931c1.186,0.3,2.209.6,3.042,0.858a15.413,15.413,0,0,0-1.1-1.259,18.962,18.962,0,0,0-4.764-3.527v0Zm4.525,11.273h3.966a11.47,11.47,0,0,0-1.234-4.294q-1.81-.641-3.665-1.142a19.47,19.47,0,0,1,.932,5.438v0ZM414.8,199.106q2.543,0,5.075-.248a19.687,19.687,0,0,0,1.67-7.339H408.105a19.924,19.924,0,0,0,1.643,7.339c1.62,0.156,3.315.249,5.056,0.249h0Zm5-16.643c-1.6-.147-3.265-0.236-4.98-0.236-1.731,0-3.417.091-5.028,0.246a19.684,19.684,0,0,0-1.691,7.409h13.446a19.215,19.215,0,0,0-1.748-7.419h0Zm-5.082-6.671a18.414,18.414,0,0,0-3.106,3.471q-0.5.729-.941,1.487c1.343-.1,2.73-0.158,4.152-0.158,1.4,0,2.758.055,4.073,0.15q-0.447-.756-0.959-1.471A18.551,18.551,0,0,0,414.72,175.792Zm13.15,23.459a64.849,64.849,0,0,1-6.966,1.154,20.367,20.367,0,0,1-3.8,5.281,16.842,16.842,0,0,0,6.084-1.955A12.519,12.519,0,0,0,427.87,199.251Zm-25.281,3.62a14,14,0,0,1-2.916-4.137q-1.572-.41-3.122-0.9a15.373,15.373,0,0,0,1.3,1.532A18.976,18.976,0,0,0,402.589,202.871Zm30.46-4.994c-0.853.264-1.9,0.572-3.124,0.883a14,14,0,0,1-2.953,4.158,18.965,18.965,0,0,0,4.746-3.485,15.269,15.269,0,0,0,1.33-1.554v0Zm-34.958-6.358h-3.973a11.45,11.45,0,0,0,1.113,4.133c0.683,0.247,1.968.689,3.707,1.175A19.5,19.5,0,0,1,398.091,191.519Zm33.43,0a19.547,19.547,0,0,1-.856,5.343q1.869-.505,3.7-1.145a11.375,11.375,0,0,0,1.125-4.2h-3.967Zm-12.347-13.278a21.234,21.234,0,0,1,1.639,2.673,63.312,63.312,0,0,1,6.91,1.127,12.6,12.6,0,0,0-4.544-4.279,16.773,16.773,0,0,0-5.912-1.947l-0.149-.013A21.089,21.089,0,0,1,419.174,178.241Zm10.744,11.641a17.134,17.134,0,0,0-1.208-5.921,63.781,63.781,0,0,0-7.1-1.3,21.12,21.12,0,0,1,1.525,7.221h6.782Zm0.006,1.637h-6.79a21.618,21.618,0,0,1-1.458,7.138,64.678,64.678,0,0,0,7.134-1.318,17.18,17.18,0,0,0,1.118-5.82h0ZM398.1,189.882a19.51,19.51,0,0,1,.916-5.392q-1.878.517-3.714,1.172a11.5,11.5,0,0,0-1.175,4.22H398.1Zm-1.432-6.412q1.546-.49,3.118-0.9a14.081,14.081,0,0,1,2.918-4.042A18.037,18.037,0,0,0,396.665,183.47Zm66.379,1.624a0.634,0.634,0,0,1-.279.169,5.042,5.042,0,0,1-.824-0.035,1,1,0,0,0-.735.214,46.153,46.153,0,0,1-4.375,4.085c-0.546.444-1.19-.46-1.885-0.7a0.287,0.287,0,0,0-.4.079,0.293,0.293,0,0,0-.034.251,2.724,2.724,0,0,0,.446,1.228c0.183,0.363.427,0.866,0.8,0.693a37.126,37.126,0,0,0,8.261-4.925c0.918-.732.778-1.236,0.529-1.412a1.264,1.264,0,0,0-1.507.359v0Zm-26,20.072h-0.41v-1.108h0.384c0.479,0,.679.161,0.679,0.544a0.53,0.53,0,0,1-.476.578A0.5,0.5,0,0,1,437.043,205.166Zm-0.41-2.756h0.372c0.447,0,.6.121,0.6,0.475s-0.167.485-.575,0.485h-0.4v-0.96m1.2,1.269a0.845,0.845,0,0,0,.565-0.888,1.02,1.02,0,0,0-.934-1.1,1.041,1.041,0,0,0-.216.007h-1.382v4.176h1.353a1.092,1.092,0,0,0,1.26-.9,1.1,1.1,0,0,0,.011-0.287,0.972,0.972,0,0,0-.657-1.015m4.7-1.978h-2.366v4.176h2.369v-0.719h-1.6v-1.15h1.41v-0.7h-1.41v-0.9h1.6V201.7Zm3.07,1.01,0.346,1.594h-0.694Zm0.44-1.01h-0.882l-1.071,4.176h0.8L445.1,205h1.007l0.2,0.874h0.812l-1.081-4.176m6.044,0v4.176h-0.739V203.56l-0.6,2.316h-0.627l-0.616-2.313v2.313h-0.737V201.7h0.949l0.719,2.8,0.709-2.8h0.946Zm4.416,1.224v-0.037a1.168,1.168,0,0,0-1.031-1.29,1.086,1.086,0,0,0-.228,0,1.224,1.224,0,0,0-1.323,1.118,1.358,1.358,0,0,0,0,.143,1.183,1.183,0,0,0,.934,1.16l0.485,0.193a0.576,0.576,0,0,1,.447.544,0.529,0.529,0,0,1-.538.52h-0.024a0.6,0.6,0,0,1-.621-0.583,0.616,0.616,0,0,1,.017-0.166h-0.79v0.116a1.252,1.252,0,0,0,1.148,1.346,1.189,1.189,0,0,0,.231,0,1.27,1.27,0,0,0,1.366-1.171,1.254,1.254,0,0,0,0-.137,1.206,1.206,0,0,0-.97-1.2l-0.464-.181a0.536,0.536,0,0,1-.433-0.507,0.478,0.478,0,0,1,.481-0.474l0.038,0a0.53,0.53,0,0,1,.548.512c0,0.023,0,.046,0,0.068v0.038h0.734Zm-12.738-26.417c4.789,0.526,8.542,1.666,10.571,3.211a3.471,3.471,0,0,1,1.511,2.145,2.523,2.523,0,0,1,.022.325c0,3.31-6.967,8.012-17.361,11.012a25.832,25.832,0,0,0,3.877-2.025c3.544-2.274,5.418-4.983,5.141-7.429a5.71,5.71,0,0,0-2.287-3.7,17.458,17.458,0,0,0-7.554-3.143,31.256,31.256,0,0,0-4.733-.552,61.309,61.309,0,0,1,10.813.155h0Zm23.243,3.555a4.638,4.638,0,0,0-1.986-2.969c-5.54-4.2-21.827-5.333-38.732-2.7q-1.974.306-3.914,0.677a26.441,26.441,0,0,1,2.73.891,24.058,24.058,0,0,1,3.771,1.862c7.212-.528,12.918,1.223,15.517,3.335a4.361,4.361,0,0,1,1.78,2.763,3.009,3.009,0,0,1,.019.315c0,1.8-1.663,3.927-4.533,5.765a25.23,25.23,0,0,1-4.645,2.309,13.156,13.156,0,0,1-1.4,4.5,101.716,101.716,0,0,0,18.093-5.389l-0.572-1.463a90.459,90.459,0,0,1-11.193,3.733,50.7,50.7,0,0,0,7.567-3.232c5.408-2.9,8.162-6.026,7.761-8.809a4.869,4.869,0,0,0-2.078-3.119c-3.189-2.427-9.578-3.769-17.127-3.817a92.381,92.381,0,0,1,12.113.063c6.5,0.493,11.574,1.8,13.933,3.589A3.16,3.16,0,0,1,465.5,180.3a3.6,3.6,0,0,1-1.073,2.672l1.168,1.016a5.07,5.07,0,0,0,1.419-3.926M391.921,193.9a3.144,3.144,0,0,1-1.378-1.932c-0.162-1.1.638-2.432,2.23-3.857a13.058,13.058,0,0,1,.861-2.672c-3.309,2.344-4.915,4.665-4.6,6.764a4.631,4.631,0,0,0,1.981,2.963,12.634,12.634,0,0,0,2.99,1.6,13.578,13.578,0,0,1-.884-2.126A8.485,8.485,0,0,1,391.921,193.9Z" transform="translate(-389 -172.969)"/>
</svg>
