<svg xmlns="http://www.w3.org/2000/svg" width="49.43" height="285.1" viewBox="0 0 49.43 285.1">
  <defs>
    <style>
      .cls-1 {
        fill: #fff;
        fill-rule: evenodd;
      }
    </style>
  </defs>
  <path id="sub01_01.svg" class="cls-1" d="M1478.08,1434.34l-0.38,1.22c-0.36,1.2-1.28,3.7-1.76,4.76-0.38.84-.38,0.84-0.54,1.2a14.316,14.316,0,0,1-1.84.08l0.34,1.34a6.083,6.083,0,0,1,.92-0.16c3.72-.42,6.98-0.92,9.46-1.44,0.38,0.76.54,1.1,0.94,2.04l1.12-.62a39.27,39.27,0,0,0-3.82-6.6l-1.1.44a29.731,29.731,0,0,1,2.34,3.74c-1.64.34-3.06,0.56-7,1.02a56.56,56.56,0,0,0,2.62-7.02h4.94a14.216,14.216,0,0,1,2.02.12v-1.36a13.83,13.83,0,0,1-2.02.12h-8.46a13.456,13.456,0,0,1-2.02-.12v1.36a11.625,11.625,0,0,1,2.02-.12h2.22Zm-5.62-3.16c0.94-2.2,1.06-2.48,1.34-3.32,0.18-.5.3-0.86,0.42-1.14l-1.34-.44a15.553,15.553,0,0,1-.92,3.06,18.931,18.931,0,0,1-3.5,5.48,6.125,6.125,0,0,1,.84,1.06,13.214,13.214,0,0,0,1.98-2.98c-0.04.86-.06,1.42-0.06,2.32v6.38a18.482,18.482,0,0,1-.12,2.32h1.46a18.345,18.345,0,0,1-.1-2.26v-10.48Zm2.62-1.76a13.641,13.641,0,0,1,2.02-.12h6a14.616,14.616,0,0,1,2.02.12v-1.36a13.641,13.641,0,0,1-2.02.12h-6a13.273,13.273,0,0,1-2.02-.12v1.36Zm-5.84,31c0.26-.04,1.16-0.14,2.88-0.3v6.26a13.009,13.009,0,0,1-.12,1.9h1.38a13.2,13.2,0,0,1-.12-1.9V1460c1-.12,1.22-0.16,1.74-0.24a11.713,11.713,0,0,1,.34,1.14l0.94-.44a16.112,16.112,0,0,0-1.58-3.56l-0.82.44a9.279,9.279,0,0,1,.78,1.54c-1.38.18-1.44,0.18-2.98,0.28a55.1,55.1,0,0,0,3.26-4.96,3.035,3.035,0,0,1,.46-0.68l-1.14-.64a19.661,19.661,0,0,1-1.96,3.62c-0.4-.54-0.6-0.78-1.08-1.34a24.318,24.318,0,0,0,1.58-2.6,14.082,14.082,0,0,1,.74-1.3l-1.2-.58a14.3,14.3,0,0,1-1.8,3.72c-0.38-.4-0.4-0.42-0.84-0.86l-0.64.88a19.542,19.542,0,0,1,2.62,3.04c-0.38.58-.54,0.82-0.68,1-0.38.54-.38,0.54-0.54,0.76-0.26.02-.62,0.02-0.8,0.02a3.03,3.03,0,0,1-.62-0.04Zm15.26-5.94a11.992,11.992,0,0,1,1.74.1v-1.28a11.064,11.064,0,0,1-1.8.12h-3.3v-0.86a10.468,10.468,0,0,1,.1-1.64h-1.34a13.891,13.891,0,0,1,.1,1.64v0.86h-2.46a10.631,10.631,0,0,1-1.78-.12v1.28a9.743,9.743,0,0,1,1.72-.1h1.68a19.209,19.209,0,0,1-1.86,3.36c-0.26.02-.36,0.02-0.5,0.02a6.786,6.786,0,0,1-.94-0.04l0.24,1.24c0.46-.06.78-0.1,1.26-0.12,3.5-.22,4.6-0.32,7-0.64a17.715,17.715,0,0,1,1.04,1.46l0.94-.76a26.222,26.222,0,0,0-3.56-4l-0.88.64a16.97,16.97,0,0,1,1.7,1.72c-1.54.2-3.46,0.36-5,.42a22.887,22.887,0,0,0,1.76-3.3h4.14Zm-14.4,6.76a16.082,16.082,0,0,1-1.06,5.36l1,0.5a17.121,17.121,0,0,0,1.1-5.64Zm4.02,0.2a20.377,20.377,0,0,1,.86,3.94l1-.4a22.111,22.111,0,0,0-.92-3.88Zm7.24-1.76a11.119,11.119,0,0,1,.1,1.88v5.02c0,1.04.38,1.26,2.1,1.26,1.3,0,1.86-.14,2.18-0.58,0.36-.46.56-1.62,0.64-3.64a3.386,3.386,0,0,1-1.16-.52,12.205,12.205,0,0,1-.3,3.22c-0.1.32-.48,0.42-1.42,0.42-0.72,0-.84-0.08-0.84-0.54v-4.64a11.265,11.265,0,0,1,.1-1.88h-1.4Zm-3.24.02a5.911,5.911,0,0,1,.1,1.22,8.055,8.055,0,0,1-.82,3.9,6.094,6.094,0,0,1-2.66,2.4,3.61,3.61,0,0,1,.98.94,7.028,7.028,0,0,0,2.62-2.58,8.858,8.858,0,0,0,1.04-4.38,9.971,9.971,0,0,1,.1-1.5h-1.36Zm-3.5,16.42a10.591,10.591,0,0,1,.26,1.84c0.32,3.9.58,4.82,1.48,5.18a9.732,9.732,0,0,0-2.92,2.14,4.4,4.4,0,0,0-1.3,3.04,2.944,2.944,0,0,0,2.34,3,12.087,12.087,0,0,0,3.62.42c1.36,0,3.6-.12,4.38-0.22a0.285,0.285,0,0,0,.3-0.34,4.225,4.225,0,0,0-.12-1.04,0.241,0.241,0,0,0-.24-0.16,0.643,0.643,0,0,0-.16.02,29.437,29.437,0,0,1-4.66.38c-2.86,0-4.1-.64-4.1-2.12,0-1.76,1.8-3.42,5.32-4.86a23.776,23.776,0,0,1,3.08-1.06c0.24-.06.34-0.14,0.34-0.26a2.639,2.639,0,0,0-.92-1.42,0.371,0.371,0,0,0-.14.04,6.122,6.122,0,0,1-.98.6,7.4,7.4,0,0,1-2.7,1.06c-0.5,0-.74-0.34-0.92-1.28a21.167,21.167,0,0,1-.28-2.98,5.921,5.921,0,0,1,.12-1.38,1.928,1.928,0,0,0,.04-0.24,0.289,0.289,0,0,0-.3-0.24A8,8,0,0,0,1474.62,1476.12Zm0.96,34.26-0.02,1.72a2.581,2.581,0,0,0,1.36,2.66,8.99,8.99,0,0,0,3.68.48c0.68,0,2.52-.1,2.86-0.14a0.228,0.228,0,0,0,.22-0.28,6.006,6.006,0,0,0-.06-0.86c-0.02-.26-0.08-0.34-0.2-0.34h-0.04l-0.28.04c-0.72.08-.72,0.08-0.88,0.1-0.62.06-1.48,0.1-2.04,0.1-2.66,0-3.2-.34-3.2-2.04,0-.42,0-1.18.02-2.1v-1.16h1.98c2.32,0,4.66.04,5.58,0.12h0.12c0.28,0,.3-0.04.3-0.64a3.884,3.884,0,0,0-.04-0.66,0.2,0.2,0,0,0-.22-0.14h-0.1c-0.98.1-3.2,0.14-6.46,0.14h-1.14l0.04-3.84h1.14c1.08,0,1.78.02,2.08,0.02l2.44,0.02c0.26,0,.28-0.04.28-0.56,0-.7-0.04-0.82-0.26-0.82h-0.08c-1,.1-3.32.14-7.02,0.14a36.729,36.729,0,0,1-4.14-.16,7.526,7.526,0,0,0,.1,1.22,0.26,0.26,0,0,0,.24.26h0.1a20.923,20.923,0,0,1,3.08-.14h0.6c0,1.54,0,1.54-.02,3.84a47.716,47.716,0,0,1-5.64-.14,4.975,4.975,0,0,0,.14,1.3,0.209,0.209,0,0,0,.24.2,1.5,1.5,0,0,0,.24-0.02,14.2,14.2,0,0,1,2.16-.1c1.9-.02,2.86-0.02,2.86-0.02Zm0.3,18.32c3.64,0,3.68,0,6.06-.02a16.7,16.7,0,0,1-2.02,3.82,18.549,18.549,0,0,1-1.2,1.56,13,13,0,0,0-3.26-2.6,0.635,0.635,0,0,0-.46.32,1.046,1.046,0,0,0-.38.5,0.33,0.33,0,0,0,.16.2,17.213,17.213,0,0,1,3,2.64,23.609,23.609,0,0,1-6.98,5.06,3.812,3.812,0,0,1,1.02.72,0.386,0.386,0,0,0,.3.14,3.151,3.151,0,0,0,1.16-.56,23.594,23.594,0,0,0,5.86-4.76,25.822,25.822,0,0,0,3.98-6,3.018,3.018,0,0,1,.54-0.86,0.409,0.409,0,0,0,.16-0.28,1.663,1.663,0,0,0-.38-0.66,1.319,1.319,0,0,0-.72-0.62,0.456,0.456,0,0,0-.22.06c-0.34.14-.4,0.14-2.76,0.14h-3.06c0.18-.26.28-0.44,0.42-0.68a2.223,2.223,0,0,1,.62-0.8,0.316,0.316,0,0,0,.16-0.24,2.5,2.5,0,0,0-1.56-.94,8.1,8.1,0,0,1-.64,1.6,14.5,14.5,0,0,1-5.66,5.82,3.447,3.447,0,0,1,1,.64,0.27,0.27,0,0,0,.2.1,3.017,3.017,0,0,0,1.04-.64A17.468,17.468,0,0,0,1475.88,1528.7Zm11.36-2.7a6.149,6.149,0,0,0-1.74-1.94,1.36,1.36,0,0,0-.66.36,0.348,0.348,0,0,0-.06.14,0.237,0.237,0,0,0,.1.18,7.626,7.626,0,0,1,1.44,1.84,0.257,0.257,0,0,0,.18.2,1.55,1.55,0,0,0,.56-0.28c0.22-.16.24-0.18,0.24-0.3A0.53,0.53,0,0,0,1487.24,1526Zm-1.66,1.48a0.38,0.38,0,0,0,.06-0.18,5.877,5.877,0,0,0-1.86-2.14,1.223,1.223,0,0,0-.64.4c-0.02.08-.04,0.12-0.04,0.14a0.4,0.4,0,0,0,.06.16,7.934,7.934,0,0,1,1.52,1.92,0.221,0.221,0,0,0,.2.16A1.981,1.981,0,0,0,1485.58,1527.48Zm-9.18,26.62c0-.4-3.42-3.02-3.98-3.04a0.5,0.5,0,0,0-.4.26,2.007,2.007,0,0,0-.5.74c0,0.1.02,0.12,0.46,0.38a15.731,15.731,0,0,1,3.24,2.62,0.31,0.31,0,0,0,.22.14A2.256,2.256,0,0,0,1476.4,1554.1Zm8.08-1.24a18.726,18.726,0,0,1-3.4,4.18,23.89,23.89,0,0,1-4.5,3.28,18.571,18.571,0,0,1-5.06,2.08,2.917,2.917,0,0,0,1.04,1.64,0.469,0.469,0,0,0,.26-0.14,5.724,5.724,0,0,1,1.16-.62,26.22,26.22,0,0,0,7.56-4.66c1.7-1.52,3.62-3.74,3.62-4.2a0.476,0.476,0,0,0-.1-0.28A5.747,5.747,0,0,1,1484.48,1552.86Zm-5.82,23.46a5.538,5.538,0,0,1,2.26.52,5.156,5.156,0,0,1,3.06,4.88,6.119,6.119,0,0,1-2.88,5.2,10.759,10.759,0,0,1-3.14,1.32,2.725,2.725,0,0,1,.88.76,0.434,0.434,0,0,0,.34.24,8.308,8.308,0,0,0,2.5-1.14,7.192,7.192,0,0,0,3.68-6.32c0-4-2.88-6.64-7.24-6.64a8.682,8.682,0,0,0-5.14,1.54,7.682,7.682,0,0,0-3.22,6.34,6.156,6.156,0,0,0,.8,3.24,2.735,2.735,0,0,0,2.26,1.36c1.5,0,2.82-1.32,3.98-3.96A26.243,26.243,0,0,0,1478.66,1576.32Zm-1.38.08a23.867,23.867,0,0,1-1.82,6.86c-0.86,1.92-1.76,2.92-2.6,2.92-1.06,0-1.8-1.28-1.8-3.08a6.518,6.518,0,0,1,3.5-5.96A7.393,7.393,0,0,1,1477.28,1576.4Zm4.74,24.3a0.306,0.306,0,0,0-.24-0.3,34.712,34.712,0,0,0-5.38-1.56c-0.92-.18-2.38-0.42-2.66-0.42a0.227,0.227,0,0,0-.2.14,3.645,3.645,0,0,0-.26,1.02c0,0.14.08,0.2,0.28,0.22,0.66,0.08,1.86.3,2.82,0.52a31.278,31.278,0,0,1,4.96,1.56,0.982,0.982,0,0,0,.24.06c0.08,0,.14-0.06.22-0.3A4.244,4.244,0,0,0,1482.02,1600.7Zm-1.28,5.08a0.22,0.22,0,0,0-.12-0.2,26.213,26.213,0,0,0-3.98-1.42,25.643,25.643,0,0,0-2.72-.58,0.267,0.267,0,0,0-.26.22,3.793,3.793,0,0,0-.24.9,0.235,0.235,0,0,0,.24.26,17.794,17.794,0,0,1,2.2.48,25.475,25.475,0,0,1,2.94.96,8.6,8.6,0,0,0,1.42.62c0.1,0,.16-0.08.26-0.34A4.746,4.746,0,0,0,1480.74,1605.78Zm-8.24,3.54a0.211,0.211,0,0,0-.22.16,4.1,4.1,0,0,0-.28,1.08c0,0.12.06,0.16,0.22,0.18a31.011,31.011,0,0,1,3.74.76,30.564,30.564,0,0,1,6.24,2.32,0.486,0.486,0,0,0,.22.08,1.639,1.639,0,0,0,.58-1.24,0.18,0.18,0,0,0,.02-0.1,0.265,0.265,0,0,0-.2-0.22,34.252,34.252,0,0,0-6.8-2.34C1474.96,1609.74,1472.78,1609.32,1472.5,1609.32Zm4.84,16.2a0.237,0.237,0,0,0-.1.18,0.607,0.607,0,0,0,.06.22,9.99,9.99,0,0,1,1.24,2.54c0.16,0.48.18,0.5,0.28,0.5a1.747,1.747,0,0,0,.5-0.16c0.5-.24.62-0.32,0.62-0.48a9.741,9.741,0,0,0-1.1-2.44,1.333,1.333,0,0,0-.68-0.82A1.925,1.925,0,0,0,1477.34,1625.52Zm6.12,0.02a9.449,9.449,0,0,1-1.16,3.52,14.679,14.679,0,0,1-6.32,6.54,3.9,3.9,0,0,1,.8.5,0.639,0.639,0,0,0,.42.26,1.947,1.947,0,0,0,.64-0.32,16.192,16.192,0,0,0,4-3.7,20.578,20.578,0,0,0,2.66-4.74,2.769,2.769,0,0,1,.46-0.84,0.511,0.511,0,0,0,.2-0.34C1485.16,1626.18,1484.6,1625.9,1483.46,1625.54Zm-7.18,3.52c-0.02-.06-0.32-0.68-0.48-0.98a10.292,10.292,0,0,0-.76-1.3,1.737,1.737,0,0,0-.72-0.84,1.814,1.814,0,0,0-.96.64,0.3,0.3,0,0,0,.1.2,12.589,12.589,0,0,1,1.56,2.9,0.251,0.251,0,0,0,.22.22,2.447,2.447,0,0,0,.76-0.34c0.26-.16.3-0.2,0.3-0.36A0.39,0.39,0,0,0,1476.28,1629.06Zm6.08,21.74a19.462,19.462,0,0,1-3.1,5.12,20.91,20.91,0,0,1-7.84,5.96,3.152,3.152,0,0,1,1.06.74,0.352,0.352,0,0,0,.26.12,13.067,13.067,0,0,0,2.98-1.66,23.275,23.275,0,0,0,7.88-9.3,3.032,3.032,0,0,1,.52-0.74,0.51,0.51,0,0,0,.22-0.4,2.276,2.276,0,0,0-.6-0.88,0.731,0.731,0,0,0-.52-0.38,0.706,0.706,0,0,0-.28.06,2.788,2.788,0,0,1-1.18.16c-2.46,0-3.88,0-4.46-.02,0.06-.08.1-0.16,0.22-0.36a4.551,4.551,0,0,1,.86-1.18,0.355,0.355,0,0,0,.18-0.26c0-.24-0.64-0.6-1.6-0.94a8.878,8.878,0,0,1-1.5,3.02,14.947,14.947,0,0,1-4.78,4.36,3.771,3.771,0,0,1,1.02.62,0.387,0.387,0,0,0,.26.12,5.161,5.161,0,0,0,1.44-1,19.576,19.576,0,0,0,3.04-3.16h5.92Zm-4.52,30.06c0.56,0.38.9,0.62,1.1,0.78a26.011,26.011,0,0,1,3.76,3.36c1.24,1.4,1.24,1.4,1.36,1.4a2.583,2.583,0,0,0,1-1.02,5.718,5.718,0,0,0-1.46-1.64,28.418,28.418,0,0,0-4.88-3.84,26.929,26.929,0,0,0,3.14-4.42,3.79,3.79,0,0,1,.92-1.16,0.359,0.359,0,0,0,.2-0.3,1.5,1.5,0,0,0-.38-0.74,1.079,1.079,0,0,0-.82-0.58,1.345,1.345,0,0,0-.36.06,18.7,18.7,0,0,1-3.76.16,47.626,47.626,0,0,1-6.06-.16c0.02,1.2.1,1.6,0.3,1.6h0.06a1.148,1.148,0,0,0,.24-0.02c0.18-.02.22-0.02,0.44-0.04,0.52-.02,3.06-0.08,3.82-0.08,3.44,0,3.44,0,4.44-.02a25.977,25.977,0,0,1-4.74,6.38,24.753,24.753,0,0,1-6.7,4.94,3.636,3.636,0,0,1,.84.6,0.594,0.594,0,0,0,.4.3,2.63,2.63,0,0,0,.96-0.48A28.894,28.894,0,0,0,1477.84,1680.86Zm5.82,18.28a1.7,1.7,0,0,0,.8-0.74,5.814,5.814,0,0,0-1.18-1.4,2.027,2.027,0,0,0-.92-0.64,0.563,0.563,0,0,0-.4.24c-0.32.26-.32,0.26-0.32,0.32a0.426,0.426,0,0,0,.14.18,8.377,8.377,0,0,1,1.7,1.88A0.221,0.221,0,0,0,1483.66,1699.14Zm-0.38-3.52a0.145,0.145,0,0,0,.08.12,7.6,7.6,0,0,1,1.76,1.92,0.11,0.11,0,0,0,.12.08,1.17,1.17,0,0,0,.4-0.24c0.36-.26.4-0.3,0.4-0.42a6.1,6.1,0,0,0-2.02-2.02A1.342,1.342,0,0,0,1483.28,1695.62Zm-8.96,4.76-0.8.12a20.3,20.3,0,0,1-3.84.48c0.18,1,.38,1.48.6,1.48a0.461,0.461,0,0,0,.18-0.06,16.066,16.066,0,0,1,3.52-.84,31.773,31.773,0,0,1-4.08,8.56,0.242,0.242,0,0,0,.06.4,2.505,2.505,0,0,0,.94.52,0.321,0.321,0,0,0,.22-0.1,23.815,23.815,0,0,0,2.14-4.06,53.831,53.831,0,0,0,2.08-5.58,12.463,12.463,0,0,1,2.14-.26c1.04,0,1.52.64,1.52,2.08a15.29,15.29,0,0,1-.96,5.32c-0.42,1.12-.92,1.6-1.68,1.6a3.647,3.647,0,0,1-1.98-.64,3.839,3.839,0,0,1,.22,1.22,0.336,0.336,0,0,0,.16.36,4.724,4.724,0,0,0,1.82.38,2.532,2.532,0,0,0,2.34-1.6,15.609,15.609,0,0,0,1.4-6.44c0-2.32-.82-3.38-2.6-3.38a14.55,14.55,0,0,0-2.04.22c0.04-.14.06-0.22,0.12-0.42a10.454,10.454,0,0,1,.94-2.72,0.443,0.443,0,0,0,.12-0.28c0-.26-0.64-0.52-1.8-0.72A16.9,16.9,0,0,1,1474.32,1700.38Zm10.44,4.88a2.149,2.149,0,0,0,.8-0.46,0.482,0.482,0,0,0,.26-0.34,8.908,8.908,0,0,0-1.72-3.14,8.04,8.04,0,0,0-1.84-1.86,1.93,1.93,0,0,0-.82.78,0.208,0.208,0,0,0,.1.16,11.183,11.183,0,0,1,3.04,4.68A0.188,0.188,0,0,0,1484.76,1705.26Zm-41.14-277.94a10.591,10.591,0,0,1,.26,1.84c0.32,3.9.58,4.82,1.48,5.18a9.732,9.732,0,0,0-2.92,2.14,4.4,4.4,0,0,0-1.3,3.04,2.944,2.944,0,0,0,2.34,3,12.087,12.087,0,0,0,3.62.42c1.36,0,3.6-.12,4.38-0.22a0.285,0.285,0,0,0,.3-0.34,4.225,4.225,0,0,0-.12-1.04,0.241,0.241,0,0,0-.24-0.16,0.643,0.643,0,0,0-.16.02,29.437,29.437,0,0,1-4.66.38c-2.86,0-4.1-.64-4.1-2.12,0-1.76,1.8-3.42,5.32-4.86a23.776,23.776,0,0,1,3.08-1.06c0.24-.06.34-0.14,0.34-0.26a2.639,2.639,0,0,0-.92-1.42,0.371,0.371,0,0,0-.14.04,6.122,6.122,0,0,1-.98.6,7.4,7.4,0,0,1-2.7,1.06c-0.5,0-.74-0.34-0.92-1.28a21.167,21.167,0,0,1-.28-2.98,5.921,5.921,0,0,1,.12-1.38,1.928,1.928,0,0,0,.04-0.24,0.289,0.289,0,0,0-.3-0.24A8,8,0,0,0,1443.62,1427.32Zm7.96,34.3a17.935,17.935,0,0,1-2.8-3.42,18.677,18.677,0,0,0,3.86-1.52,0.137,0.137,0,0,0,.1-0.12,3.19,3.19,0,0,0-.48-1.08,0.254,0.254,0,0,0-.16.06,15.256,15.256,0,0,1-3.94,1.6,20.785,20.785,0,0,1-1.02-2.26,27.942,27.942,0,0,0,4.16-1.24,0.227,0.227,0,0,0,.16-0.14,3.613,3.613,0,0,0-.24-0.72c-0.12-.28-0.16-0.34-0.22-0.34a0.12,0.12,0,0,0-.08.02l-1.74.66a18.536,18.536,0,0,1-2.42.68,8.617,8.617,0,0,1-.46-1.92,0.528,0.528,0,0,1,.02-0.14c0-.06.02-0.14,0.02-0.18,0-.18-0.08-0.24-0.32-0.24a7.093,7.093,0,0,0-1.5.18,5.346,5.346,0,0,1,.6,1.42c0.22,0.68.3,0.92,0.38,1.14a30.054,30.054,0,0,1-4.84.48,7.9,7.9,0,0,0,.1.86c0.06,0.26.1,0.3,0.26,0.3a35.982,35.982,0,0,0,4.9-.56,22.557,22.557,0,0,0,1.04,2.3,27.116,27.116,0,0,1-6.18.66c0.14,1.14.16,1.18,0.52,1.18a30.774,30.774,0,0,0,6.26-.76,17.1,17.1,0,0,0,2.86,3.54,11.351,11.351,0,0,0-4.4-.86c-3.1,0-4.84,1.1-4.84,3.04,0,2.36,2.6,3.68,7.3,3.68,0.72,0,.8-0.02.88-0.32a4.839,4.839,0,0,1,.46-1.12c-0.92.06-1.36,0.08-1.86,0.08-3.32,0-5.46-.92-5.46-2.38,0-1.22,1.32-1.9,3.68-1.9a9.668,9.668,0,0,1,5,1.24,0.216,0.216,0,0,0,.14.06,0.732,0.732,0,0,0,.5-0.5,2.528,2.528,0,0,0,.34-0.82,0.29,0.29,0,0,0-.14-0.26Zm-3.08,19.36a4.375,4.375,0,0,1,4.12,4.46,4.666,4.666,0,0,1-2.7,4.2,9.034,9.034,0,0,1-3.08.94,2.545,2.545,0,0,1,.74.72c0.22,0.32.26,0.34,0.42,0.34a7.2,7.2,0,0,0,1.72-.48c2.78-1.1,4.26-3.08,4.26-5.68,0-2.94-2.04-5.14-5.2-5.58,0.06-.22.2-0.74,0.28-1.08a3.78,3.78,0,0,1,.38-1.12,0.742,0.742,0,0,0,.18-0.38c0.02-.26-0.56-0.52-1.78-0.72,0.02,0.26.02,0.42,0.02,0.6a14.254,14.254,0,0,1-.38,2.62,8.54,8.54,0,0,0-4.62,1.46,8.45,8.45,0,0,1-.68-2.68c-0.02-.5-0.06-0.58-0.3-0.58a10.178,10.178,0,0,0-1.44.22,7.866,7.866,0,0,1,.66,1.66c0.3,0.98.54,1.62,0.76,2.18a6.868,6.868,0,0,0-2.42,5.1c0,1.82.88,3.02,2.22,3.02,1.22,0,2.3-.76,3.64-2.52a2.838,2.838,0,0,0,.98.92,1.419,1.419,0,0,0,.86-0.8,0.255,0.255,0,0,0-.14-0.2,11.577,11.577,0,0,1-.96-1.02A22.931,22.931,0,0,0,1448.5,1480.98Zm-1.32-.04a18.312,18.312,0,0,1-1.98,4.58,20.2,20.2,0,0,1-1.88-3.16A7.2,7.2,0,0,1,1447.18,1480.94Zm-4.82,2.3a17.327,17.327,0,0,0,2.1,3.42c-1.14,1.62-1.86,2.2-2.72,2.2-0.64,0-1.06-.68-1.06-1.76A5.885,5.885,0,0,1,1442.36,1483.24Zm9.22,27.18a17.935,17.935,0,0,1-2.8-3.42,18.677,18.677,0,0,0,3.86-1.52,0.137,0.137,0,0,0,.1-0.12,3.19,3.19,0,0,0-.48-1.08,0.254,0.254,0,0,0-.16.06,15.256,15.256,0,0,1-3.94,1.6,20.785,20.785,0,0,1-1.02-2.26,27.942,27.942,0,0,0,4.16-1.24,0.227,0.227,0,0,0,.16-0.14,3.613,3.613,0,0,0-.24-0.72c-0.12-.28-0.16-0.34-0.22-0.34a0.12,0.12,0,0,0-.08.02l-1.74.66a18.536,18.536,0,0,1-2.42.68,8.617,8.617,0,0,1-.46-1.92,0.528,0.528,0,0,1,.02-0.14c0-.06.02-0.14,0.02-0.18,0-.18-0.08-0.24-0.32-0.24a7.093,7.093,0,0,0-1.5.18,5.346,5.346,0,0,1,.6,1.42c0.22,0.68.3,0.92,0.38,1.14a30.054,30.054,0,0,1-4.84.48,7.9,7.9,0,0,0,.1.86c0.06,0.26.1,0.3,0.26,0.3a35.982,35.982,0,0,0,4.9-.56,22.557,22.557,0,0,0,1.04,2.3,27.116,27.116,0,0,1-6.18.66c0.14,1.14.16,1.18,0.52,1.18a30.774,30.774,0,0,0,6.26-.76,17.1,17.1,0,0,0,2.86,3.54,11.351,11.351,0,0,0-4.4-.86c-3.1,0-4.84,1.1-4.84,3.04,0,2.36,2.6,3.68,7.3,3.68,0.72,0,.8-0.02.88-0.32a4.839,4.839,0,0,1,.46-1.12c-0.92.06-1.36,0.08-1.86,0.08-3.32,0-5.46-.92-5.46-2.38,0-1.22,1.32-1.9,3.68-1.9a9.668,9.668,0,0,1,5,1.24,0.216,0.216,0,0,0,.14.06,0.732,0.732,0,0,0,.5-0.5,2.528,2.528,0,0,0,.34-0.82,0.29,0.29,0,0,0-.14-0.26Zm-3.92,17.1a5.538,5.538,0,0,1,2.26.52,5.156,5.156,0,0,1,3.06,4.88,6.119,6.119,0,0,1-2.88,5.2,10.759,10.759,0,0,1-3.14,1.32,2.725,2.725,0,0,1,.88.76,0.434,0.434,0,0,0,.34.24,8.308,8.308,0,0,0,2.5-1.14,7.192,7.192,0,0,0,3.68-6.32c0-4-2.88-6.64-7.24-6.64a8.682,8.682,0,0,0-5.14,1.54,7.682,7.682,0,0,0-3.22,6.34,6.156,6.156,0,0,0,.8,3.24,2.735,2.735,0,0,0,2.26,1.36c1.5,0,2.82-1.32,3.98-3.96A26.243,26.243,0,0,0,1447.66,1527.52Zm-1.38.08a23.867,23.867,0,0,1-1.82,6.86c-0.86,1.92-1.76,2.92-2.6,2.92-1.06,0-1.8-1.28-1.8-3.08a6.518,6.518,0,0,1,3.5-5.96A7.393,7.393,0,0,1,1446.28,1527.6Zm-5.74,23.06v4.5h-1a6.242,6.242,0,0,1-1.3-.1v1.24a6.359,6.359,0,0,1,1.3-.1h1v5.34a15.252,15.252,0,0,1-2.66.84l0.4,1.34a7.224,7.224,0,0,1,.76-0.32,51.806,51.806,0,0,0,5-2.18l-0.08-1.2c-1.04.52-1.4,0.7-2.24,1.06v-4.88h0.78a8.346,8.346,0,0,1,1.26.08v-1.22a6.073,6.073,0,0,1-1.26.1h-0.78v-4.5h0.94a10.886,10.886,0,0,1,1.46.08v-1.28a6.643,6.643,0,0,1-1.56.12h-2.92a7.409,7.409,0,0,1-1.64-.12v1.3a8.467,8.467,0,0,1,1.56-.1h0.98Zm8.46,7.28v2.22h-2.52a10.709,10.709,0,0,1-1.86-.1v1.28a11.141,11.141,0,0,1,1.86-.1H1449v2.82h-3.98a10.73,10.73,0,0,1-1.84-.1v1.28a12.118,12.118,0,0,1,1.92-.1h8.58a11.992,11.992,0,0,1,1.9.1v-1.28a11.019,11.019,0,0,1-1.84.1h-3.6v-2.82H1453a11.315,11.315,0,0,1,1.84.1v-1.28a10.587,10.587,0,0,1-1.84.1h-2.86v-2.22h2.2c1.12,0,1.54.02,2.3,0.08a22.157,22.157,0,0,1-.08-2.44v-3.84a23.418,23.418,0,0,1,.08-2.42,16.591,16.591,0,0,1-2.46.1h-5.06a18.171,18.171,0,0,1-2.48-.1,18.405,18.405,0,0,1,.1,2.44v4.06c-0.02,1.02-.02,1.02-0.02,1.52a5.837,5.837,0,0,1-.06.68,22,22,0,0,1,2.4-.08H1449Zm0-7.46v2.7h-3.1v-2.7h3.1Zm1.14,0h3.26v2.7h-3.26v-2.7Zm-1.14,3.72v2.7h-3.1v-2.7h3.1Zm1.14,0h3.26v2.7h-3.26v-2.7Zm-3,22.46v-1.92a14.636,14.636,0,0,1,.12-1.94h-1.52a12.133,12.133,0,0,1,.14,1.94v1.92h-5a12.991,12.991,0,0,1-1.88-.1,14.6,14.6,0,0,1,.1,1.68v10.16a14.681,14.681,0,0,1-.12,1.9h1.36v-1.1h12.68v1.1h1.36a14.371,14.371,0,0,1-.12-1.88v-10.14a11.223,11.223,0,0,1,.1-1.72,14.06,14.06,0,0,1-1.94.1h-5.28Zm0,11.42v-4.76h5.88v4.76h-5.88Zm0-5.86v-4.42h5.88v4.42h-5.88Zm-1.26-4.42v4.42h-5.54v-4.42h5.54Zm0,5.52v4.76h-5.54v-4.76h5.54Z" transform="translate(-1437.88 -1426.28)"/>
</svg>
