<svg xmlns="http://www.w3.org/2000/svg" width="49.03" height="239.35" viewBox="0 0 49.03 239.35">
  <defs>
    <style>
      .cls-1 {
        fill: #fff;
        fill-rule: evenodd;
      }
    </style>
  </defs>
  <path id="sub02_01.svg" class="cls-1" d="M1463.1,3757.58a4.826,4.826,0,0,0-.1,1.08c0,0.36.02,0.38,0.6,0.5a25.506,25.506,0,0,0,5.16.52,22.745,22.745,0,0,0,2.98-.16c0.14-.04.16-0.12,0.16-0.48a4.478,4.478,0,0,0-.08-0.86,0.15,0.15,0,0,0-.18-0.14c-0.1,0-.2.02-0.74,0.08-0.52.06-1.7,0.12-2.5,0.12A20.915,20.915,0,0,1,1463.1,3757.58Zm-0.82,9.36a1.976,1.976,0,0,0-1.06.8,3.378,3.378,0,0,0,.4.98,4.542,4.542,0,0,0,1.4,1.5c1.18,0.8,2.72,1.12,5.3,1.12a29.342,29.342,0,0,0,5.36-.52,0.257,0.257,0,0,0,.22-0.3,8.023,8.023,0,0,0-.06-1.1,0.179,0.179,0,0,0-.18-0.18,0.18,0.18,0,0,0-.1.02,23.042,23.042,0,0,1-5.28.62,15.635,15.635,0,0,1-2.5-.2,4.411,4.411,0,0,1-2.58-1.22A3.4,3.4,0,0,1,1462.28,3766.94Zm0.82,14.64a4.826,4.826,0,0,0-.1,1.08c0,0.36.02,0.38,0.6,0.5a25.506,25.506,0,0,0,5.16.52,22.745,22.745,0,0,0,2.98-.16c0.14-.04.16-0.12,0.16-0.48a4.478,4.478,0,0,0-.08-0.86,0.15,0.15,0,0,0-.18-0.14c-0.1,0-.2.02-0.74,0.08-0.52.06-1.7,0.12-2.5,0.12A20.915,20.915,0,0,1,1463.1,3781.58Zm-0.82,9.36a1.976,1.976,0,0,0-1.06.8,3.378,3.378,0,0,0,.4.98,4.542,4.542,0,0,0,1.4,1.5c1.18,0.8,2.72,1.12,5.3,1.12a29.342,29.342,0,0,0,5.36-.52,0.257,0.257,0,0,0,.22-0.3,8.023,8.023,0,0,0-.06-1.1,0.179,0.179,0,0,0-.18-0.18,0.18,0.18,0,0,0-.1.02,23.042,23.042,0,0,1-5.28.62,15.635,15.635,0,0,1-2.5-.2,4.411,4.411,0,0,1-2.58-1.22A3.4,3.4,0,0,1,1462.28,3790.94Zm2,15.86a37.477,37.477,0,0,1-4.8.58,4.909,4.909,0,0,0,.5,1.42,0.4,0.4,0,0,0,.38.3,0.75,0.75,0,0,0,.34-0.1c0.94-.44,2.06-0.66,9.3-1.9a9.635,9.635,0,0,0-2.36,2.02,7.766,7.766,0,0,0-1.8,4.9c0,2.74,1.38,4.58,4.14,5.58a11.989,11.989,0,0,0,2.32.6,0.254,0.254,0,0,0,.26-0.2,3.831,3.831,0,0,0,.22-1.12,0.194,0.194,0,0,0-.2-0.22,7.545,7.545,0,0,1-2.2-.52c-2.1-.8-3.18-2.16-3.18-4.06a7.708,7.708,0,0,1,4-6.52,7.286,7.286,0,0,1,3.42-.86c0.36,0,.42-0.02.42-0.2a5.548,5.548,0,0,0-.28-1.14,0.288,0.288,0,0,0-.26-0.16,0.39,0.39,0,0,0-.14.02,17.479,17.479,0,0,1-2.18.38Zm7.66,2.92a0.242,0.242,0,0,0,.12.18,7.356,7.356,0,0,1,1.58,2,0.241,0.241,0,0,0,.2.16,1.957,1.957,0,0,0,.62-0.44,0.4,0.4,0,0,0,.2-0.26,5.655,5.655,0,0,0-.88-1.2,3.744,3.744,0,0,0-1.08-.96,0.745,0.745,0,0,0-.48.24,0.656,0.656,0,0,1-.16.12A0.253,0.253,0,0,0,1471.94,3809.72Zm2.44-1.7a1.553,1.553,0,0,0-.76.54,0.175,0.175,0,0,0,.08.12,6.6,6.6,0,0,1,1.6,2,0.173,0.173,0,0,0,.16.14,0.7,0.7,0,0,0,.36-0.2c0.4-.26.46-0.3,0.46-0.42A5.923,5.923,0,0,0,1474.38,3808.02Zm-10.84,20.16a10.217,10.217,0,0,1,.1,1.56v0.58c-0.04,1.2-.2,9.18-0.2,9.68,0,2.98,1.22,4.38,3.84,4.38a8.791,8.791,0,0,0,5.14-1.7c1.24-.88,2.56-2.26,2.56-2.68a0.477,0.477,0,0,0-.08-0.24,3.549,3.549,0,0,1-.42-1.22,10.508,10.508,0,0,1-3.2,3.24,7.242,7.242,0,0,1-3.92,1.18c-1.88,0-2.56-.82-2.56-3.04,0-1.34.18-6.86,0.28-8.76a8.944,8.944,0,0,1,.3-2.18,0.987,0.987,0,0,0,.06-0.3c0-.2-0.08-0.26-0.38-0.32A10.212,10.212,0,0,0,1463.54,3828.18Zm0.88,28.52-0.8.12a20.3,20.3,0,0,1-3.84.48c0.18,1,.38,1.48.6,1.48a0.461,0.461,0,0,0,.18-0.06,16.066,16.066,0,0,1,3.52-.84,31.773,31.773,0,0,1-4.08,8.56,0.242,0.242,0,0,0,.06.4,2.505,2.505,0,0,0,.94.52,0.321,0.321,0,0,0,.22-0.1,23.815,23.815,0,0,0,2.14-4.06,53.831,53.831,0,0,0,2.08-5.58,12.463,12.463,0,0,1,2.14-.26c1.04,0,1.52.64,1.52,2.08a15.29,15.29,0,0,1-.96,5.32c-0.42,1.12-.92,1.6-1.68,1.6a3.647,3.647,0,0,1-1.98-.64,3.839,3.839,0,0,1,.22,1.22,0.336,0.336,0,0,0,.16.36,4.724,4.724,0,0,0,1.82.38,2.532,2.532,0,0,0,2.34-1.6,15.609,15.609,0,0,0,1.4-6.44c0-2.32-.82-3.38-2.6-3.38a14.55,14.55,0,0,0-2.04.22c0.04-.14.06-0.22,0.12-0.42a10.454,10.454,0,0,1,.94-2.72,0.443,0.443,0,0,0,.12-0.28c0-.26-0.64-0.52-1.8-0.72A16.9,16.9,0,0,1,1464.42,3856.7Zm10.44,4.88a2.149,2.149,0,0,0,.8-0.46,0.482,0.482,0,0,0,.26-0.34,8.908,8.908,0,0,0-1.72-3.14,8.04,8.04,0,0,0-1.84-1.86,1.93,1.93,0,0,0-.82.78,0.208,0.208,0,0,0,.1.16,11.183,11.183,0,0,1,3.04,4.68A0.188,0.188,0,0,0,1474.86,3861.58Zm-6.16,18v11.34a11.585,11.585,0,0,1-.12,2.02h1.46a12.4,12.4,0,0,1-.12-2.02v-2.94h3.96a10.6,10.6,0,0,1,1.7.12v-1.34a10.6,10.6,0,0,1-1.7.12h-3.96v-3.1h3.9a9.326,9.326,0,0,1,1.7.12v-1.34a8.7,8.7,0,0,1-1.7.12h-3.9v-3.1h4.52a10.4,10.4,0,0,1,1.76.1v-1.32a9.11,9.11,0,0,1-1.76.12h-6.1a17.142,17.142,0,0,0,.66-1.72c0.18-.5.24-0.64,0.38-0.98l-1.34-.42a10.591,10.591,0,0,1-.8,2.72,16.014,16.014,0,0,1-3.4,5.24,2.882,2.882,0,0,1,.96.94,21.4,21.4,0,0,0,3.04-4.68h0.86Zm-5.1-4.24a9.469,9.469,0,0,1-.82,2.58,16.534,16.534,0,0,1-4.06,5.76,3.617,3.617,0,0,1,.8,1.02,13.876,13.876,0,0,0,2.4-3.04c-0.06,1.12-.08,1.64-0.08,2.48v6.38a16.536,16.536,0,0,1-.14,2.34h1.5a19.041,19.041,0,0,1-.12-2.3v-10.5a29.648,29.648,0,0,0,1.42-3.18c0.14-.4.22-0.56,0.44-1.08Zm0.62,33.26a7.5,7.5,0,0,0,.56-0.54,23.619,23.619,0,0,1,1.96-1.72c1.82-1.42,2.9-1.98,3.82-1.98,0.7,0,.98.48,0.98,1.7,0,0.5-.04,1.46-0.16,3.22-0.12,1.9-.18,3.12-0.18,3.68,0,1.54.72,2.32,2.12,2.32a4.512,4.512,0,0,0,2.46-.78,1.259,1.259,0,0,0,.72-0.76,0.783,0.783,0,0,0-.06-0.26,2.578,2.578,0,0,1-.18-1.16,3.954,3.954,0,0,1-2.8,1.6c-0.68,0-.92-0.34-0.92-1.28,0-.38.06-1.62,0.14-2.88,0.16-2.36.24-3.68,0.24-3.92,0-1.86-.72-2.78-2.22-2.78a4.084,4.084,0,0,0-1.9.5,22.609,22.609,0,0,0-2.46,1.68,18.768,18.768,0,0,0-2.08,1.92c0-.14.02-0.7,0.02-0.78a17.4,17.4,0,0,1,1.16-1.7,0.336,0.336,0,0,0,.12-0.22,1.409,1.409,0,0,0-.74-0.74,0.3,0.3,0,0,0-.18.04,1.949,1.949,0,0,1-.22.1,10.239,10.239,0,0,1,.34-2.76,0.758,0.758,0,0,0,.1-0.32c0-.26-0.7-0.44-1.72-0.46,0.04,1.2.04,1.2,0.04,1.84,0,0.3,0,.3-0.04,1.96a25.608,25.608,0,0,1-3.08.32,3.247,3.247,0,0,1-.42-0.02,6.7,6.7,0,0,0,.18,1.02c0.1,0.34.16,0.42,0.28,0.42a0.711,0.711,0,0,0,.2-0.04,17.412,17.412,0,0,1,2.8-.56c-0.02,1.2-.04,1.84-0.04,1.92a33.982,33.982,0,0,1-2.88,3.86c-1.08,1.24-1.08,1.24-1.08,1.36a1.166,1.166,0,0,0,.42.6,0.851,0.851,0,0,0,.54.4,0.423,0.423,0,0,0,.32-0.28,32.961,32.961,0,0,1,2.64-3.52c-0.02.38-.02,0.72-0.02,1.22,0,3.02,0,3.24-.02,3.88-0.02.56-.02,1.16-0.02,1.24,0,0.48.02,0.5,0.54,0.5,0.74,0,.86-0.04.86-0.28v-0.08c-0.08-.9-0.14-3.12-0.14-4.76v-2.72Zm-0.56,20.08a27.335,27.335,0,0,1-2.66,5.62,12.24,12.24,0,0,1-1.1,1.56,0.66,0.66,0,0,0-.18.36,2.089,2.089,0,0,0,1.06.8c0.2,0,.56-0.48,1.18-1.56a40.677,40.677,0,0,0,3.16-6.98c0.82-.12,2.28-0.38,2.98-0.52,0.1-.02.16-0.04,0.18-0.04,0.36-.08.42-0.12,0.42-0.28a0.617,0.617,0,0,0-.02-0.18c0-.06-0.02-0.16-0.04-0.32-0.06-.48-0.1-0.6-0.24-0.6a0.3,0.3,0,0,0-.16.04,23.113,23.113,0,0,1-2.72.6,9.556,9.556,0,0,1,.82-2.46,0.745,0.745,0,0,0,.12-0.3c0-.1-0.04-0.14-0.32-0.24a10.564,10.564,0,0,0-1.46-.34,11.56,11.56,0,0,1-.62,3.56c-1.06.12-2.42,0.22-3.12,0.22-0.18,0-.8-0.02-1.12-0.02a6.3,6.3,0,0,0,.18,1.14c0.04,0.14.08,0.16,0.36,0.16,0.14,0,.32,0,0.64-0.02,0.2-.02.38-0.02,0.48-0.04C1462.2,3928.82,1462.36,3928.8,1463.66,3928.68Zm5.7,1.6a9.214,9.214,0,0,1,.1,1.28c0.04,1.34.1,2.44,0.2,3.84a7.2,7.2,0,0,0-1.76-.2c-1.98,0-3.42,1.16-3.42,2.76,0,1.48,1.3,2.48,3.24,2.48,1.56,0,2.62-.58,3.04-1.68a3.919,3.919,0,0,0,.24-1.58,10.465,10.465,0,0,1,2.6,1.76,0.505,0.505,0,0,0,.3.2,1.733,1.733,0,0,0,.72-1.1,1.862,1.862,0,0,0-.88-0.8,12.515,12.515,0,0,0-2.78-1.5c-0.12-1.44-.18-2.56-0.18-3.52a4.1,4.1,0,0,1,.14-1.28,0.6,0.6,0,0,0,.06-0.26C1470.98,3930.46,1470.66,3930.4,1469.36,3930.28Zm0.32,6.44a2.269,2.269,0,0,1,.02.28c0,1.52-.64,2.2-2.06,2.2-1.22,0-1.94-.5-1.94-1.34,0-.9.88-1.48,2.24-1.48A4.222,4.222,0,0,1,1469.68,3936.72Zm1.22-8.24a0.3,0.3,0,0,0,.2.22,10.591,10.591,0,0,1,3.36,2.08,0.794,0.794,0,0,0,.24.14,0.448,0.448,0,0,0,.32-0.28,2.387,2.387,0,0,0,.42-0.8v-0.02c0-.36-3.14-2.22-3.78-2.24a0.217,0.217,0,0,1-.1-0.02,1.178,1.178,0,0,0-.34.36c-0.04.08-.1,0.14-0.14,0.22A1.079,1.079,0,0,0,1470.9,3928.48Zm-10.32,21.6a7.294,7.294,0,0,1,.1,1.4v0.5c-0.02.68-.02,1.24-0.02,1.66a26.472,26.472,0,0,0,.68,6.66c0.62,2.12,1.62,3.22,2.94,3.22,1.08,0,2.1-.86,2.84-2.42a3.394,3.394,0,0,0,.34-0.96,0.333,0.333,0,0,0-.12-0.24,3.3,3.3,0,0,1-.64-1.22c-0.66,2.1-1.56,3.36-2.42,3.36-1.36,0-2.24-3.12-2.24-7.9a11.42,11.42,0,0,1,.26-3.22,0.385,0.385,0,0,0,.06-0.18C1462.36,3950.48,1461.96,3950.32,1460.58,3950.08Zm10.26,2.72a11.508,11.508,0,0,1,3.2,6.9,0.155,0.155,0,0,0,.14.16,5.41,5.41,0,0,0,1.08-.34,0.338,0.338,0,0,0,.26-0.3,5.835,5.835,0,0,0-.2-0.98,12.931,12.931,0,0,0-1.3-3.4c-0.72-1.32-1.78-2.58-2.14-2.58A3.16,3.16,0,0,0,1470.84,3952.8Zm-34.68-191.6h-4.84a13.386,13.386,0,0,1-2.04-.12v1.36a15.346,15.346,0,0,1,2.04-.12h4.84v3.02h-5.92a13.273,13.273,0,0,1-2.02-.12v1.38a14.021,14.021,0,0,1,2.02-.12h5.92v4.22c0,0.42-.2.56-0.82,0.56a22.438,22.438,0,0,1-3.26-.32,3.792,3.792,0,0,1,.34,1.32c1.04,0.1,2.16.16,2.9,0.16,1.64,0,2.1-.34,2.1-1.5v-4.44h5.48a11.788,11.788,0,0,1,2,.12v-1.38a13.162,13.162,0,0,1-2,.12h-5.48v-3.02h4.64a14.021,14.021,0,0,1,2.02.12v-1.36a13.568,13.568,0,0,1-2.04.12h-4.62v-3.22a35.056,35.056,0,0,0,5.84-1.3l-1.06-1.14c-2,1.02-7.74,1.92-12.28,1.92h-0.56a3.576,3.576,0,0,1,.5,1.2,57.254,57.254,0,0,0,6.3-.5v3.04Zm-2.44,25.5a12.94,12.94,0,0,1,.96-1.42,0.918,0.918,0,0,0-.6-1.38,0.34,0.34,0,0,0-.26.12c0.12-2.24.14-2.3,0.32-2.72a0.623,0.623,0,0,0,.1-0.3c0.02-.26-0.36-0.36-1.74-0.46a8.047,8.047,0,0,1,.06,1.24c0,0.46,0,1.08-.04,2.64a23.9,23.9,0,0,1-3.82.5c0.18,0.94.38,1.42,0.6,1.42a0.77,0.77,0,0,0,.32-0.12c0.3-.16.3-0.16,2.88-0.64-0.02,1.06-.02,1.06-0.02,1.7a31.776,31.776,0,0,1-3.86,4.68,0.49,0.49,0,0,0-.26.34,2.554,2.554,0,0,0,1.04,1.02,0.342,0.342,0,0,0,.24-0.2,27.672,27.672,0,0,1,2.82-3.44c-0.02.78-.02,2.72-0.02,3.56v3.16c0,0.22.1,0.3,0.38,0.3,0.78,0,.98-0.04.98-0.22,0-.08-0.02-0.38-0.02-0.6-0.02-.24-0.02-0.44-0.02-0.6-0.02-.38-0.02-0.38-0.02-0.58-0.06-1.8-.06-2.32-0.06-5.88,2.02-1.8,3.98-2.72,5.78-2.72a3.454,3.454,0,0,1,2.5,1,3.5,3.5,0,0,1,.98,2.6c0,2.64-1.76,4.3-5.66,5.36a2.2,2.2,0,0,1,.8.72,0.343,0.343,0,0,0,.32.2,7.585,7.585,0,0,0,1.96-.64c2.66-1.2,4.06-3.1,4.06-5.54a4.94,4.94,0,0,0-1.36-3.54,4.836,4.836,0,0,0-3.52-1.3,9.128,9.128,0,0,0-5.84,2.56Zm2.16,22.02a33.52,33.52,0,0,1-5.52.48h-0.56c0.02,0.14.02,0.16,0.04,0.34,0.14,0.96.16,1.02,0.52,1.02a43.256,43.256,0,0,0,6.04-.64,11.4,11.4,0,0,0,3.5,4.48,10.688,10.688,0,0,0-4-.74c-3.26,0-5.24,1.34-5.24,3.56,0,1.7,1.3,3.02,3.6,3.66a18.506,18.506,0,0,0,4.22.58c0.48,0,.48,0,0.66-0.5,0.1-.26.28-0.7,0.42-1-0.38.02-.7,0.04-1,0.04-3.94,0-6.48-1.12-6.48-2.86,0-1.44,1.48-2.34,3.88-2.34a11.071,11.071,0,0,1,4.92,1.22,0.943,0.943,0,0,0,.42.2,0.62,0.62,0,0,0,.42-0.44,3.383,3.383,0,0,0,.38-0.92,0.356,0.356,0,0,0-.22-0.22,12.692,12.692,0,0,1-4.18-5,29.68,29.68,0,0,0,3.48-1.02c1.08-.36,1.22-0.44,1.22-0.58a4.289,4.289,0,0,0-.24-0.8c-0.12-.3-0.16-0.36-0.22-0.36a0.3,0.3,0,0,0-.16.04,24.855,24.855,0,0,1-4.6,1.54,11.874,11.874,0,0,1-.92-3v-0.16a0.252,0.252,0,0,0-.3-0.28,6.027,6.027,0,0,0-1.48.2,8.372,8.372,0,0,1,.68,1.62C1435.44,3807.62,1435.66,3808.18,1435.88,3808.72Zm5.98-3.46a0.292,0.292,0,0,0,.1.16,6.786,6.786,0,0,1,1.6,2,0.241,0.241,0,0,0,.2.16,1.841,1.841,0,0,0,.82-0.68,4.8,4.8,0,0,0-.88-1.22,3.117,3.117,0,0,0-1.12-.96,1.028,1.028,0,0,0-.44.24,0.656,0.656,0,0,1-.16.12A0.242,0.242,0,0,0,1441.86,3805.26Zm1.68-1.18a0.145,0.145,0,0,0,.08.12,6.977,6.977,0,0,1,1.62,2c0.06,0.12.08,0.14,0.16,0.14a0.783,0.783,0,0,0,.36-0.2c0.4-.26.46-0.3,0.46-0.42a5.9,5.9,0,0,0-1.9-2.18A1.416,1.416,0,0,0,1443.54,3804.08Zm-5.74,33.46c-0.32-1.44-.98-2.06-2.2-2.06a4.68,4.68,0,0,0-2.68.94,13.01,13.01,0,0,0,2.36-3.42c1.88-.22,2.2-0.26,4.24-0.64,0.6-.12.66-0.14,0.66-0.36a4.468,4.468,0,0,0-.12-0.84,0.212,0.212,0,0,0-.2-0.2,2.38,2.38,0,0,0-.34.06,27.892,27.892,0,0,1-3.64.72,6.949,6.949,0,0,1,.78-1.7,0.592,0.592,0,0,0,.16-0.32c0-.26-0.52-0.46-1.68-0.64a7.058,7.058,0,0,1-.72,2.82c-0.76.08-1.94,0.14-2.62,0.14-0.82,0-1.3-.02-2.02-0.06a4.67,4.67,0,0,0,.1,1.04,0.324,0.324,0,0,0,.4.28c1.04,0,2.36-.06,3.54-0.14a13.173,13.173,0,0,1-2.98,3.76,14.881,14.881,0,0,1-1.4,1.12,0.4,0.4,0,0,0-.24.28,1.8,1.8,0,0,0,.82,1.06,0.518,0.518,0,0,0,.34-0.18,10.951,10.951,0,0,1,1.9-1.54,5.6,5.6,0,0,1,3.04-1.12c0.74,0,1.12.48,1.32,1.66-3.54,2-4.48,2.96-4.48,4.58a2.313,2.313,0,0,0,1.54,2.28,9.074,9.074,0,0,0,3.56.48c1.48,0,3.72-.08,4.66-0.18,0.46-.04.5-0.08,0.5-0.36a6.111,6.111,0,0,0-.08-0.94,0.266,0.266,0,0,0-.24-0.28,0.254,0.254,0,0,0-.12.02,27.566,27.566,0,0,1-5,.44c-2.46,0-3.5-.44-3.5-1.5,0-1.04.84-1.9,3.08-3.1,0.1-.06.12-0.08,0.18-0.12v0.76c0,0.44,0,.74-0.02.94-0.02.38-.02,0.64-0.02,0.8,0,0.26.06,0.3,0.4,0.3a1.92,1.92,0,0,0,.86-0.12,1.342,1.342,0,0,0,.08-0.9c0-.66-0.02-1.72-0.06-2.44a44.452,44.452,0,0,1,5.72-2.6,0.344,0.344,0,0,0,.34-0.3,4.721,4.721,0,0,0-.98-1.48,11.672,11.672,0,0,1-2.88,1.8Zm3.14,31.24a4.744,4.744,0,0,1-1.72-2.46,18.052,18.052,0,0,0,.28-2.3,6.247,6.247,0,0,1,.1-1.02l-1.2-.12c0.02,0.26.02,0.36,0.02,0.64,0,3.12-.64,5.04-2.28,6.94a4.143,4.143,0,0,1,1.04.64,10.415,10.415,0,0,0,1.74-3.5,4.558,4.558,0,0,0,1.9,2.34,7.255,7.255,0,0,0,3.74.82c0.2,0,.52,0,0.92-0.02a3.661,3.661,0,0,1,.38-1.26,15.188,15.188,0,0,1-1.84.12,6.164,6.164,0,0,1-2.02-.28v-3.58h1.02a9.025,9.025,0,0,1,1.64.1v-1.16a8.377,8.377,0,0,1-1.64.1H1442v-3.34h2.24a8.877,8.877,0,0,1-1.18,1.78,3.286,3.286,0,0,1,.88.5,15.08,15.08,0,0,0,1.02-1.66c0.1-.18.18-0.34,0.26-0.48,0.22-.42.24-0.44,0.32-0.58l-0.52-.62a14.943,14.943,0,0,1-1.62.06h-0.86l0.82-.72c-0.52-.5-0.68-0.66-1.12-1.08a16.35,16.35,0,0,0,2.28-2.56c0.36-.48.38-0.52,0.5-0.66l-0.58-.74a13.905,13.905,0,0,1-1.56.06h-2.56a12.462,12.462,0,0,1-1.9-.1v1.18a14.978,14.978,0,0,1,1.8-.08h3.28a11.076,11.076,0,0,1-2.02,2.26c-0.6-.5-0.82-0.68-1.58-1.24l-0.8.66a19.693,19.693,0,0,1,3.42,3.02h-2.98a8.961,8.961,0,0,1-1.7-.1v1.2a10.951,10.951,0,0,1,1.68-.1h1.42v7.34Zm-6.7-6.12a15.472,15.472,0,0,1-.18,2.1h-1.32a10.207,10.207,0,0,1-1.44-.08v1.18a9.369,9.369,0,0,1,1.4-.1h1.18a6.379,6.379,0,0,1-3.28,4.5,2.775,2.775,0,0,1,.74.9,8.125,8.125,0,0,0,2.22-2.14,8.3,8.3,0,0,0,1.06-2.28,8.251,8.251,0,0,0,1.78,2.42,4.49,4.49,0,0,1,.66-0.96,6.463,6.463,0,0,1-2.02-2.44h1.2a8.162,8.162,0,0,1,1.4.08v-1.16a8.7,8.7,0,0,1-1.44.08h-1.14a12.774,12.774,0,0,0,.18-2.1h0.88c0.54,0,.88.02,1.44,0.06v-1.1a8.979,8.979,0,0,1-1.46.08h-2.62c0.12-.3.2-0.48,0.44-1.14l-1.04-.34a6.709,6.709,0,0,1-1.68,3.28,3.481,3.481,0,0,1,.84.68,9.279,9.279,0,0,0,.98-1.52h1.22Zm-0.82-5.32a20.024,20.024,0,0,0,4.34-1.8l-0.78-.98a9.621,9.621,0,0,1-3.56,1.78v-0.92a7.211,7.211,0,0,1,.1-1.46h-1.28a8.031,8.031,0,0,1,.1,1.5v3.22c0,1.06.4,1.26,2.54,1.26,2.74,0,2.98-.18,3.26-2.58a3.207,3.207,0,0,1-1.08-.48,4.767,4.767,0,0,1-.26,1.68c-0.18.32-.58,0.4-1.9,0.4-1.28,0-1.48-.08-1.48-0.6v-1.02Zm-5.46-1.92a18.628,18.628,0,0,1,2.38,3.74l1.02-.78a25.948,25.948,0,0,0-2.42-3.66Zm2.2,7.72a22.1,22.1,0,0,1-1.66,4.14,7.974,7.974,0,0,1-1.02,1.58l1.08,1.02c0.18-.38.26-0.56,0.46-0.96a33.05,33.05,0,0,0,2.08-4.94Zm1.78,20.18a12.081,12.081,0,0,1-.18,1.64,54.941,54.941,0,0,0-.64,5.48c-0.02.32-.04,0.5-0.04,0.54a0.29,0.29,0,0,0,.2.32,2.927,2.927,0,0,0,.92.4,0.4,0.4,0,0,0,.28-0.24,4.536,4.536,0,0,1,.58-0.74,9.038,9.038,0,0,1,6.02-2.96,2.355,2.355,0,0,1,2.66,2.34c0,1.24-.88,2.32-2.44,3.04a14.365,14.365,0,0,1-5.14,1.22,2.062,2.062,0,0,1,.64.7,0.549,0.549,0,0,0,.48.4,17.181,17.181,0,0,0,4.12-.88c2.54-.96,3.84-2.44,3.84-4.42,0-2.2-1.62-3.62-4.12-3.62a8.493,8.493,0,0,0-4,1.06,12.87,12.87,0,0,0-2.7,1.98c0.32-3.06.66-4.86,1-5.44a0.665,0.665,0,0,0,.14-0.28A2.49,2.49,0,0,0,1431.94,3883.32Zm2.98-4.06a0.637,0.637,0,0,0-.48.46,1.893,1.893,0,0,0-.26.52,0.208,0.208,0,0,0,.18.18,11.784,11.784,0,0,1,4.22,2.26,0.244,0.244,0,0,0,.18.08,1.844,1.844,0,0,0,.76-1.08,0.384,0.384,0,0,0-.22-0.28,10.342,10.342,0,0,0-1.8-1.16A12.2,12.2,0,0,0,1434.92,3879.26Zm-2.38,24.92a10.217,10.217,0,0,1,.1,1.56v0.58c-0.04,1.2-.2,9.18-0.2,9.68,0,2.98,1.22,4.38,3.84,4.38a8.791,8.791,0,0,0,5.14-1.7c1.24-.88,2.56-2.26,2.56-2.68a0.477,0.477,0,0,0-.08-0.24,3.549,3.549,0,0,1-.42-1.22,10.508,10.508,0,0,1-3.2,3.24,7.242,7.242,0,0,1-3.92,1.18c-1.88,0-2.56-.82-2.56-3.04,0-1.34.18-6.86,0.28-8.76a8.944,8.944,0,0,1,.3-2.18,0.987,0.987,0,0,0,.06-0.3c0-.2-0.08-0.26-0.38-0.32A10.212,10.212,0,0,0,1432.54,3904.18Zm0.28,27.98a27.489,27.489,0,0,1-3.3.28c-0.1,0-.1,0-0.88-0.02a6.248,6.248,0,0,0,.16,1.08c0.04,0.18.1,0.2,0.4,0.2a31.2,31.2,0,0,0,3.36-.26,42.528,42.528,0,0,1-2.42,7.74,15.959,15.959,0,0,1-1.02,2.1,0.678,0.678,0,0,0-.1.28,0.325,0.325,0,0,0,.22.26,3.279,3.279,0,0,0,.94.42c0.16,0,.36-0.38.98-1.9a49.666,49.666,0,0,0,2.78-9.12c0.76-.12,2.52-0.48,3.1-0.62a0.836,0.836,0,0,1,.18-0.06c0.14-.02.16-0.06,0.16-0.22a8.318,8.318,0,0,0-.18-0.94c-0.04-.1-0.06-0.12-0.14-0.12a0.3,0.3,0,0,0-.12.02,27.981,27.981,0,0,1-2.74.66,8.662,8.662,0,0,1,.56-2.38,1.409,1.409,0,0,0,.22-0.54,0.211,0.211,0,0,0-.16-0.22,7.713,7.713,0,0,0-1.62-.36,2.455,2.455,0,0,1,.02.34A17.161,17.161,0,0,1,1432.82,3932.16Zm8.6,3.08a16.5,16.5,0,0,1,1.9.12h0.1c0.2,0,.24-0.14.24-0.76a1.094,1.094,0,0,0-.06-0.52,3.627,3.627,0,0,0-1.72-.16,21.484,21.484,0,0,0-4.2.36,0.242,0.242,0,0,0-.24.28,4.718,4.718,0,0,0,.08.88,0.2,0.2,0,0,0,.22.18,0.217,0.217,0,0,0,.1-0.02A19.755,19.755,0,0,1,1441.42,3935.24Zm-4.94,5.28c-0.96.52-1.02,0.56-1.02,0.72a1.528,1.528,0,0,0,.1.42,3.99,3.99,0,0,0,1.2,1.74,6.209,6.209,0,0,0,4,1,20.826,20.826,0,0,0,3.02-.22,0.273,0.273,0,0,0,.26-0.3,3.526,3.526,0,0,0-.04-0.38c-0.02-.1-0.02-0.2-0.04-0.32-0.04-.42-0.08-0.48-0.3-0.48a0.974,0.974,0,0,0-.24.02,13.026,13.026,0,0,1-2.76.28C1438.14,3943,1437.06,3942.36,1436.48,3940.52Zm-0.8,18.44a11.528,11.528,0,0,0,1.4-1.04h0.58c0.26,1.16.32,1.36,0.46,1.84a15.951,15.951,0,0,0,3.28,6.06,17.117,17.117,0,0,0,3.14,2.66,5.693,5.693,0,0,1,.94-1.08,12.28,12.28,0,0,1-5.08-4.9,22.949,22.949,0,0,0,2.34-1.94,15.116,15.116,0,0,1,1.16-1.04l-1.08-.86a11.747,11.747,0,0,1-2.94,2.84,15.11,15.11,0,0,1-1.14-3.58h2.06a17.215,17.215,0,0,1,1.88.1v-1.22a11.265,11.265,0,0,1-1.88.1h-8.12a11.713,11.713,0,0,1-1.88-.1v1.22a17.8,17.8,0,0,1,1.88-.1h2.82a17.655,17.655,0,0,1-6.72,2.62,3.28,3.28,0,0,1,.72,1.04,21.839,21.839,0,0,0,5.14-2,6.5,6.5,0,0,1,1.12,1.34,16.3,16.3,0,0,1-3.02,1.68,25.228,25.228,0,0,1-4.4,1.46,3.214,3.214,0,0,1,.72,1.06,24.1,24.1,0,0,0,7.18-3.28,9.06,9.06,0,0,1,.54,1.62,21.334,21.334,0,0,1-8.62,4.2,5.021,5.021,0,0,1,.74,1.06,24.023,24.023,0,0,0,8.12-4.06,11.8,11.8,0,0,1,.08,1.44c0,1.82-.26,2.3-1.26,2.3a12.036,12.036,0,0,1-2.46-.3,4.287,4.287,0,0,1,.3,1.28,20.321,20.321,0,0,0,2.28.14,2.006,2.006,0,0,0,1.76-.58,4.395,4.395,0,0,0,.56-2.56c0-2.98-1.1-5.9-2.76-7.32Zm0.24-4.94h-5.26a18.58,18.58,0,0,1-1.94-.08,8.447,8.447,0,0,1,.08,1.28v1.18a8.827,8.827,0,0,1-.08,1.32h1.26v-2.64h13.56v2.64h1.26a8.167,8.167,0,0,1-.08-1.32v-1.18a7.642,7.642,0,0,1,.08-1.28,18.58,18.58,0,0,1-1.94.08h-5.7v-0.6a5.907,5.907,0,0,1,.12-1.18h-1.48a5.761,5.761,0,0,1,.12,1.18v0.6Zm-2.96,24.32a16.647,16.647,0,0,1-2.16-.1,11.345,11.345,0,0,1,.1,1.82v6.36a12.661,12.661,0,0,1-.1,1.98c0.64-.06,1.34-0.1,2.04-0.1h7.72c0.7,0,1.38.04,2.04,0.1a11.368,11.368,0,0,1-.1-1.92v-6.34a10.812,10.812,0,0,1,.1-1.9,15.173,15.173,0,0,1-2,.1h-7.64Zm8.34,1.06v1.86h-9.2v-1.86h9.2Zm0,2.9v1.94h-9.2v-1.94h9.2Zm0,2.98v1.98h-9.2v-1.98h9.2Zm-13.08,5.68a13.807,13.807,0,0,1,1.98-.12h13.12a13.9,13.9,0,0,1,1.96.12v-1.38a13.423,13.423,0,0,1-1.98.12h-13.1a13.236,13.236,0,0,1-1.98-.12v1.38Zm5.64,0.3c-1.5,1.34-2.6,1.86-5.34,2.52a3.769,3.769,0,0,1,.84,1.08,12.668,12.668,0,0,0,5.58-2.9Zm4.42,0.68a15.976,15.976,0,0,0,5.82,2.84,5.531,5.531,0,0,1,.84-1.1,13.743,13.743,0,0,1-5.6-2.44Z" transform="translate(-1427.47 -3755.53)"/>
</svg>
