<svg id="title.svg" xmlns="http://www.w3.org/2000/svg" width="423.996" height="73.531" viewBox="0 0 423.996 73.531">
  <defs>
    <style>
      .cls-1 {
        fill: #1b2a41;
      }

      .cls-1, .cls-2 {
        fill-rule: evenodd;
      }

      .cls-2 {
        fill: none;
        stroke: #1b2a41;
        stroke-width: 1.2px;
      }
    </style>
  </defs>
  <path id="title" class="cls-1" d="M765.435,244.386a14.529,14.529,0,0,0-5.734,4.187,19.3,19.3,0,0,0-3.61,7.094,41.316,41.316,0,0,0,0,20.172,19.307,19.307,0,0,0,3.61,7.078,14.529,14.529,0,0,0,5.734,4.187,21.874,21.874,0,0,0,15.266,0,14.524,14.524,0,0,0,5.75-4.187,19.321,19.321,0,0,0,3.609-7.078,41.316,41.316,0,0,0,0-20.172,19.311,19.311,0,0,0-3.609-7.094,14.524,14.524,0,0,0-5.75-4.187A21.874,21.874,0,0,0,765.435,244.386Zm11.906,6.656a8.451,8.451,0,0,1,3.078,2.781,13.07,13.07,0,0,1,1.844,4.422,25.943,25.943,0,0,1,.61,5.891v3.218a25.937,25.937,0,0,1-.61,5.891,13.053,13.053,0,0,1-1.844,4.422,8.442,8.442,0,0,1-3.078,2.781,9.941,9.941,0,0,1-8.562,0,8.313,8.313,0,0,1-3.063-2.781,13.287,13.287,0,0,1-1.828-4.422,26,26,0,0,1-.609-5.891v-3.218a26,26,0,0,1,.609-5.891,13.3,13.3,0,0,1,1.828-4.422,8.322,8.322,0,0,1,3.063-2.781A9.941,9.941,0,0,1,777.341,251.042Zm44.628-7.25H792.031v7.313h10.875V287.7h8.188V251.105h10.875v-7.313ZM847.564,287.7h8.219V243.792h-8.219v17.781H833.751V243.792h-8.187V287.7h8.187V268.886h13.813V287.7Zm45.5,0v-7.281H872.906V268.886h16.969v-7.313H872.906V251.105h19.782v-7.313H864.719V287.7h28.343Zm23.344-18.313,7.313,18.313h8.906L924.156,267.6a11.707,11.707,0,0,0,3.078-1.8,11.43,11.43,0,0,0,2.313-2.547,11.753,11.753,0,0,0,1.469-3.188,13.235,13.235,0,0,0,.515-3.75,14.2,14.2,0,0,0-.859-5.015,10.868,10.868,0,0,0-2.547-3.969,11.668,11.668,0,0,0-4.2-2.61,16.667,16.667,0,0,0-5.828-.937H899.719V287.7h8.187V269.385h8.5Zm0.844-18.28a4.752,4.752,0,0,1,5.438,5.218,6.246,6.246,0,0,1-1.375,4.3,5.576,5.576,0,0,1-4.375,1.547h-9.032V251.105h9.344Zm45.56-7.344a13.861,13.861,0,0,0-4.672,2.281,11.312,11.312,0,0,0-3.219,3.844,11.629,11.629,0,0,0-1.2,5.437,14.37,14.37,0,0,0,.594,4.36,10.589,10.589,0,0,0,1.625,3.218,10.993,10.993,0,0,0,2.391,2.329,17.662,17.662,0,0,0,2.89,1.671,29.265,29.265,0,0,0,3.157,1.234q1.624,0.533,3.156,1.047t2.89,1.094a10.807,10.807,0,0,1,2.391,1.375,5.922,5.922,0,0,1,1.625,1.906,5.594,5.594,0,0,1,.594,2.672,5.373,5.373,0,0,1-.344,1.891,4.345,4.345,0,0,1-1.125,1.656,5.772,5.772,0,0,1-2.063,1.188,9.428,9.428,0,0,1-3.124.453,8.242,8.242,0,0,1-2.985-.5,5.984,5.984,0,0,1-3.578-3.625,8.237,8.237,0,0,1-.469-2.844c0-.167.011-0.364,0.031-0.594s0.032-.374.032-0.437h-8.531c0,0.167-.011.38-0.032,0.641s-0.031.515-.031,0.765a13.525,13.525,0,0,0,1.234,5.937,12.446,12.446,0,0,0,3.328,4.282,14.244,14.244,0,0,0,4.844,2.578,19.268,19.268,0,0,0,5.781.859,24.03,24.03,0,0,0,6.251-.765,12.929,12.929,0,0,0,4.89-2.438,11.164,11.164,0,0,0,3.188-4.328,16.3,16.3,0,0,0,1.14-6.437,12.7,12.7,0,0,0-.922-5.126,10.726,10.726,0,0,0-2.421-3.515,13.4,13.4,0,0,0-3.407-2.344,35.47,35.47,0,0,0-3.906-1.609q-2-.687-3.906-1.266a20.63,20.63,0,0,1-3.406-1.344,7.766,7.766,0,0,1-2.422-1.843,4.058,4.058,0,0,1-.922-2.735,4.158,4.158,0,0,1,1.578-3.343,6.993,6.993,0,0,1,4.578-1.313,5.807,5.807,0,0,1,4.391,1.641,6.116,6.116,0,0,1,1.578,4.422v0.594h8.375v-0.782a13.727,13.727,0,0,0-1.141-5.828,11.192,11.192,0,0,0-3.078-4.031,12.648,12.648,0,0,0-4.531-2.328,19.829,19.829,0,0,0-5.531-.75A20.371,20.371,0,0,0,962.81,243.761Zm52.85,0.031H985.718v7.313h10.875V287.7h8.187V251.105h10.88v-7.313Zm12.53,0.594a14.605,14.605,0,0,0-5.74,4.187,19.45,19.45,0,0,0-3.61,7.094,41.316,41.316,0,0,0,0,20.172,19.461,19.461,0,0,0,3.61,7.078,14.605,14.605,0,0,0,5.74,4.187,21.857,21.857,0,0,0,15.26,0,14.5,14.5,0,0,0,5.75-4.187,19.156,19.156,0,0,0,3.61-7.078,41.316,41.316,0,0,0,0-20.172,19.146,19.146,0,0,0-3.61-7.094,14.5,14.5,0,0,0-5.75-4.187A21.857,21.857,0,0,0,1028.19,244.386Zm11.9,6.656a8.425,8.425,0,0,1,3.08,2.781,13.216,13.216,0,0,1,1.85,4.422,26.378,26.378,0,0,1,.6,5.891v3.218a26.372,26.372,0,0,1-.6,5.891,13.2,13.2,0,0,1-1.85,4.422,8.416,8.416,0,0,1-3.08,2.781,9.937,9.937,0,0,1-8.56,0,8.282,8.282,0,0,1-3.06-2.781,13.393,13.393,0,0,1-1.83-4.422,25.768,25.768,0,0,1-.61-5.891v-3.218a25.774,25.774,0,0,1,.61-5.891,13.411,13.411,0,0,1,1.83-4.422,8.29,8.29,0,0,1,3.06-2.781A9.937,9.937,0,0,1,1040.09,251.042Zm35.41,18.343,7.31,18.313h8.91l-8.47-20.094a11.719,11.719,0,0,0,3.08-1.8,11.2,11.2,0,0,0,2.31-2.547,11.492,11.492,0,0,0,1.47-3.188,13.342,13.342,0,0,0,.52-3.75,14.264,14.264,0,0,0-.86-5.015,10.9,10.9,0,0,0-2.55-3.969,11.759,11.759,0,0,0-4.2-2.61,16.682,16.682,0,0,0-5.83-.937h-18.38V287.7H1067V269.385h8.5Zm0.85-18.28a4.742,4.742,0,0,1,5.43,5.218,6.274,6.274,0,0,1-1.37,4.3,5.592,5.592,0,0,1-4.38,1.547H1067V251.105h9.35Zm31.74-7.313h-8.22V287.7h8.22V243.792Zm37.94,43.906v-7.281h-20.16V268.886h16.97v-7.313h-16.97V251.105h19.78v-7.313h-27.97V287.7h28.35Zm12.15-43.937a13.916,13.916,0,0,0-4.67,2.281,11.452,11.452,0,0,0-3.22,3.844,11.653,11.653,0,0,0-1.2,5.437,14.567,14.567,0,0,0,.59,4.36,10.665,10.665,0,0,0,1.63,3.218,10.967,10.967,0,0,0,2.39,2.329,17.874,17.874,0,0,0,2.89,1.671,28.756,28.756,0,0,0,3.16,1.234q1.62,0.533,3.15,1.047c1.02,0.344,1.99.709,2.89,1.094a10.575,10.575,0,0,1,2.39,1.375,5.962,5.962,0,0,1,1.63,1.906,5.548,5.548,0,0,1,.59,2.672,5.347,5.347,0,0,1-.34,1.891,4.26,4.26,0,0,1-1.13,1.656,5.706,5.706,0,0,1-2.06,1.188,9.382,9.382,0,0,1-3.12.453,8.278,8.278,0,0,1-2.99-.5,6.12,6.12,0,0,1-2.2-1.422,6.243,6.243,0,0,1-1.38-2.2,8.286,8.286,0,0,1-.46-2.844c0-.167.01-0.364,0.03-0.594s0.03-.374.03-0.437h-8.53c0,0.167-.01.38-0.03,0.641s-0.04.515-.04,0.765a13.568,13.568,0,0,0,1.24,5.937,12.356,12.356,0,0,0,3.33,4.282,14.2,14.2,0,0,0,4.84,2.578,19.247,19.247,0,0,0,5.78.859,24,24,0,0,0,6.25-.765,12.856,12.856,0,0,0,4.89-2.438,11.1,11.1,0,0,0,3.19-4.328,16.3,16.3,0,0,0,1.14-6.437,12.789,12.789,0,0,0-.92-5.126,10.815,10.815,0,0,0-2.42-3.515,13.435,13.435,0,0,0-3.41-2.344,34.9,34.9,0,0,0-3.91-1.609q-2-.687-3.9-1.266a20.715,20.715,0,0,1-3.41-1.344,7.722,7.722,0,0,1-2.42-1.843,4.082,4.082,0,0,1-.92-2.735,4.137,4.137,0,0,1,1.58-3.343,6.965,6.965,0,0,1,4.57-1.313,5.831,5.831,0,0,1,4.4,1.641,6.116,6.116,0,0,1,1.57,4.422v0.594h8.38v-0.782a13.727,13.727,0,0,0-1.14-5.828,11.208,11.208,0,0,0-3.08-4.031,12.619,12.619,0,0,0-4.53-2.328,19.812,19.812,0,0,0-5.53-.75A20.464,20.464,0,0,0,1158.18,243.761Z" transform="translate(-754.844 -214.938)"/>
  <path id="BEAMS_fennica" data-name="BEAMS    fennica" class="cls-1" d="M809.227,228.65h5.1a4.19,4.19,0,0,0,1.346-.215,3.32,3.32,0,0,0,1.118-.627,2.973,2.973,0,0,0,1.047-2.332,3.3,3.3,0,0,0-.161-1.048,3.014,3.014,0,0,0-.443-0.864,2.939,2.939,0,0,0-1.489-1.052v-0.067a2.728,2.728,0,0,0,1.291-.973,2.765,2.765,0,0,0,.384-0.775,3.074,3.074,0,0,0,.139-0.947,2.856,2.856,0,0,0-.245-1.195,2.716,2.716,0,0,0-.675-0.922,3.106,3.106,0,0,0-1.021-.6,3.756,3.756,0,0,0-1.291-.215h-5.1v11.83Zm4.633-5.086a2.047,2.047,0,0,1,.751.127,1.446,1.446,0,0,1,.532.349,1.463,1.463,0,0,1,.316.522,1.9,1.9,0,0,1,.106.635,1.565,1.565,0,0,1-.123.64,1.314,1.314,0,0,1-.337.468,1.468,1.468,0,0,1-.507.286,2.021,2.021,0,0,1-.637.1h-2.523v-3.124h2.422Zm-0.034-4.774a1.6,1.6,0,0,1,1.064.341,1.253,1.253,0,0,1,.4,1.015,1.63,1.63,0,0,1-.1.568,1.24,1.24,0,0,1-.295.463,1.437,1.437,0,0,1-.494.316,1.845,1.845,0,0,1-.691.118h-2.279V218.79h2.388Zm13.628,9.86v-1.962h-5.443v-3.107h4.582v-1.97h-4.582V218.79h5.342v-1.97H819.8v11.83h7.654Zm7.5-11.83h-2.574l-3.823,11.83H830.7l0.708-2.324h4.372l0.725,2.324h2.262Zm-1.317,1.987q0.042,0.287.1,0.564,0.042,0.244.109,0.522c0.045,0.185.09,0.357,0.135,0.514l1.19,3.949h-3.156l1.207-3.949a4.419,4.419,0,0,0,.126-0.48c0.04-.185.076-0.359,0.11-0.522q0.058-.287.11-0.6h0.067Zm16.379,9.843V216.82h-3l-1.452,6.517c-0.022.084-.045,0.188-0.067,0.312s-0.045.256-.067,0.4-0.046.291-.068,0.442-0.042.3-.059,0.447q-0.068.513-.135,1.078H845.1q-0.084-.54-0.168-1.045c-0.023-.14-0.048-0.287-0.076-0.441s-0.055-.3-0.081-0.447-0.05-.279-0.075-0.408-0.05-.242-0.072-0.337l-1.468-6.517h-3.106v11.83h1.882v-7.536c0-.056,0-0.126,0-0.21s-0.007-.177-0.013-0.278-0.01-.207-0.013-0.316-0.007-.215-0.012-0.316q-0.026-.362-0.042-0.774h0.067l2.093,9.43h1.915L848,219.22h0.068q-0.025.395-.042,0.749c-0.012.2-.022,0.412-0.03,0.627s-0.013.389-.013,0.518v7.536h2.034Zm4.481-11.838a3.729,3.729,0,0,0-1.262.614,3.046,3.046,0,0,0-.869,1.036,3.122,3.122,0,0,0-.325,1.465,3.869,3.869,0,0,0,.16,1.175,2.862,2.862,0,0,0,.439.867,2.975,2.975,0,0,0,.646.627,4.706,4.706,0,0,0,.78.45,7.835,7.835,0,0,0,.852.333q0.44,0.143.853,0.282c0.275,0.093.536,0.191,0.78,0.295a2.934,2.934,0,0,1,.646.37,1.608,1.608,0,0,1,.439.514,1.513,1.513,0,0,1,.16.72,1.441,1.441,0,0,1-.093.509,1.165,1.165,0,0,1-.3.446,1.547,1.547,0,0,1-.557.32,2.532,2.532,0,0,1-.843.122,2.251,2.251,0,0,1-.806-0.134,1.663,1.663,0,0,1-.6-0.383,1.639,1.639,0,0,1-.371-0.594,2.194,2.194,0,0,1-.127-0.766c0-.045,0-0.1.008-0.16s0.009-.1.009-0.118h-2.3c0,0.045,0,.1-0.008.172s-0.009.139-.009,0.207a3.632,3.632,0,0,0,.334,1.6,3.341,3.341,0,0,0,.9,1.153,3.839,3.839,0,0,0,1.308.695,5.228,5.228,0,0,0,1.561.231,6.522,6.522,0,0,0,1.688-.206,3.5,3.5,0,0,0,1.321-.657,3,3,0,0,0,.86-1.166,4.365,4.365,0,0,0,.308-1.734,3.413,3.413,0,0,0-.249-1.381,2.885,2.885,0,0,0-.653-0.947,3.634,3.634,0,0,0-.92-0.632,9.583,9.583,0,0,0-1.055-.434q-0.54-.184-1.055-0.341a5.5,5.5,0,0,1-.92-0.362,2.106,2.106,0,0,1-.654-0.5,1.092,1.092,0,0,1-.249-0.737,1.12,1.12,0,0,1,.426-0.9,1.892,1.892,0,0,1,1.237-.353,1.567,1.567,0,0,1,1.185.442,1.643,1.643,0,0,1,.426,1.191v0.16h2.262V220.1a3.7,3.7,0,0,0-.308-1.57,3.01,3.01,0,0,0-.831-1.086,3.416,3.416,0,0,0-1.224-.627,5.354,5.354,0,0,0-1.493-.2A5.5,5.5,0,0,0,854.5,216.812Zm28.678-.878a1.9,1.9,0,0,0-.691.579,2.265,2.265,0,0,0-.363.818,4.129,4.129,0,0,0-.106.937v1.157h-0.966v1.83h0.966v7.688H884.2v-7.688h1.647v-1.83H884.2V218.32a0.68,0.68,0,0,1,.761-0.777h0.886v-1.618c-0.088-.023-0.2-0.048-0.328-0.075s-0.265-.05-0.407-0.07-0.287-.037-0.434-0.049-0.284-.018-0.408-0.018A2.391,2.391,0,0,0,883.177,215.934Zm4.9,4.476a7.967,7.967,0,0,0,0,7.544,3.331,3.331,0,0,0,2.786,1.21,4.038,4.038,0,0,0,1.346-.216,2.864,2.864,0,0,0,1.072-.658,3.011,3.011,0,0,0,.7-1.119,4.558,4.558,0,0,0,.252-1.594h-2.152a2.314,2.314,0,0,1-.332,1.334,1.034,1.034,0,0,1-.89.477,1.211,1.211,0,0,1-.674-0.177,1.29,1.29,0,0,1-.447-0.517,2.927,2.927,0,0,1-.257-0.835,7.446,7.446,0,0,1-.093-1.131h4.845V224.18a6.57,6.57,0,0,0-.859-3.77,2.966,2.966,0,0,0-2.586-1.206A3.256,3.256,0,0,0,888.074,220.41Zm3.6,1.136a3.722,3.722,0,0,1,.279,1.609h-2.533a3.762,3.762,0,0,1,.367-1.609,1.067,1.067,0,0,1,1.006-.565A0.924,0.924,0,0,1,891.675,221.546Zm8.3-2.227a2.837,2.837,0,0,0-.664.305,2.741,2.741,0,0,0-.541.446,4.505,4.505,0,0,0-.425.53h-0.106l-0.222-1.175h-1.807v9.518h2.171v-5.868a2.4,2.4,0,0,1,.11-0.742,1.976,1.976,0,0,1,.31-0.6,1.447,1.447,0,0,1,.474-0.407,1.238,1.238,0,0,1,.594-0.146,1.163,1.163,0,0,1,.921.384,1.986,1.986,0,0,1,.336,1.3v6.08h2.171v-6.681a4.622,4.622,0,0,0-.191-1.423,2.51,2.51,0,0,0-.527-0.945,1.966,1.966,0,0,0-.8-0.526,3.012,3.012,0,0,0-1.014-.164A2.619,2.619,0,0,0,899.97,219.319Zm9.451,0a2.864,2.864,0,0,0-.665.305,2.764,2.764,0,0,0-.54.446,4.505,4.505,0,0,0-.425.53h-0.106l-0.222-1.175h-1.807v9.518h2.17v-5.868a2.4,2.4,0,0,1,.111-0.742,1.976,1.976,0,0,1,.31-0.6,1.447,1.447,0,0,1,.474-0.407,1.237,1.237,0,0,1,.593-0.146,1.164,1.164,0,0,1,.922.384,1.986,1.986,0,0,1,.336,1.3v6.08h2.17v-6.681a4.625,4.625,0,0,0-.19-1.423,2.51,2.51,0,0,0-.527-0.945,1.972,1.972,0,0,0-.8-0.526,3.012,3.012,0,0,0-1.014-.164A2.619,2.619,0,0,0,909.421,219.319Zm7.476,0.106h-2.171v9.518H916.9v-9.518Zm0-3.57h-2.171v1.979H916.9v-1.979Zm2.608,4.555a6.445,6.445,0,0,0-.881,3.77,10.251,10.251,0,0,0,.212,2.223,4.185,4.185,0,0,0,.66,1.555,2.711,2.711,0,0,0,1.13.91,4.013,4.013,0,0,0,1.612.3,3.87,3.87,0,0,0,1.346-.221,2.576,2.576,0,0,0,1.028-.684,3.161,3.161,0,0,0,.655-1.185,5.658,5.658,0,0,0,.23-1.718h-2.161a3.337,3.337,0,0,1-.257,1.484,0.877,0.877,0,0,1-.841.5,1.061,1.061,0,0,1-1.041-.72,5.56,5.56,0,0,1-.306-2.09v-0.69a5.846,5.846,0,0,1,.288-2.086,1,1,0,0,1,.979-0.715,0.9,0.9,0,0,1,.833.482,3.106,3.106,0,0,1,.274,1.488H925.5a5.548,5.548,0,0,0-.234-1.714,3.133,3.133,0,0,0-.669-1.18,2.645,2.645,0,0,0-1.054-.685,4.105,4.105,0,0,0-1.382-.221A3.073,3.073,0,0,0,919.505,220.41Zm9.615-1.016a3.04,3.04,0,0,0-1.014.535,2.348,2.348,0,0,0-.651.835,2.51,2.51,0,0,0-.231,1.083v0.221a0.816,0.816,0,0,0,.018.177h2.126v-0.266a1.26,1.26,0,0,1,.053-0.349,0.812,0.812,0,0,1,.182-0.323,0.957,0.957,0,0,1,.349-0.233,1.433,1.433,0,0,1,.558-0.093,1.162,1.162,0,0,1,.5.093,0.714,0.714,0,0,1,.3.251,0.994,0.994,0,0,1,.147.372,2.534,2.534,0,0,1,.039.459v1a10.66,10.66,0,0,0-1.908.159,4.3,4.3,0,0,0-1.5.543,2.729,2.729,0,0,0-.975,1.021,3.3,3.3,0,0,0-.35,1.6,3.148,3.148,0,0,0,.249,1.352,2.276,2.276,0,0,0,.615.817,2.106,2.106,0,0,0,.78.407,2.892,2.892,0,0,0,.748.11,3.519,3.519,0,0,0,.837-0.088,2.456,2.456,0,0,0,.642-0.252,2.175,2.175,0,0,0,.5-0.4,4.943,4.943,0,0,0,.425-0.517h0.1a1.75,1.75,0,0,0,.593.907,1.687,1.687,0,0,0,1.09.348,2.584,2.584,0,0,0,1.293-.291v-1.538H934.2a0.5,0.5,0,0,1-.345-0.15,0.641,0.641,0,0,1-.16-0.486v-4.684a2.686,2.686,0,0,0-.8-2.073,3.513,3.513,0,0,0-2.454-.738A4.329,4.329,0,0,0,929.12,219.394Zm2.382,5.873a3.856,3.856,0,0,1-.079.8,2.132,2.132,0,0,1-.253.662,1.326,1.326,0,0,1-.443.456,1.226,1.226,0,0,1-.66.167,1.025,1.025,0,0,1-.81-0.287,1.143,1.143,0,0,1-.252-0.782,1.289,1.289,0,0,1,.212-0.76,1.51,1.51,0,0,1,.563-0.477,2.678,2.678,0,0,1,.8-0.247,5.936,5.936,0,0,1,.925-0.071v0.539Z" transform="translate(-754.844 -214.938)"/>
  <path id="シェイプ_12" data-name="シェイプ 12" class="cls-2" d="M877.306,216.82l-7.8,5.638,7.8,5.638" transform="translate(-754.844 -214.938)"/>
  <path id="シェイプ_12-2" data-name="シェイプ 12" class="cls-2" d="M939.059,228.1l7.8-5.638-7.8-5.638" transform="translate(-754.844 -214.938)"/>
  <path id="ニッポン最高の手しごと" class="cls-1" d="M960.4,218.007a9.285,9.285,0,0,0,.154,1.85,0.341,0.341,0,0,0,.355.231c0.031,0,.278-0.015.479-0.031,0.849-.062,1.653-0.077,2.842-0.077,1.791,0,4.046.015,4.355,0.031a1.959,1.959,0,0,0,.263.015c0.2,0,.247-0.123.247-0.647,0-.431-0.015-0.971-0.031-1.094-0.031-.216-0.093-0.262-0.263-0.262a0.773,0.773,0,0,0-.169.015,35.911,35.911,0,0,1-4.14.154A27.455,27.455,0,0,1,960.4,218.007Zm-1.807,6.7c0.123,1.849.185,2.127,0.54,2.127a1.188,1.188,0,0,0,.278-0.031,68.678,68.678,0,0,1,7.228-.185c1.993,0,2.935.016,3.753,0.092,0.232,0.016.232,0.016,0.263,0.016,0.262,0,.293-0.077.293-0.863a1.824,1.824,0,0,0-.139-1.171,0.488,0.488,0,0,0-.185-0.031c-0.062,0-.17,0-0.34.015-1.112.093-3.459,0.139-6.27,0.139C961.357,224.819,959.844,224.788,958.593,224.711Zm18.141-.971a4.167,4.167,0,0,0,.942-0.447,0.651,0.651,0,0,0,.417-0.4,7.635,7.635,0,0,0-.973-1.834,1.772,1.772,0,0,0-.711-0.832,1.183,1.183,0,0,0-.633.293,0.951,0.951,0,0,0-.587.508,1.456,1.456,0,0,0,.355.617,16.067,16.067,0,0,1,.958,1.833C976.579,223.678,976.641,223.74,976.734,223.74Zm4.185-1.572,0.016-.092a0.2,0.2,0,0,0-.062-0.108,3.01,3.01,0,0,1-.2-0.509,13.823,13.823,0,0,0-1-1.8,0.3,0.3,0,0,0-.216-0.139,1.774,1.774,0,0,0-.7.324,0.884,0.884,0,0,0-.587.447,0.249,0.249,0,0,0,.046.153,12.635,12.635,0,0,1,1.128,2.327,0.261,0.261,0,0,0,.2.231,0.625,0.625,0,0,0,.092-0.03,0.379,0.379,0,0,1,.155-0.062,3.6,3.6,0,0,0,1.143-.693Zm2.008-2.234a8.876,8.876,0,0,1-1.066,3.236,10.169,10.169,0,0,1-4.71,4.484,5.314,5.314,0,0,1,1.2.894,0.346,0.346,0,0,0,.263.123,9.181,9.181,0,0,0,2.672-1.972,14.489,14.489,0,0,0,3.073-4.854,3.571,3.571,0,0,1,.448-0.786,0.331,0.331,0,0,0,.093-0.2C984.9,220.627,984.209,220.289,982.927,219.934Zm17.044-5.009a1.649,1.649,0,1,0,1.649,1.65A1.634,1.634,0,0,0,999.971,214.925Zm0,0.833a0.823,0.823,0,0,1,.819.817,0.835,0.835,0,0,1-.819.816A0.817,0.817,0,1,1,999.971,215.758Zm-5.5,10.355c0,0.694-.108.832-0.664,0.832a6.03,6.03,0,0,1-1.622-.215,5.685,5.685,0,0,1,.479,1.448,0.385,0.385,0,0,0,.185.355,4.414,4.414,0,0,0,1.3.123c1.606,0,2.146-.493,2.146-1.988,0-.092,0-0.231-0.015-0.416-0.031-1.31-.031-1.31-0.031-2.851V220.52c2.78,0.015,2.981.015,3.521,0.03,0.9,0.031,1.05.031,1.13,0.031,0.31,0,.32-0.046.32-0.863a6.873,6.873,0,0,0-.03-0.724,0.169,0.169,0,0,0-.18-0.154,0.547,0.547,0,0,0-.17.015c-0.62.046-2.6,0.124-3.6,0.124h-1v-0.432a3.048,3.048,0,0,1,.185-1.294,0.814,0.814,0,0,0,.108-0.34,0.232,0.232,0,0,0-.17-0.246,9.634,9.634,0,0,0-2.085-.231,11.16,11.16,0,0,1,.17,2.127v0.416h-0.587a31.948,31.948,0,0,1-4.664-.185,6.236,6.236,0,0,0,.154,1.617,0.309,0.309,0,0,0,.294.247h0.031a45.151,45.151,0,0,1,4.772-.138Zm-3.259-4.222a6.7,6.7,0,0,1-2.517,4.022,4.19,4.19,0,0,1,1.034.57,0.725,0.725,0,0,0,.448.293c0.448,0,1.668-1.649,2.348-3.144a1.963,1.963,0,0,1,.324-0.585,0.394,0.394,0,0,0,.155-0.262C993.006,222.569,992.465,222.292,991.214,221.891Zm10.8,3.822a7.817,7.817,0,0,1-1.42-1.588,12,12,0,0,1-1.144-2.095,0.33,0.33,0,0,0-.278-0.262,4.048,4.048,0,0,0-1.019.416,0.485,0.485,0,0,0-.355.354,10.937,10.937,0,0,0,1.2,2.4c0.68,1.064,1.232,1.7,1.512,1.7a0.354,0.354,0,0,0,.22-0.109A3.965,3.965,0,0,1,1002.01,225.713Zm15.25-7.15a13.8,13.8,0,0,1-5.03,4.993,17.783,17.783,0,0,1-5.24,2.326,6.832,6.832,0,0,0,.77,1.634,0.8,0.8,0,0,0,.5.462,0.384,0.384,0,0,0,.28-0.154,5.011,5.011,0,0,1,1.43-.755,23,23,0,0,0,4.71-2.882,15.943,15.943,0,0,0,3.14-3.066,0.913,0.913,0,0,0,.26-0.54,0.779,0.779,0,0,0-.11-0.354A8.507,8.507,0,0,1,1017.26,218.563Zm-10.25.092a0.187,0.187,0,0,0,.09.139c0.11,0.061.11,0.061,0.65,0.416a12.889,12.889,0,0,1,1.6,1.279,1.445,1.445,0,0,0,.75.6,1.272,1.272,0,0,0,.63-0.524,3.1,3.1,0,0,0,.65-0.94,1.769,1.769,0,0,0-.77-0.832,9.106,9.106,0,0,0-2.41-1.526,0.75,0.75,0,0,0-.51.37A3.021,3.021,0,0,0,1007.01,218.655Zm20.02,8.809a7.756,7.756,0,0,1-.09,1.411h1.55a8.233,8.233,0,0,1-.08-1.339,3.875,3.875,0,0,1,.73,1.165,9.538,9.538,0,0,0,2.18-1.339,8.578,8.578,0,0,0,2.74,1.44,6.72,6.72,0,0,1,.71-1.367,7.9,7.9,0,0,1-2.48-1,9.889,9.889,0,0,0,1.59-2.385,2.724,2.724,0,0,1,.22-0.407l-0.71-.786a6.428,6.428,0,0,1-1.05.058h-2.35a8.082,8.082,0,0,1-1.18-.058v1.309a7.675,7.675,0,0,1,1.05-.058h0.36l-1.18.538a10.316,10.316,0,0,0,1.27,1.775,6.906,6.906,0,0,1-1.9.989v-5.121h4.86a10.288,10.288,0,0,1,1.47.073V221.02a9.478,9.478,0,0,1-1.46.073h-9.89a8.89,8.89,0,0,1-1.43-.073v1.338a9.222,9.222,0,0,1,1.37-.073v4.335c-0.56.044-.97,0.073-1.21,0.073a1.141,1.141,0,0,1-.21-0.015l0.31,1.44c0.41-.072,1.02-0.174,1.95-0.305,1.42-.2,1.56-0.233,2.86-0.48v0.131Zm0-1.266c-1.38.189-1.5,0.2-2.33,0.291v-0.858h2.33V226.2Zm0-1.585h-2.33v-0.684h2.33v0.684Zm0-1.7h-2.33v-0.626h2.33v0.626Zm5.29,1.193a5.405,5.405,0,0,1-1.05,1.469,5.327,5.327,0,0,1-.97-1.469h2.02Zm0.92-6.575c0-.553.01-0.858,0.04-1.207a14.106,14.106,0,0,1-1.48.058h-6.85a14.558,14.558,0,0,1-1.49-.058,10.064,10.064,0,0,1,.06,1.207v1.891a10.241,10.241,0,0,1-.06,1.207c0.44-.029.84-0.043,1.44-0.043h7.1c0.47,0,.99.014,1.28,0.043-0.03-.363-0.04-0.669-0.04-1.207v-1.891Zm-8.28-.087h6.82v0.582h-6.82v-0.582Zm0,1.542h6.82v0.567h-6.82v-0.567Zm19.96-2.052h-3.88a10.871,10.871,0,0,1-1.51-.086v1.425a10.262,10.262,0,0,1,1.44-.073h9.65a10.659,10.659,0,0,1,1.46.073v-1.425a10.593,10.593,0,0,1-1.46.086h-4.14v-0.174a6.019,6.019,0,0,1,.07-0.858h-1.7a3.984,3.984,0,0,1,.07.858v0.174Zm-3.27,3.986a9.275,9.275,0,0,1-.04,1.019c0.39-.029.74-0.044,1.33-0.044h5.77c0.64,0,.96.015,1.33,0.044a8.51,8.51,0,0,1-.05-1.019v-1.192a9.891,9.891,0,0,1,.05-1.019c-0.38.029-.66,0.044-1.26,0.044h-5.8c-0.64,0-.99-0.015-1.37-0.044a9.663,9.663,0,0,1,.04,1v1.207Zm1.46-1.033h5.41v0.844h-5.41v-0.844Zm-3.19,7.448a9.531,9.531,0,0,1-.09,1.542h1.65a11.138,11.138,0,0,1-.07-1.542v-3.709h8.8V227.1c0,0.233-.07.291-0.33,0.291a16.2,16.2,0,0,1-1.75-.131,3.548,3.548,0,0,1,.29,1.4c0.23,0.014.23,0.014,0.45,0.014,0.44,0.03.51,0.03,0.8,0.03a2.46,2.46,0,0,0,1.69-.335,1.354,1.354,0,0,0,.34-1.193v-3.564a9.917,9.917,0,0,1,.06-1.251,11.412,11.412,0,0,1-1.39.059h-9.05a14.281,14.281,0,0,1-1.46-.059,10.305,10.305,0,0,1,.06,1.266v3.709Zm8.88-2.3a7.357,7.357,0,0,1,.04-0.9,9.67,9.67,0,0,1-1.14.043h-3.84c-0.51,0-.79-0.014-1.14-0.043a7.61,7.61,0,0,1,.04.916v1.615a6.357,6.357,0,0,1-.06,1.134h1.45v-0.7h3.53c0.36,0,.91.015,1.16,0.044a8.167,8.167,0,0,1-.04-0.946v-1.163Zm-4.65.2h3.31V226h-3.31v-0.757Zm19.73-6.591a4.1,4.1,0,0,1,1.92.7,3.8,3.8,0,0,1,1.58,3.2c0,2.634-1.51,4.211-4.87,5.073a3.471,3.471,0,0,1,1.03,1.025,0.547,0.547,0,0,0,.49.373,3.9,3.9,0,0,0,1.17-.357,6.184,6.184,0,0,0,4.11-6.049,5.641,5.641,0,0,0-5.94-5.625,7.682,7.682,0,0,0-3.81.845,6.557,6.557,0,0,0-3.53,5.951c0,2.309,1.2,3.967,2.9,3.967a3.619,3.619,0,0,0,2.96-2.1C1062.89,223.948,1063.42,222.077,1063.88,218.647Zm-1.86.081a20.189,20.189,0,0,1-.83,3.951c-0.62,1.935-1.45,3.057-2.26,3.057-0.69,0-1.1-.732-1.1-1.984a5.031,5.031,0,0,1,1.72-3.853A4.673,4.673,0,0,1,1062.02,218.728Zm16.79,1.172h-3.15a13.343,13.343,0,0,1-1.74-.087v1.556c0.48-.044,1.14-0.073,1.75-0.073h3.14v1.688h-3.93a12.832,12.832,0,0,1-1.7-.087v1.585a13.266,13.266,0,0,1,1.7-.088h3.93v2.314c0,0.319-.14.421-0.54,0.421a18.928,18.928,0,0,1-2.34-.189,4.348,4.348,0,0,1,.43,1.527c0.83,0.059,1.47.088,1.89,0.088a4.445,4.445,0,0,0,1.59-.233,1.176,1.176,0,0,0,.54-1.193v-2.735h3.57a13.439,13.439,0,0,1,1.71.088V222.9a12.9,12.9,0,0,1-1.71.087h-3.57V221.3h2.92c0.71,0,1.25.029,1.72,0.073v-1.556a13.556,13.556,0,0,1-1.74.087h-2.9v-1.818a36.584,36.584,0,0,0,4.23-.771l-1.14-1.4a10.454,10.454,0,0,1-2.58.654,42.943,42.943,0,0,1-6.36.48h-0.62a7.888,7.888,0,0,1,.51,1.44c1.86-.044,2.51-0.073,4.39-0.247V219.9Zm12.75-3.477a13.244,13.244,0,0,1,.11,2.226c0,0.131-.02.436-0.03,0.945-0.12,3.39-.13,4.263-0.13,5.4a3.643,3.643,0,0,0,.77,2.778,3.338,3.338,0,0,0,2.45.8,7.018,7.018,0,0,0,4.72-1.963,2.429,2.429,0,0,0,1.01-1.266,0.764,0.764,0,0,0-.08-0.334,5.023,5.023,0,0,1-.52-1.426,8.538,8.538,0,0,1-1.39,1.688,5.321,5.321,0,0,1-3.68,1.6,1.376,1.376,0,0,1-1.49-.727,3.775,3.775,0,0,1-.12-1.047c0-1.44.06-3.258,0.18-5.6a8.344,8.344,0,0,1,.33-2.182,0.793,0.793,0,0,0,.09-0.349c0-.16-0.1-0.233-0.47-0.335A8.261,8.261,0,0,0,1091.56,216.423Zm24.66,1.353a3.805,3.805,0,0,0-.82-1.076,1.394,1.394,0,0,0-.64-0.523,1.585,1.585,0,0,0-.74.581,0.136,0.136,0,0,0,.06.117,6.786,6.786,0,0,1,1.15,1.483,0.157,0.157,0,0,0,.16.117A1.648,1.648,0,0,0,1116.22,217.776Zm-9.29-.625c-0.04.393-.07,0.96-0.07,1.28,0,0.524.04,0.553,0.87,0.713a18.146,18.146,0,0,0,3.59.334,13.132,13.132,0,0,0,2.36-.16,0.562,0.562,0,0,0,.12-0.509,8.456,8.456,0,0,0-.06-1.135,0.166,0.166,0,0,0-.19-0.13h-0.1a13.627,13.627,0,0,1-2.33.174A14.611,14.611,0,0,1,1106.93,217.151Zm-0.07,6.895c-1.2.669-1.33,0.771-1.33,0.989a3.273,3.273,0,0,0,.96,1.556c1.01,0.931,2.26,1.309,4.47,1.309a14.684,14.684,0,0,0,4.09-.45c0.13-.059.16-0.146,0.16-0.437a10.869,10.869,0,0,0-.07-1.265c-0.03-.132-0.07-0.189-0.16-0.189a0.387,0.387,0,0,0-.16.028,15.792,15.792,0,0,1-3.84.509C1108.59,226.1,1107.38,225.486,1106.86,224.046Zm9.4-8.8a1.374,1.374,0,0,0-.76.538,0.165,0.165,0,0,0,.08.117,8.721,8.721,0,0,1,1.12,1.382,0.216,0.216,0,0,0,.15.145,1.434,1.434,0,0,0,.53-0.32,0.468,0.468,0,0,0,.28-0.32,3.3,3.3,0,0,0-.77-1.047A1.438,1.438,0,0,0,1116.26,215.245Zm8.4,6.531a6.264,6.264,0,0,0-2.29,1.964,3.212,3.212,0,0,0-.58,1.847,2.357,2.357,0,0,0,1.01,2.037,7.045,7.045,0,0,0,3.87.771,28.841,28.841,0,0,0,3.2-.174,0.282,0.282,0,0,0,.24-0.335,10.526,10.526,0,0,0-.14-1.382,0.262,0.262,0,0,0-.25-0.175,1.3,1.3,0,0,0-.19.029,20.283,20.283,0,0,1-3.43.32c-1.88,0-2.62-.363-2.62-1.251s0.8-1.7,2.58-2.574a24.377,24.377,0,0,1,3.4-1.309,0.367,0.367,0,0,0,.35-0.335,3.305,3.305,0,0,0-.66-1.236,0.739,0.739,0,0,0-.48-0.379,0.463,0.463,0,0,0-.29.161,7.125,7.125,0,0,1-2.33,1.207c-0.16,0-.25-0.1-0.34-0.378a10.443,10.443,0,0,1-.31-2.386,3.25,3.25,0,0,1,.15-0.989,1,1,0,0,0,.04-0.247,0.338,0.338,0,0,0-.32-0.32,8.472,8.472,0,0,0-1.85-.16,6.128,6.128,0,0,1,.26,1.542,13.54,13.54,0,0,0,.43,2.821A1.7,1.7,0,0,0,1124.66,221.776Z" transform="translate(-754.844 -214.938)"/>
</svg>
